<?xml version="1.0" encoding="UTF-8" standalone="no"?>
<svg
   xmlns:dc="http://purl.org/dc/elements/1.1/"
   xmlns:cc="http://creativecommons.org/ns#"
   xmlns:rdf="http://www.w3.org/1999/02/22-rdf-syntax-ns#"
   xmlns:svg="http://www.w3.org/2000/svg"
   xmlns="http://www.w3.org/2000/svg"
   xmlns:sodipodi="http://sodipodi.sourceforge.net/DTD/sodipodi-0.dtd"
   xmlns:inkscape="http://www.inkscape.org/namespaces/inkscape"
   width="65.442757mm"
   height="57.045364mm"
   viewBox="0 0 65.442758 57.045366"
   version="1.1"
   id="svg8"
   inkscape:version="1.0.1 (3bc2e813f5, 2020-09-07)"
   sodipodi:docname="adults.svg">
  <defs
     id="defs2" />
  <sodipodi:namedview
     id="base"
     pagecolor="#ffffff"
     bordercolor="#666666"
     borderopacity="1.0"
     inkscape:pageopacity="0.0"
     inkscape:pageshadow="2"
     inkscape:zoom="2.8"
     inkscape:cx="125.66122"
     inkscape:cy="128.86905"
     inkscape:document-units="mm"
     inkscape:current-layer="layer1"
     inkscape:document-rotation="0"
     showgrid="false"
     inkscape:window-width="1431"
     inkscape:window-height="1030"
     inkscape:window-x="32"
     inkscape:window-y="0"
     inkscape:window-maximized="0"
     fit-margin-top="0"
     fit-margin-left="0"
     fit-margin-right="0"
     fit-margin-bottom="0" />
  <metadata
     id="metadata5">
    <rdf:RDF>
      <cc:Work
         rdf:about="">
        <dc:format>image/svg+xml</dc:format>
        <dc:type
           rdf:resource="http://purl.org/dc/dcmitype/StillImage" />
        <dc:title></dc:title>
      </cc:Work>
    </rdf:RDF>
  </metadata>
  <g
     inkscape:label="Layer 1"
     inkscape:groupmode="layer"
     id="layer1"
     transform="translate(-112.94566,-200.38541)">
    <g
       id="g186"
       transform="matrix(0.35277777,0,0,-0.35277777,175.33799,232.90054)">
      <path
         d="m 0,0 c -1.643,-10.527 -9.944,-17.683 -20.658,-17.898 -1.8,-0.037 -3.596,1.038 -5.435,1.271 -3.249,0.413 -6.569,1.009 -9.789,0.728 -3.776,-0.33 -6.555,-2.757 -8.505,-6.053 -1.069,-1.809 -2.21,-3.58 -3.413,-5.302 -0.671,-0.961 -1.573,-1.418 -2.64,-0.392 -6.568,6.321 -14.916,8.226 -23.534,9.063 -9.01,0.876 -18.033,0.783 -26.904,-1.503 -5.314,-1.368 -10.291,-3.393 -14.325,-7.247 -1.224,-1.17 -2.196,-1.14 -3.131,0.235 -0.762,1.118 -1.628,2.19 -2.212,3.396 -3.923,8.102 -10.807,9.772 -19.297,7.068 -9.958,-3.172 -20.305,0.176 -25.545,9.107 -3.464,5.903 -4.615,12.228 -0.516,18.299 1.176,1.744 3.562,2.79 5.568,3.814 1.332,0.681 2.31,-0.106 2.306,-1.729 -0.004,-1.655 0,-3.309 0,-4.963 h 0.049 c 0,-1.656 -0.074,-3.314 0.02,-4.963 0.111,-1.961 0.998,-3.711 2.978,-4.068 4.472,-0.806 9.042,-1.046 13.312,0.852 4.898,2.177 7.15,6.212 7.195,11.52 0.034,3.867 0.115,3.846 3.914,4.597 6.495,1.286 11.844,4.351 15.007,10.426 0.785,1.509 1.686,1.615 3.104,1.013 11.33,-4.809 23.269,-5.936 35.394,-5.489 8.344,0.309 16.433,1.947 23.79,6.191 1.212,0.698 1.972,0.392 2.522,-0.795 3.296,-7.11 9.304,-10.367 16.674,-11.56 1.985,-0.321 2.587,-1.277 2.624,-3.176 0.169,-8.655 5.113,-13.646 13.753,-14 1.428,-0.058 2.862,-0.077 4.289,-0.006 3.839,0.188 5.273,1.657 5.338,5.472 0.046,2.707 -0.039,5.417 0.05,8.122 0.024,0.743 0.28,1.881 0.764,2.101 0.552,0.251 1.607,-0.14 2.222,-0.568 C -0.224,10.229 0.831,5.322 0,0 m -28.054,-27.634 c -3.671,-6.925 -8.519,-12.925 -14.437,-18.034 -11.531,-9.955 -25.837,-15.248 -46.223,-15.277 -19.016,0.77 -37.59,11.308 -49.978,32.365 -1.651,2.806 -1.413,3.223 1.809,4.064 5.347,1.399 6.724,0.765 9.485,-4.061 2.266,-3.963 5.061,-7.483 9.179,-9.702 2.789,-1.502 4.947,-1.007 6.497,1.752 2.185,3.888 5.673,6.017 9.686,7.259 12.629,3.906 25.341,3.909 37.976,0.055 4.154,-1.266 7.81,-3.423 9.989,-7.547 1.289,-2.44 3.64,-2.918 6.216,-1.573 4.457,2.327 7.249,6.238 9.706,10.421 2.357,4.012 4.204,4.793 8.749,3.48 2.19,-0.631 2.421,-1.173 1.346,-3.202 m 21.711,50.671 c -1.681,0.381 -2.027,1.45 -2.099,2.964 -0.343,7.217 -2.398,14.057 -4.785,20.807 -0.213,0.603 -0.894,1.448 -1.396,1.475 -2.664,0.148 -5.341,0.07 -8.385,0.07 0.386,-1.025 0.62,-1.627 0.841,-2.233 1.082,-2.964 2.306,-5.885 3.211,-8.901 2.675,-8.915 2.821,-18.084 2.509,-27.287 -0.106,-3.105 -1.686,-4.079 -4.234,-2.245 -1.052,0.757 -1.888,2.336 -2.081,3.65 -0.346,2.36 -0.073,4.804 -0.165,7.208 -0.112,2.956 -1.683,4.556 -4.617,4.811 -1.274,0.113 -2.569,0.054 -3.83,0.239 -3.616,0.531 -7.116,1.438 -9.786,4.161 -3.2,3.265 -3.212,6.362 -0.445,9.908 0.688,0.883 1.348,1.788 1.997,2.702 -1.096,1.181 -2.254,2.304 -3.544,3.233 -1.4,1.007 -2.444,1.628 -3.513,1.416 -4.664,-6.55 -11.02,-10.816 -18.894,-13.068 -8.214,-2.35 -16.588,-1.957 -24.901,-1.366 -8.459,0.602 -16.656,2.519 -23.906,7.352 -4.092,2.728 -7.112,1.194 -7.547,-3.739 -0.418,-4.727 -2.942,-7.91 -7.376,-9.251 -2.912,-0.881 -6.018,-1.163 -9.056,-1.578 -2.936,-0.4 -4.33,-1.734 -4.418,-4.686 -0.073,-2.481 0.019,-4.967 -0.06,-7.448 -0.074,-2.336 -1.413,-3.859 -3.584,-4.274 -2.316,-0.444 -3.024,0.099 -3.044,2.496 -0.031,3.687 -0.029,7.373 0.015,11.06 0.11,8.914 1.922,17.456 5.668,25.571 0.269,0.584 0.382,1.239 0.696,2.297 -2.946,0 -5.422,0.088 -7.884,-0.065 -0.585,-0.036 -1.402,-0.767 -1.634,-1.365 -2.627,-6.763 -4.429,-13.74 -5.003,-20.991 -0.145,-1.836 -0.944,-2.555 -2.793,-2.778 -6.178,-0.75 -10.949,-3.874 -13.725,-9.442 -4.275,-8.575 -3.335,-17.101 1.235,-25.262 4.7,-8.392 12.227,-12.823 21.515,-14.489 1.559,-0.279 2.436,-0.975 3.207,-2.401 2.105,-3.896 4.185,-7.856 6.776,-11.428 9.059,-12.492 21.009,-21.13 35.685,-26.002 15.675,-5.203 31.306,-4.907 46.682,0.885 18.114,6.823 31.489,19.06 39.899,36.559 0.775,1.611 1.819,2.313 3.529,2.673 11.968,2.52 19.994,9.585 23.236,21.4 3.223,11.747 -1.38,24.505 -13.996,27.362"
         style="fill:#231f20;fill-opacity:1;fill-rule:nonzero;stroke:none"
         id="path188" />
    </g>
    <g
       id="g190"
       transform="matrix(0.35277777,0,0,-0.35277777,159.82216,234.22657)">
      <path
         d="m 0,0 c -0.167,-1.407 -0.169,-3.166 -0.617,-4.803 -0.795,-2.907 -3.177,-4.354 -6.184,-4.071 -2.746,0.26 -4.912,2.26 -5.125,5.12 -0.195,2.609 -0.188,5.254 -0.018,7.867 0.207,3.166 2.318,5.266 5.211,5.541 2.942,0.281 5.539,-1.537 6.276,-4.645 C -0.099,3.498 -0.157,1.89 0,0"
         style="fill:#231f20;fill-opacity:1;fill-rule:nonzero;stroke:none"
         id="path192" />
    </g>
    <g
       id="g194"
       transform="matrix(0.35277777,0,0,-0.35277777,136.53692,234.13632)">
      <path
         d="m 0,0 c 0.003,-1.199 0.067,-2.402 -0.009,-3.597 -0.207,-3.254 -2.495,-5.472 -5.654,-5.554 -3.24,-0.083 -5.659,1.884 -5.944,5.197 -0.231,2.679 -0.24,5.399 -0.06,8.083 0.205,3.043 3.055,5.415 5.981,5.293 3.115,-0.129 5.469,-2.42 5.67,-5.601 C 0.064,2.553 -0.003,1.274 0,0"
         style="fill:#231f20;fill-opacity:1;fill-rule:nonzero;stroke:none"
         id="path196" />
    </g>
    <g
       id="g198"
       transform="matrix(0.35277777,0,0,-0.35277777,146.10517,249.46907)">
      <path
         d="m 0,0 c -6.626,0.22 -12.65,1.546 -17.955,5.245 -0.911,0.636 -1.787,1.407 -2.46,2.284 -1.274,1.662 -1.034,3.389 0.273,4.949 1.36,1.622 3.246,1.944 5.047,0.897 1.75,-1.016 3.362,-2.406 5.234,-3.052 8.297,-2.861 16.359,-2.776 23.849,2.512 2.421,1.709 4.627,1.466 6.201,-0.545 C 21.544,10.56 21.065,7.793 18.932,6.112 13.308,1.683 6.707,0.234 0,0"
         style="fill:#231f20;fill-opacity:1;fill-rule:nonzero;stroke:none"
         id="path200" />
    </g>
    <g
       id="g202"
       transform="matrix(0.35277777,0,0,-0.35277777,169.48167,219.34548)">
      <path
         d="m 0,0 c -1.842,0 -3.536,1.212 -4.067,3.071 -2.942,10.297 -18.803,26.761 -24.815,32.381 -2.635,2.14 -4.205,4.363 -5.055,6.483 -6.504,-1.405 -15.299,-0.946 -19.687,-0.58 -0.068,0.006 -0.137,0.014 -0.206,0.023 -21.973,2.914 -41.296,-2.682 -57.43,-16.647 -12.206,-10.564 -17.947,-22.223 -18.003,-22.34 -1.02,-2.1 -3.55,-2.979 -5.652,-1.965 -2.102,1.016 -2.985,3.54 -1.973,5.643 0.256,0.531 6.406,13.121 19.819,24.828 12.424,10.845 33.652,22.917 64.248,18.886 7.838,-0.638 16.349,-0.214 18.991,0.889 0.213,0.465 0.447,0.877 0.686,1.226 1.047,1.533 2.969,2.209 4.745,1.656 1.773,-0.548 2.982,-2.188 2.982,-4.043 0,-1.149 -0.312,-2.256 -0.898,-3.242 -0.015,-0.936 0.488,-2.42 2.854,-4.315 0.083,-0.065 0.162,-0.135 0.238,-0.206 C -22.282,40.873 -0.14,20.139 4.072,5.396 4.714,3.148 3.413,0.806 1.165,0.164 0.777,0.053 0.385,0 0,0"
         style="fill:#231f20;fill-opacity:1;fill-rule:nonzero;stroke:none"
         id="path204" />
    </g>
  </g>
</svg>
