<?xml version="1.0" encoding="UTF-8" standalone="no"?>
<svg
   xmlns:dc="http://purl.org/dc/elements/1.1/"
   xmlns:cc="http://creativecommons.org/ns#"
   xmlns:rdf="http://www.w3.org/1999/02/22-rdf-syntax-ns#"
   xmlns:svg="http://www.w3.org/2000/svg"
   xmlns="http://www.w3.org/2000/svg"
   xmlns:sodipodi="http://sodipodi.sourceforge.net/DTD/sodipodi-0.dtd"
   xmlns:inkscape="http://www.inkscape.org/namespaces/inkscape"
   width="25.196957mm"
   height="12.129558mm"
   viewBox="0 0 25.196957 12.129558"
   version="1.1"
   id="svg8"
   inkscape:version="1.0.1 (3bc2e813f5, 2020-09-07)"
   sodipodi:docname="arrowright.svg">
  <defs
     id="defs2" />
  <sodipodi:namedview
     id="base"
     pagecolor="#ffffff"
     bordercolor="#666666"
     borderopacity="1.0"
     inkscape:pageopacity="0.0"
     inkscape:pageshadow="2"
     inkscape:zoom="2.8"
     inkscape:cx="90.212341"
     inkscape:cy="23.66025"
     inkscape:document-units="mm"
     inkscape:current-layer="layer1"
     inkscape:document-rotation="0"
     showgrid="false"
     inkscape:window-width="1431"
     inkscape:window-height="1030"
     inkscape:window-x="32"
     inkscape:window-y="0"
     inkscape:window-maximized="0"
     fit-margin-top="0"
     fit-margin-left="0"
     fit-margin-right="0"
     fit-margin-bottom="0" />
  <metadata
     id="metadata5">
    <rdf:RDF>
      <cc:Work
         rdf:about="">
        <dc:format>image/svg+xml</dc:format>
        <dc:type
           rdf:resource="http://purl.org/dc/dcmitype/StillImage" />
        <dc:title></dc:title>
      </cc:Work>
    </rdf:RDF>
  </metadata>
  <g
     inkscape:label="Layer 1"
     inkscape:groupmode="layer"
     id="layer1"
     transform="translate(-137.0801,-223.74474)">
    <g
       id="g66"
       transform="matrix(-0.35277777,0,0,0.35277777,153.10644,235.8743)">
      <path
         d="m 0,0 c -0.854,-3.432 -1.699,-6.83 -2.55,-10.248 0.083,-0.015 0.139,-0.031 0.196,-0.034 0.097,-0.005 0.194,-0.002 0.291,-0.002 h 47.087 0.405 v -13.82 c -0.071,-0.009 -0.137,-0.024 -0.204,-0.027 -0.096,-0.005 -0.193,-0.001 -0.29,-0.001 H -2.126 -2.559 c 0.857,-3.442 1.703,-6.841 2.551,-10.251 -0.206,0.064 -25.526,16.784 -25.987,17.154 0,0.008 -10e-4,0.017 0,0.026 0.001,0.008 0.002,0.019 0.008,0.023 8.617,5.707 17.236,11.415 25.854,17.121 C -0.105,-0.04 -0.071,-0.031 0,0"
         style="fill:#f8d858;fill-opacity:1;fill-rule:nonzero;stroke:none"
         id="path68" />
    </g>
  </g>
</svg>
