<?xml version="1.0" encoding="UTF-8"?>
<svg width="25.197mm" height="12.13mm" version="1.1" viewBox="0 0 25.197 12.13" xmlns="http://www.w3.org/2000/svg" xmlns:cc="http://creativecommons.org/ns#" xmlns:dc="http://purl.org/dc/elements/1.1/" xmlns:rdf="http://www.w3.org/1999/02/22-rdf-syntax-ns#">
 <metadata>
  <rdf:RDF>
   <cc:Work rdf:about="">
    <dc:format>image/svg+xml</dc:format>
    <dc:type rdf:resource="http://purl.org/dc/dcmitype/StillImage"/>
    <dc:title/>
   </cc:Work>
  </rdf:RDF>
 </metadata>
 <g transform="translate(-137.08 -223.74)">
  <g transform="matrix(.35278 0 0 -.35278 146.25 223.74)">
   <path d="m0 0c-0.854-3.432-1.699-6.83-2.55-10.248 0.083-0.015 0.139-0.031 0.196-0.034 0.097-5e-3 0.194-2e-3 0.291-2e-3h47.492v-13.82c-0.071-9e-3 -0.137-0.024-0.204-0.027-0.096-5e-3 -0.193-1e-3 -0.29-1e-3h-47.494c0.857-3.442 1.703-6.841 2.551-10.251-0.206 0.064-25.526 16.784-25.987 17.154 0 8e-3 -1e-3 0.017 0 0.026 1e-3 8e-3 2e-3 0.019 8e-3 0.023 8.617 5.707 17.236 11.415 25.854 17.121 0.028 0.019 0.062 0.028 0.133 0.059" fill="#f8d858"/>
  </g>
 </g>
</svg>
