<svg id="Layer_1" data-name="Layer 1" xmlns="http://www.w3.org/2000/svg" viewBox="0 0 1489 423.67"><defs><style>.cls-1{fill:#979898;}.cls-2{fill:#094a7b;}.cls-3{fill:#074b7b;}.cls-4{fill:#fff;}</style></defs><title>capuline logo svg</title><path class="cls-1" d="M150,343q-32.82,0-57.44-8.89T51.75,309.65a98.61,98.61,0,0,1-24.24-36.57,126.06,126.06,0,0,1-8-45.28,111.26,111.26,0,0,1,8-40.68A109.77,109.77,0,0,1,51.75,150Q68,133.47,92.6,123T150,112.61q12.92,0,23.65.51t20.52,1.71c6.5.81,12.9,1.83,19.15,3.08s12.76,2.68,19.55,4.27a175.8,175.8,0,0,0,2.73,22.56,263.26,263.26,0,0,0,6.26,27,15.63,15.63,0,0,1-6.26,1.37,21.6,21.6,0,0,1-5.67-.68,4.68,4.68,0,0,1-3.32-3.77q-7-22.54-22.28-32.12T160.2,127q-24.24,0-42.79,6.84a87.58,87.58,0,0,0-31.26,19.13A79.11,79.11,0,0,0,67,182.51Q60.54,199.78,60.54,221a112.36,112.36,0,0,0,8.21,43.4,108,108,0,0,0,22.08,34.18,97.34,97.34,0,0,0,32.44,22.22,100.67,100.67,0,0,0,39.67,7.87q16.81,0,28.33-2.91t19.16-8.37a50.91,50.91,0,0,0,12.9-13.5,136.49,136.49,0,0,0,10-18.29q2.73-5.13,9.39-5.13a17.82,17.82,0,0,1,4.1.51,12.68,12.68,0,0,1,3.32,1.2q-4.68,12-9.37,26.32a288.75,288.75,0,0,0-7.82,28.71q-19.15,2.73-39.09,4.27T150,343" transform="translate(-19.5 -26.6)"/><path class="cls-1" d="M353.28,263l-12.59,1.7q-10.21,1.73-19.85,4.11a67.2,67.2,0,0,0-17.11,6.66,36.45,36.45,0,0,0-12,10.78q-4.53,6.48-4.53,16.05,0,13,7.67,19.83T314,329a39.45,39.45,0,0,0,14.75-2.9,36.78,36.78,0,0,0,12.57-8.21,42.81,42.81,0,0,0,8.66-12.47,36.9,36.9,0,0,0,3.34-15.72Zm59.4,66.65q4.31,0,4.7,7.18Q407.19,343,391.58,343a45.37,45.37,0,0,1-15-2.22,33,33,0,0,1-10.69-6,27.19,27.19,0,0,1-6.72-8.55,33.65,33.65,0,0,1-3.18-9.91q-9.76,15.39-23.25,21T301.69,343a126.63,126.63,0,0,1-16.62-1.19,55.91,55.91,0,0,1-16.61-5,34.33,34.33,0,0,1-12.89-10.6c-3.4-4.55-5.08-10.6-5.08-18.11q0-12.66,6.83-21.37a53.66,53.66,0,0,1,17.6-14.35,114.49,114.49,0,0,1,23.44-9.06q12.7-3.4,24.43-5.81c4.44-.68,8.53-1.41,12.31-2.22a102.77,102.77,0,0,0,10-2.56c3.64-.91,5.93-2.17,6.84-3.77s1.37-4.66,1.37-9.23q0-16-7-26.48t-25-10.43a40.88,40.88,0,0,0-11.33,1.37,19.28,19.28,0,0,0-7.82,4.27,25.94,25.94,0,0,0-5.47,7.69,114.14,114.14,0,0,0-4.7,11.28,8.55,8.55,0,0,1-5.27,5.47A104.86,104.86,0,0,1,272.76,237c-1.56.45-3.51.91-5.86,1.36a31.37,31.37,0,0,1-5.86.69c-2.6,0-3.91-2.4-3.91-7.18q0-7.52,6.65-15a64.41,64.41,0,0,1,17-13.33,109.48,109.48,0,0,1,22.48-9.4,81.32,81.32,0,0,1,23.07-3.59A134.21,134.21,0,0,1,351,192.6a48.41,48.41,0,0,1,18.9,7.51A34.79,34.79,0,0,1,382,214.81q4.14,9.23,4.15,23.93v58.78q0,12,1,17.26a23.62,23.62,0,0,0,2.92,8.38q2.75,4.79,6.07,6.31a15.85,15.85,0,0,0,6.84,1.55,18.54,18.54,0,0,0,6.06-.69,10.21,10.21,0,0,1,3.7-.68" transform="translate(-19.5 -26.6)"/><path class="cls-1" d="M470.13,311.19a82.36,82.36,0,0,0,21.5,14.19,63.9,63.9,0,0,0,26.58,5.29,42.85,42.85,0,0,0,19.93-4.44,40.75,40.75,0,0,0,14.27-12.14A54.89,54.89,0,0,0,561,295.64a88.59,88.59,0,0,0,2.94-23.41,91.13,91.13,0,0,0-3.32-24.78,64.71,64.71,0,0,0-9.77-20.68,48.27,48.27,0,0,0-15.64-14,41.43,41.43,0,0,0-20.51-5.12,34.47,34.47,0,0,0-15.64,3.93,59,59,0,0,0-14.27,10.09,54.6,54.6,0,0,0-10.55,13.83A32.73,32.73,0,0,0,470.13,251ZM437.3,224.72q0-9.57-3.7-13.68t-17-5.12c-3.39-.45-5.08-1.94-5.08-4.44a17.44,17.44,0,0,1,.78-4.79c3.38,0,8-.16,13.87-.51a135.24,135.24,0,0,0,14.67-1.53q8.58-1,15.43-2.57a51.09,51.09,0,0,1,10-1.54c3.37,0,5.08,1.71,5.08,5.13,0,2.73-.2,6-.58,9.74s-.6,9.28-.6,16.57a117.39,117.39,0,0,1,26.39-22.39q14.66-9,36.15-9.05a70.27,70.27,0,0,1,25.6,4.78A62.44,62.44,0,0,1,580,209.51a70.48,70.48,0,0,1,15,23.08q5.64,13.65,5.66,31.1,0,19.14-8.21,33.83a87,87,0,0,1-20.33,24.78,90.14,90.14,0,0,1-26.37,15.38Q531.49,343,519.38,343A144.4,144.4,0,0,1,495,340.93a124.87,124.87,0,0,1-24.83-7.18v61.87c0,5.92,3,9.95,9,12.13s15.76,3.81,29.31,5c2.86.45,4.29,1.92,4.29,4.44a26.42,26.42,0,0,1-.77,5.46q-9-.67-24.63-1.19T458,420.9q-10.18,0-21.51.52T415,422.61a25.23,25.23,0,0,1-.78-5.46q0-3.42,3.51-4.1a70.62,70.62,0,0,0,14.07-4.1q5.48-2.42,5.47-7.87Z" transform="translate(-19.5 -26.6)"/><path class="cls-1" d="M714,232.58c-2.09,0-3.59-.4-4.49-1.2a5.33,5.33,0,0,1-1.77-2.56q-2.73-14-12.7-20t-24.81-6a36.49,36.49,0,0,0-20.14,5.63q-8.79,5.66-8.78,15.55,0,8.9,8,14.87t29.12,11.79a203,203,0,0,1,20.91,6.84,66.85,66.85,0,0,1,16.42,9.05,38,38,0,0,1,10.74,13q3.91,7.68,3.91,18.28a41,41,0,0,1-3.71,17.1,39.28,39.28,0,0,1-11.34,14.35,59.5,59.5,0,0,1-19.14,9.91Q684.7,343,668.69,343a170.8,170.8,0,0,1-27.94-2.57,100.17,100.17,0,0,1-28-8.71q-.79-8.88-1.37-18.62c-.39-6.51-.58-13.05-.58-19.67h3.91a16.55,16.55,0,0,1,6.64,1.21,4.87,4.87,0,0,1,3.12,3.92,32.64,32.64,0,0,0,12.7,23.08q11.16,8.72,31.08,8.71,16,0,24.63-6.32a20.32,20.32,0,0,0,8.59-17.27q0-11.26-9.38-17.25t-27.75-10.77q-23.07-6.15-36.15-16.06t-13.1-29.05a37.08,37.08,0,0,1,3.91-16.75,41.8,41.8,0,0,1,11-13.67A53.37,53.37,0,0,1,647.19,194a71.08,71.08,0,0,1,22.67-3.43,117.59,117.59,0,0,1,29.51,3.6q13.88,3.59,21.69,7.69c.26,1.82.52,4.05.78,6.66s.46,5.36.59,8.21.25,5.69.4,8.54.19,5.42.19,7.69Z" transform="translate(-19.5 -26.6)"/><path class="cls-1" d="M760.92,226.09q0-11.28-3.71-15.22c-2.48-2.61-8.15-4.27-17-4.94-3.4-.46-5.08-1.94-5.08-4.45a17.32,17.32,0,0,1,.78-4.78q5.07,0,13.48-.52a130.84,130.84,0,0,0,14.26-1.54,134.43,134.43,0,0,0,15.06-2.56,45.7,45.7,0,0,1,9.57-1.55c3.65,0,5.48,1.72,5.48,5.13v85.45a98.16,98.16,0,0,0,1.16,15.73,35.42,35.42,0,0,0,4.31,12.47,21,21,0,0,0,9,8.21c3.92,1.94,8.86,2.9,14.85,2.9a64.33,64.33,0,0,0,19.16-2.9A51.7,51.7,0,0,0,858.83,309a42.2,42.2,0,0,0,11.53-13.84,40.73,40.73,0,0,0,4.3-19.15V226.09q0-10.93-3.72-15t-17.4-5.12c-3.37-.46-5.07-1.94-5.07-4.45a17.37,17.37,0,0,1,.79-4.78q5.07,0,13.47-.52t14.66-1.54a129.06,129.06,0,0,0,15.06-2.56,44.09,44.09,0,0,1,9.5-1.55c3.68,0,5.54,1.72,5.54,5.13V306.75a45,45,0,0,0,.78,9.39A11,11,0,0,0,911.4,322a15.26,15.26,0,0,0,6.44,3.41,47.89,47.89,0,0,0,10.76,1.54c3.38.47,5.08,1.94,5.08,4.44a18.11,18.11,0,0,1-.78,4.79,125.34,125.34,0,0,0-15.65,1c-5.47.67-10.7,1.37-15.71,2.05s-9.42,1.36-13.23,2a53,53,0,0,1-8.11,1c-3.7,0-5.54-1.71-5.54-5.12V308.79q-1.18,1-6.64,6.51a108.82,108.82,0,0,1-14.27,11.61A112.49,112.49,0,0,1,833.42,338a62.26,62.26,0,0,1-24.82,5q-23.83,0-35.76-12t-11.92-33.84Z" transform="translate(-19.5 -26.6)"/><path class="cls-2" d="M1023.57,340.58q-10.17-.68-20.75-1.19t-21.27-.51q-10.68,0-21.85.51t-21,1.19a25.75,25.75,0,0,1-.77-5.46c0-2.28,1.17-3.64,3.51-4.1a93.72,93.72,0,0,0,16-3.94q7.41-2.55,7.42-8V135.17q0-10.93-4.89-14.87t-18.56-5q-5.09-.69-5.08-4.79a17.44,17.44,0,0,1,.78-4.79q5.07,0,14.08-.5c6-.35,11.47-.74,16.44-1.21a131.8,131.8,0,0,0,16.2-2.73,50.9,50.9,0,0,1,10.28-1.71c2.37,0,3.95.47,4.74,1.38a5.52,5.52,0,0,1,1.19,3.76A91,91,0,0,1,999,118.25a119.5,119.5,0,0,0-1.17,17.95V319.06c0,3.64,2.4,6.32,7.23,8a87.19,87.19,0,0,0,16.22,3.94c2.08.46,3.12,1.82,3.12,4.1a26.56,26.56,0,0,1-.78,5.46" transform="translate(-19.5 -26.6)"/><path class="cls-2" d="M1047,133.46a18.73,18.73,0,0,1,6.45-14.19c4.3-4,9.7-6,16.22-6a21.8,21.8,0,0,1,15.63,6,19,19,0,0,1,6.26,14.19,18.15,18.15,0,0,1-6.26,14.36q-6.25,5.48-15.63,5.47-9.78,0-16.22-5.47a17.9,17.9,0,0,1-6.45-14.36m22.86,205.42q-6.72,0-13.62.17t-12.76.51q-5.87.35-10.16.68c-2.88.23-4.69.34-5.47.34,0-.23-.14-1-.39-2.39a17.27,17.27,0,0,1-.4-3.07c0-2.28,1.17-3.64,3.53-4.1a88.11,88.11,0,0,0,16.41-4.11c4.17-1.58,6.25-4.21,6.25-7.85v-93q0-10.25-4.1-14.7t-17.78-5.46c-3.4-.46-5.09-2.06-5.09-4.79a17,17,0,0,1,.78-4.44q5.07,0,14.27-.52t15.09-1.2c6.06-.9,11.45-1.88,16.2-2.9a54.9,54.9,0,0,1,10.28-1.54c3.68,0,5.53,1.71,5.53,5.13a67.67,67.67,0,0,1-1.17,11.45,104.81,104.81,0,0,0-1.17,17.6v94.34c0,3.64,2,6.27,6.06,7.85a82.71,82.71,0,0,0,17,4.11c2.08.46,3.13,1.82,3.13,4.1,0,.68-.07,1.71-.19,3.07a4.68,4.68,0,0,1-.6,2.39c-.78,0-2.53-.11-5.27-.34s-6.06-.45-10-.68-8.16-.4-12.76-.51-9.14-.17-13.62-.17" transform="translate(-19.5 -26.6)"/><path class="cls-3" d="M1286.21,319.4c0,3.41,2.34,6,7,7.68a83,83,0,0,0,15.63,3.94q3.51.68,3.51,4.1a26.5,26.5,0,0,1-.77,5.47q-10.17-.69-19.94-1.2t-21.1-.51q-10.56,0-20.91.51t-20.53,1.2a25.83,25.83,0,0,1-.77-5.47q0-3.42,3.51-4.1a74.68,74.68,0,0,0,14.85-3.94c4.43-1.7,6.65-4.27,6.65-7.68v-67a97.89,97.89,0,0,0-1.17-15.72,33.64,33.64,0,0,0-4.47-12.49,22.48,22.48,0,0,0-9-8.2c-3.76-1.93-8.63-2.9-14.58-2.9a64.06,64.06,0,0,0-19.07,2.9,51.4,51.4,0,0,0-16.53,8.55,42,42,0,0,0-11.47,13.84,40.07,40.07,0,0,0-4.27,18.8V319.4c0,3.41,2.27,6,6.83,7.68a80.92,80.92,0,0,0,14.66,3.94q3.53.68,3.52,4.1a25.43,25.43,0,0,1-.79,5.47q-10.15-.69-20-1.2c-6.53-.34-13.5-.51-20.87-.51-7.66,0-14.87.17-21.67.51s-13.46.74-20,1.2a26.09,26.09,0,0,1-.79-5.47q0-3.42,3.53-4.1a83.58,83.58,0,0,0,15.63-3.94q7-2.55,7-8v-93q0-10.25-4.1-14.7t-17.78-5.47c-3.39-.45-5.08-2-5.08-4.78a17,17,0,0,1,.77-4.45c3.39,0,8.14-.16,14.28-.51s11.14-.73,15.08-1.2c6.06-.9,11.45-1.88,16.2-2.9a55,55,0,0,1,10.28-1.54c3.68,0,5.53,1.71,5.53,5.13a67.77,67.77,0,0,1-1.17,11.45,104.81,104.81,0,0,0-1.17,17.6q16.74-16.41,32.13-25.3a66.27,66.27,0,0,1,33.69-8.88q23.76,0,35.64,12.13t11.88,33.67Z" transform="translate(-19.5 -26.6)"/><path class="cls-3" d="M1393.88,202.85q-19.45,0-30.34,13.33T1352.66,251l73.5-3.06c3.89,0,5.83-1.49,5.83-4.45a44.34,44.34,0,0,0-2.33-13.67,43,43,0,0,0-7-13.16,37.9,37.9,0,0,0-11.86-9.91,34.81,34.81,0,0,0-16.92-3.93m63.17,104.24a8.73,8.73,0,0,1,5.84-2.39q3.9,0,7.41,5.81a103.63,103.63,0,0,1-11.73,12,75.16,75.16,0,0,1-15.83,10.43,94.3,94.3,0,0,1-20.91,7.34,119,119,0,0,1-27,2.74,98.38,98.38,0,0,1-29.7-4.44,70,70,0,0,1-24.83-13.68A68,68,0,0,1,1323.14,302q-6.44-13.68-6.45-32.14a68.61,68.61,0,0,1,7.63-32.12,83.32,83.32,0,0,1,19.73-25.12,94.35,94.35,0,0,1,26.77-16.24,76.62,76.62,0,0,1,28.33-5.81q36.36,0,53,18.45t16.61,48.21c0,1.36-.77,2-2.34,2l-113,4.45a68.87,68.87,0,0,0,4.28,24.6,57.78,57.78,0,0,0,12.08,19.48,54.38,54.38,0,0,0,18.9,12.82,64.83,64.83,0,0,0,25.12,4.61,58.18,58.18,0,0,0,24-5.12,62.64,62.64,0,0,0,19.28-13" transform="translate(-19.5 -26.6)"/><path class="cls-2" d="M1483.8,177.88a6.56,6.56,0,0,0,3.65-.94,3.58,3.58,0,0,0,1.47-3.29q0-4.35-5.24-4.35h-1v8.58Zm14.46,12.36a4.75,4.75,0,0,1-.77,1c-.34.35-.63.64-.89.87h-1.16a6.57,6.57,0,0,1-3.19-.76,7.16,7.16,0,0,1-2.18-1.7l-6.39-8.47h-1v7.06a1.41,1.41,0,0,0,.26.76c.16.27.72.49,1.66.65q.51,0,.51.69v.71a1.47,1.47,0,0,1-.13.71c-.76,0-1.6,0-2.49-.06s-1.82-.06-2.75-.06c-.69,0-1.54,0-2.57.06s-2,.06-2.81.06a1.49,1.49,0,0,1-.12-.71v-.71c0-.46.16-.69.5-.69a2.81,2.81,0,0,0,1.6-.65,1.25,1.25,0,0,0,.32-.76v-18.6a.64.64,0,0,0-.38-.64,8.41,8.41,0,0,0-1.54-.42c-.34-.08-.5-.35-.5-.83v-.64a1.61,1.61,0,0,1,.12-.76,17,17,0,0,0,2.94.23H1485a15.43,15.43,0,0,1,7.49,1.65,5.69,5.69,0,0,1,3,5.41,5.86,5.86,0,0,1-1.53,4.06,9.08,9.08,0,0,1-3.84,2.52l6.79,9a3.12,3.12,0,0,0,1.4,1.06m-13.18,7.29a18.32,18.32,0,0,0,7.36-1.46,20,20,0,0,0,6-3.95,18.46,18.46,0,0,0,4-5.7,16.49,16.49,0,0,0,1.48-6.88,16.91,16.91,0,0,0-1.54-7.12,19.07,19.07,0,0,0-4.1-5.83,19.7,19.7,0,0,0-6-3.94,19,19,0,0,0-7.43-1.47,19.22,19.22,0,0,0-7.36,1.41,18.42,18.42,0,0,0-5.88,3.88,19.07,19.07,0,0,0-4,5.77,17.21,17.21,0,0,0,0,13.76,19.32,19.32,0,0,0,3.9,5.89,18.42,18.42,0,0,0,6,4.12,18.92,18.92,0,0,0,7.62,1.52m-23.55-18.23a19.47,19.47,0,0,1,1.86-8.41,21.87,21.87,0,0,1,5-6.83,24.08,24.08,0,0,1,7.43-4.58,25.34,25.34,0,0,1,18.3,0,24.74,24.74,0,0,1,7.49,4.58,21.31,21.31,0,0,1,5.05,6.83,19.94,19.94,0,0,1,0,16.82,21.74,21.74,0,0,1-5.05,6.88,24,24,0,0,1-7.49,4.65,25.34,25.34,0,0,1-18.3,0,23.34,23.34,0,0,1-7.43-4.65,22.32,22.32,0,0,1-5-6.88,19.43,19.43,0,0,1-1.86-8.41" transform="translate(-19.5 -26.6)"/><path class="cls-2" d="M597.4,383.56a12.39,12.39,0,0,1-2,.26,4.14,4.14,0,0,1-2.58-.65,4.65,4.65,0,0,1-1.24-1.46q-3.54-7.53-8.44-11c-3.27-2.29-7.71-3.44-13.35-3.44a22.06,22.06,0,0,0-6.2.86,15.89,15.89,0,0,0-5.1,2.51,12.42,12.42,0,0,0-3.47,4,10.79,10.79,0,0,0-1.31,5.28,12.15,12.15,0,0,0,5.38,10.18q5.38,4,15.88,8.05,13.07,5,19.27,11.16a20.45,20.45,0,0,1,6.2,15.13,29.51,29.51,0,0,1-1.7,10.11,21.71,21.71,0,0,1-5.31,8.19,24.94,24.94,0,0,1-9.33,5.48,42.29,42.29,0,0,1-13.76,2A63.43,63.43,0,0,1,555,448.55a44.76,44.76,0,0,1-11.66-4.49c-.27-3.7-.67-7.26-1.22-10.7s-1.18-6.87-1.91-10.31a6.13,6.13,0,0,1,2.31-.39,3.89,3.89,0,0,1,2.53.73,6,6,0,0,1,1.57,2.31q3.4,9.51,8.78,14t15,4.49a22.4,22.4,0,0,0,7.63-1.18,15.2,15.2,0,0,0,5.45-3.31,14.15,14.15,0,0,0,3.27-4.75,14.92,14.92,0,0,0,1.09-5.68A13.29,13.29,0,0,0,583,418.43q-4.83-4-13.82-7.13a109.2,109.2,0,0,1-10.63-4.42,35.76,35.76,0,0,1-8.17-5.35,21.47,21.47,0,0,1-5.25-7.07,24.82,24.82,0,0,1,0-18.76,21.73,21.73,0,0,1,5.31-7.47,26.1,26.1,0,0,1,8.39-5,31.12,31.12,0,0,1,11-1.84,61.07,61.07,0,0,1,12.26,1.19,86.78,86.78,0,0,1,13.21,4q.27,4,.75,8.52c.32,3,.76,5.88,1.29,8.52" transform="translate(-19.5 -26.6)"/><path class="cls-2" d="M619.6,369.29a7.79,7.79,0,0,1,7.9-7.79,7.21,7.21,0,0,1,5.45,2.31,7.69,7.69,0,0,1,2.18,5.48,7.37,7.37,0,0,1-2.18,5.56A7.55,7.55,0,0,1,627.5,377a8,8,0,0,1-5.65-2.11,7.27,7.27,0,0,1-2.25-5.56m8,79.39c-1.55,0-3.14,0-4.74.07s-3.08.11-4.45.2l-3.54.26c-1,.09-1.64.13-1.91.13,0-.08,0-.39-.13-.92a8,8,0,0,1-.14-1.19,1.44,1.44,0,0,1,1.23-1.58,28.67,28.67,0,0,0,5.71-1.59,3.14,3.14,0,0,0,2.18-3V405.09c0-2.63-.47-4.53-1.43-5.67s-3-1.85-6.19-2.12c-1.18-.18-1.78-.79-1.78-1.85a7.44,7.44,0,0,1,.28-1.72c1.18,0,2.84-.06,5-.19s3.87-.29,5.24-.47c2.12-.35,4-.72,5.65-1.12a17.33,17.33,0,0,1,3.58-.59,1.72,1.72,0,0,1,1.93,2,29,29,0,0,1-.4,4.42,45.43,45.43,0,0,0-.42,6.81V441a3.15,3.15,0,0,0,2.12,3,26.82,26.82,0,0,0,5.93,1.59,1.42,1.42,0,0,1,1.09,1.58c0,.26,0,.66-.07,1.19a2.05,2.05,0,0,1-.21.92c-.27,0-.88,0-1.84-.13s-2.11-.17-3.47-.26-2.85-.15-4.45-.2-3.19-.07-4.75-.07" transform="translate(-19.5 -26.6)"/><path class="cls-2" d="M709.91,441.15c0,1.32.82,2.31,2.45,3a27,27,0,0,0,5.45,1.51,1.46,1.46,0,0,1,1.23,1.59,11.08,11.08,0,0,1-.27,2.11q-3.56-.25-6.95-.45c-2.27-.13-4.73-.21-7.36-.21-2.45,0-4.88.08-7.28.21s-4.8.28-7.15.45a10.32,10.32,0,0,1-.27-2.11,1.45,1.45,0,0,1,1.22-1.59,24.4,24.4,0,0,0,5.18-1.51c1.53-.67,2.31-1.66,2.31-3V415.26a43.76,43.76,0,0,0-.4-6.07,14.15,14.15,0,0,0-1.57-4.83,8.27,8.27,0,0,0-3.12-3.17,10.14,10.14,0,0,0-5.08-1.12,20.17,20.17,0,0,0-6.64,1.12,17.22,17.22,0,0,0-5.76,3.3,16,16,0,0,0-4,5.36,16.78,16.78,0,0,0-1.49,7.27v24c0,1.32.8,2.31,2.38,3a26.17,26.17,0,0,0,5.11,1.51,1.45,1.45,0,0,1,1.22,1.59,11.08,11.08,0,0,1-.27,2.11q-3.54-.25-7-.45c-2.27-.13-4.7-.21-7.27-.21s-5.19.08-7.55.21-4.69.28-7,.45a11.08,11.08,0,0,1-.27-2.11,1.46,1.46,0,0,1,1.23-1.59,26.94,26.94,0,0,0,5.44-1.51c1.64-.67,2.46-1.7,2.46-3.11V405.09c0-2.63-.48-4.53-1.44-5.67s-3-1.85-6.19-2.12c-1.18-.18-1.77-.79-1.77-1.85a6.84,6.84,0,0,1,.27-1.72c1.18,0,2.83-.06,5-.19s3.88-.29,5.26-.47q3.16-.52,5.64-1.12a17.3,17.3,0,0,1,3.59-.59,1.72,1.72,0,0,1,1.93,2,30.56,30.56,0,0,1-.41,4.43,45.64,45.64,0,0,0-.41,6.81,58.16,58.16,0,0,1,11.2-9.78,21.32,21.32,0,0,1,11.74-3.43c5.51,0,9.66,1.56,12.42,4.68s4.14,7.47,4.14,13Z" transform="translate(-19.5 -26.6)"/><path class="cls-2" d="M754.32,396.38a12.41,12.41,0,0,0-10.42,5.41q-4,5.41-4,14.66,0,12.81,5.93,19.94a19.42,19.42,0,0,0,15.73,7.15,17.8,17.8,0,0,0,7.3-1.33,45.68,45.68,0,0,0,5.09-2.65l1-.58a2,2,0,0,1,1.09-.33,2.19,2.19,0,0,1,1.5.91,8.87,8.87,0,0,1,1.09,1.46,22.54,22.54,0,0,1-3.41,3.17,27.62,27.62,0,0,1-4.9,3,31.31,31.31,0,0,1-6.74,2.24,40.42,40.42,0,0,1-8.79.86,31,31,0,0,1-10.55-1.79,24.33,24.33,0,0,1-8.72-5.34,25.08,25.08,0,0,1-5.93-8.92,33,33,0,0,1-2.18-12.49A28.58,28.58,0,0,1,730,409.38a31.83,31.83,0,0,1,16.07-15.78,24.71,24.71,0,0,1,10-2.24,36.76,36.76,0,0,1,9.13,1.05,26,26,0,0,1,6.95,2.78,14,14,0,0,1,4.43,4,8.52,8.52,0,0,1,1.56,4.82c0,.53-.45,1-1.36,1.32a17.22,17.22,0,0,1-3.07.86,28.61,28.61,0,0,1-3.27.47c-1,.08-1.66.13-1.84.13a3.11,3.11,0,0,1-2.78-1.65l-2.26-3.58a14.75,14.75,0,0,0-3.33-3.56,9.42,9.42,0,0,0-5.93-1.64" transform="translate(-19.5 -26.6)"/><path class="cls-2" d="M812.29,396.11a12.43,12.43,0,0,0-10.59,5.15c-2.52,3.43-3.79,7.93-3.79,13.47l25.63-1.19c1.35,0,2-.56,2-1.71a18.92,18.92,0,0,0-.81-5.29,17.34,17.34,0,0,0-2.44-5.09,13.67,13.67,0,0,0-4.14-3.82,11.12,11.12,0,0,0-5.88-1.52m22,40.28a2.94,2.94,0,0,1,2-.91c.91,0,1.77.74,2.59,2.24a38.7,38.7,0,0,1-4.09,4.62,26.37,26.37,0,0,1-5.52,4,30.34,30.34,0,0,1-7.29,2.84,37.43,37.43,0,0,1-9.4,1.06,31.22,31.22,0,0,1-10.35-1.72,23.82,23.82,0,0,1-8.64-5.28,26.08,26.08,0,0,1-6-8.85A31.55,31.55,0,0,1,785.38,422,28.84,28.84,0,0,1,788,409.58a32.08,32.08,0,0,1,16.21-16,24.54,24.54,0,0,1,9.87-2.24q12.66,0,18.46,7.12t5.79,18.64a.71.71,0,0,1-.82.79l-39.36,1.71a29.27,29.27,0,0,0,1.48,9.51,23.23,23.23,0,0,0,4.21,7.54,19.1,19.1,0,0,0,6.59,4.94,20.52,20.52,0,0,0,8.75,1.79,18.65,18.65,0,0,0,8.36-2,21.86,21.86,0,0,0,6.72-5" transform="translate(-19.5 -26.6)"/><path class="cls-2" d="M882.09,401.26a5.42,5.42,0,0,1-.75.6,1.76,1.76,0,0,1-1,.32,3.47,3.47,0,0,1-2.86-1.72,47.31,47.31,0,0,1,11.78-10.63,26.12,26.12,0,0,1,14.1-4q9.4,0,14.09,4.7t4.71,12.22a21.41,21.41,0,0,1-1.57,7.93,30.71,30.71,0,0,1-5.24,8.31,82.86,82.86,0,0,1-9.81,9.52q-6.13,5.14-15.26,11.62h23a8.59,8.59,0,0,0,4.56-1.12q1.83-1.12,3.33-4.57a2.29,2.29,0,0,1,2.18-1.45,8.08,8.08,0,0,1,1.5.26,2.62,2.62,0,0,0,.82.14q-1.23,3.43-2.25,7.14c-.68,2.46-1.29,4.84-1.83,7.12a2.27,2.27,0,0,1-.69,1.33,2.59,2.59,0,0,1-1.36.26c-1.64,0-3.68-.08-6.13-.26s-5.13-.27-8-.27H877.46v-3.17q8.46-6.86,14.37-12.34a90.15,90.15,0,0,0,9.6-10.18,38.66,38.66,0,0,0,5.38-8.78,21,21,0,0,0,1.71-8.06,14.38,14.38,0,0,0-2.38-8.26c-1.6-2.33-4.34-3.49-8.25-3.49a19.07,19.07,0,0,0-7.63,1.58,35.25,35.25,0,0,0-8.17,5.28" transform="translate(-19.5 -26.6)"/><path class="cls-2" d="M949.79,418.3a41,41,0,0,0,1.42,11.43,25.31,25.31,0,0,0,4,8.12,16,16,0,0,0,5.85,4.89,16.44,16.44,0,0,0,7.16,1.58,15,15,0,0,0,6.74-1.58,16.15,16.15,0,0,0,5.65-4.76,24.12,24.12,0,0,0,3.89-8.06,41.77,41.77,0,0,0,1.42-11.62,43.39,43.39,0,0,0-1.42-11.76,25.06,25.06,0,0,0-3.89-8.26,16.8,16.8,0,0,0-5.72-4.88,15.35,15.35,0,0,0-6.94-1.65,15.7,15.7,0,0,0-6.95,1.59,16.51,16.51,0,0,0-5.79,4.81,24.44,24.44,0,0,0-4,8.26,44.28,44.28,0,0,0-1.42,11.89m18.12,32A35.35,35.35,0,0,1,954.83,448a27.7,27.7,0,0,1-9.94-6.54,29.44,29.44,0,0,1-6.34-10.1,36.2,36.2,0,0,1-2.25-13,34,34,0,0,1,2.38-12.68,31.19,31.19,0,0,1,16.62-17.24,30.62,30.62,0,0,1,12.61-2.58,32,32,0,0,1,12.59,2.45,30,30,0,0,1,16.62,17,35,35,0,0,1,2.38,13.08,34.49,34.49,0,0,1-2.24,12.55A31,31,0,0,1,990.92,441a28.31,28.31,0,0,1-9.94,6.81,33.82,33.82,0,0,1-13.07,2.44" transform="translate(-19.5 -26.6)"/><path class="cls-2" d="M1022.53,418.3a40.6,40.6,0,0,0,1.42,11.43,25.3,25.3,0,0,0,4,8.12,16,16,0,0,0,5.86,4.89,16.44,16.44,0,0,0,7.16,1.58,14.92,14.92,0,0,0,6.73-1.58,16.18,16.18,0,0,0,5.66-4.76,23.92,23.92,0,0,0,3.88-8.06,41.75,41.75,0,0,0,1.43-11.62,43.37,43.37,0,0,0-1.43-11.76,24.86,24.86,0,0,0-3.88-8.26,16.8,16.8,0,0,0-5.72-4.88,15.36,15.36,0,0,0-6.95-1.65,15.66,15.66,0,0,0-6.94,1.59,16.45,16.45,0,0,0-5.8,4.81,24.43,24.43,0,0,0-4,8.26,43.88,43.88,0,0,0-1.42,11.89m18.11,32a35.29,35.29,0,0,1-13.07-2.31,27.82,27.82,0,0,1-9.95-6.54,29.27,29.27,0,0,1-6.33-10.1,36,36,0,0,1-2.25-13,33.76,33.76,0,0,1,2.38-12.68,31.29,31.29,0,0,1,6.61-10.3,31.67,31.67,0,0,1,10-6.94,30.6,30.6,0,0,1,12.6-2.58,32,32,0,0,1,12.59,2.45,30.32,30.32,0,0,1,10,6.73,30.78,30.78,0,0,1,6.61,10.24,35,35,0,0,1,2.38,13.08,34.49,34.49,0,0,1-2.24,12.55,31,31,0,0,1-6.34,10.17,28.41,28.41,0,0,1-9.94,6.81,33.83,33.83,0,0,1-13.08,2.44" transform="translate(-19.5 -26.6)"/><path class="cls-2" d="M1087,401.26a5.42,5.42,0,0,1-.75.6,1.76,1.76,0,0,1-1,.32,3.47,3.47,0,0,1-2.86-1.72,47.31,47.31,0,0,1,11.78-10.63,26.12,26.12,0,0,1,14.1-4q9.4,0,14.09,4.7t4.71,12.22a21.41,21.41,0,0,1-1.57,7.93,30.71,30.71,0,0,1-5.24,8.31,82.86,82.86,0,0,1-9.81,9.52q-6.14,5.14-15.26,11.62h23a8.59,8.59,0,0,0,4.56-1.12q1.83-1.12,3.33-4.57a2.29,2.29,0,0,1,2.18-1.45,8.08,8.08,0,0,1,1.5.26,2.62,2.62,0,0,0,.82.14q-1.23,3.43-2.25,7.14c-.68,2.46-1.29,4.84-1.83,7.12a2.27,2.27,0,0,1-.69,1.33,2.59,2.59,0,0,1-1.36.26c-1.64,0-3.68-.08-6.13-.26s-5.13-.27-8-.27h-27.92v-3.17q8.46-6.86,14.37-12.34a90.15,90.15,0,0,0,9.6-10.18,38.66,38.66,0,0,0,5.38-8.78,21,21,0,0,0,1.71-8.06,14.38,14.38,0,0,0-2.38-8.26c-1.6-2.33-4.34-3.49-8.25-3.49a19.07,19.07,0,0,0-7.63,1.58,35.25,35.25,0,0,0-8.17,5.28" transform="translate(-19.5 -26.6)"/><path class="cls-1" d="M809.57,26.6H510.51a4.06,4.06,0,0,0-.77.06c-38.39,7-62.67,35.65-62.67,69.67,0,36.08,17.88,63.73,60.32,73.85H809.57c45.33,0,77.19-32.2,77.19-71.78S854.9,26.6,809.57,26.6" transform="translate(-19.5 -26.6)"/><path class="cls-3" d="M520.44,38.88V39c-33.62,1.51-60.39,27.49-60.39,59.41s26.77,57.9,60.39,59.41V158H668.73V38.88Z" transform="translate(-19.5 -26.6)"/><path class="cls-4" d="M809.15,38.88H668.74V158H809.15c35,0,63.45-26.66,63.45-59.55s-28.41-59.55-63.45-59.55" transform="translate(-19.5 -26.6)"/></svg>