<?xml version="1.0" encoding="UTF-8"?>
<svg width="30.955mm" height="27.682mm" version="1.1" viewBox="0 0 30.955 27.682" xmlns="http://www.w3.org/2000/svg" xmlns:cc="http://creativecommons.org/ns#" xmlns:dc="http://purl.org/dc/elements/1.1/" xmlns:rdf="http://www.w3.org/1999/02/22-rdf-syntax-ns#">
 <metadata>
  <rdf:RDF>
   <cc:Work rdf:about="">
    <dc:format>image/svg+xml</dc:format>
    <dc:type rdf:resource="http://purl.org/dc/dcmitype/StillImage"/>
    <dc:title/>
   </cc:Work>
  </rdf:RDF>
 </metadata>
 <g transform="translate(-147.82 -221.46)">
  <g transform="matrix(.35278 0 0 -.35278 148.98 239.73)">
   <path d="m0 0c3e-3 -0.937-0.688-1.639-1.624-1.652-0.931-0.014-1.651 0.683-1.666 1.612-0.016 0.974 0.682 1.679 1.656 1.676 0.945-2e-3 1.632-0.691 1.634-1.636" fill="#d4d4d4"/>
  </g>
  <g transform="matrix(.35278 0 0 -.35278 148.98 241.56)">
   <path d="m0 0c3e-3 -0.936-0.688-1.638-1.624-1.651-0.931-0.015-1.651 0.683-1.666 1.611-0.016 0.974 0.682 1.68 1.656 1.677 0.945-3e-3 1.632-0.692 1.634-1.637" fill="#d4d4d4"/>
  </g>
  <g transform="matrix(.35278 0 0 -.35278 148.98 243.39)">
   <path d="m0 0c3e-3 -0.936-0.688-1.638-1.624-1.652-0.931-0.014-1.651 0.683-1.666 1.612-0.016 0.974 0.682 1.68 1.656 1.677 0.945-3e-3 1.632-0.692 1.634-1.637" fill="#d4d4d4"/>
  </g>
  <g transform="matrix(.35278 0 0 -.35278 150.65 239.73)">
   <path d="m0 0c3e-3 -0.937-0.687-1.639-1.624-1.652-0.931-0.014-1.651 0.683-1.666 1.612-0.015 0.974 0.683 1.679 1.656 1.676 0.945-2e-3 1.632-0.691 1.634-1.636" fill="#d4d4d4"/>
  </g>
  <g transform="matrix(.35278 0 0 -.35278 150.65 241.56)">
   <path d="m0 0c3e-3 -0.936-0.687-1.638-1.624-1.651-0.931-0.015-1.651 0.683-1.666 1.611-0.015 0.974 0.683 1.68 1.656 1.677 0.945-3e-3 1.632-0.692 1.634-1.637" fill="#d4d4d4"/>
  </g>
  <g transform="matrix(.35278 0 0 -.35278 150.65 243.39)">
   <path d="m0 0c3e-3 -0.936-0.687-1.638-1.624-1.652-0.931-0.014-1.651 0.683-1.666 1.612-0.015 0.974 0.683 1.68 1.656 1.677 0.945-3e-3 1.632-0.692 1.634-1.637" fill="#d4d4d4"/>
  </g>
  <g transform="matrix(.35278 0 0 -.35278 152.32 239.73)">
   <path d="m0 0c2e-3 -0.937-0.688-1.639-1.625-1.652-0.931-0.014-1.651 0.683-1.666 1.612-0.015 0.974 0.683 1.679 1.656 1.676 0.945-2e-3 1.632-0.691 1.635-1.636" fill="#d4d4d4"/>
  </g>
  <g transform="matrix(.35278 0 0 -.35278 152.32 241.56)">
   <path d="m0 0c2e-3 -0.936-0.688-1.638-1.625-1.651-0.931-0.015-1.651 0.683-1.666 1.611-0.015 0.974 0.683 1.68 1.656 1.677 0.945-3e-3 1.632-0.692 1.635-1.637" fill="#d4d4d4"/>
  </g>
  <g transform="matrix(.35278 0 0 -.35278 152.32 243.39)">
   <path d="m0 0c2e-3 -0.936-0.688-1.638-1.625-1.652-0.931-0.014-1.651 0.683-1.666 1.612-0.015 0.974 0.683 1.68 1.656 1.677 0.945-3e-3 1.632-0.692 1.635-1.637" fill="#d4d4d4"/>
  </g>
  <g transform="matrix(.35278 0 0 -.35278 148.98 236.2)">
   <path d="m0 0c3e-3 -0.936-0.688-1.638-1.624-1.651-0.931-0.015-1.651 0.683-1.666 1.612-0.016 0.973 0.682 1.679 1.656 1.676 0.945-3e-3 1.632-0.692 1.634-1.637" fill="#d4d4d4"/>
  </g>
  <g transform="matrix(.35278 0 0 -.35278 148.98 238.03)">
   <path d="m0 0c3e-3 -0.936-0.688-1.638-1.624-1.652-0.931-0.014-1.651 0.683-1.666 1.612-0.016 0.974 0.682 1.68 1.656 1.677 0.945-3e-3 1.632-0.692 1.634-1.637" fill="#d4d4d4"/>
  </g>
  <g transform="matrix(.35278 0 0 -.35278 150.65 236.2)">
   <path d="m0 0c3e-3 -0.936-0.687-1.638-1.624-1.651-0.931-0.015-1.651 0.683-1.666 1.612-0.015 0.973 0.683 1.679 1.656 1.676 0.945-3e-3 1.632-0.692 1.634-1.637" fill="#d4d4d4"/>
  </g>
  <g transform="matrix(.35278 0 0 -.35278 150.65 238.03)">
   <path d="m0 0c3e-3 -0.936-0.687-1.638-1.624-1.652-0.931-0.014-1.651 0.683-1.666 1.612-0.015 0.974 0.683 1.68 1.656 1.677 0.945-3e-3 1.632-0.692 1.634-1.637" fill="#d4d4d4"/>
  </g>
  <g transform="matrix(.35278 0 0 -.35278 152.32 236.2)">
   <path d="m0 0c2e-3 -0.936-0.688-1.638-1.625-1.651-0.931-0.015-1.651 0.683-1.666 1.612-0.015 0.973 0.683 1.679 1.656 1.676 0.945-3e-3 1.632-0.692 1.635-1.637" fill="#d4d4d4"/>
  </g>
  <g transform="matrix(.35278 0 0 -.35278 152.32 238.03)">
   <path d="m0 0c2e-3 -0.936-0.688-1.638-1.625-1.652-0.931-0.014-1.651 0.683-1.666 1.612-0.015 0.974 0.683 1.68 1.656 1.677 0.945-3e-3 1.632-0.692 1.635-1.637" fill="#d4d4d4"/>
  </g>
  <g transform="matrix(.35278 0 0 -.35278 153.99 239.73)">
   <path d="m0 0c2e-3 -0.937-0.688-1.639-1.625-1.652-0.93-0.014-1.65 0.683-1.665 1.612-0.016 0.974 0.682 1.679 1.656 1.676 0.945-2e-3 1.632-0.691 1.634-1.636" fill="#d4d4d4"/>
  </g>
  <g transform="matrix(.35278 0 0 -.35278 153.99 241.56)">
   <path d="m0 0c2e-3 -0.936-0.688-1.638-1.625-1.651-0.93-0.015-1.65 0.683-1.665 1.611-0.016 0.974 0.682 1.68 1.656 1.677 0.945-3e-3 1.632-0.692 1.634-1.637" fill="#d4d4d4"/>
  </g>
  <g transform="matrix(.35278 0 0 -.35278 153.99 243.39)">
   <path d="m0 0c2e-3 -0.936-0.688-1.638-1.625-1.652-0.93-0.014-1.65 0.683-1.665 1.612-0.016 0.974 0.682 1.68 1.656 1.677 0.945-3e-3 1.632-0.692 1.634-1.637" fill="#d4d4d4"/>
  </g>
  <g transform="matrix(.35278 0 0 -.35278 155.66 239.73)">
   <path d="m0 0c3e-3 -0.937-0.688-1.639-1.625-1.652-0.93-0.014-1.65 0.683-1.665 1.612-0.016 0.974 0.682 1.679 1.656 1.676 0.945-2e-3 1.632-0.691 1.634-1.636" fill="#d4d4d4"/>
  </g>
  <g transform="matrix(.35278 0 0 -.35278 155.66 241.56)">
   <path d="m0 0c3e-3 -0.936-0.688-1.638-1.625-1.651-0.93-0.015-1.65 0.683-1.665 1.611-0.016 0.974 0.682 1.68 1.656 1.677 0.945-3e-3 1.632-0.692 1.634-1.637" fill="#d4d4d4"/>
  </g>
  <g transform="matrix(.35278 0 0 -.35278 155.66 243.39)">
   <path d="m0 0c3e-3 -0.936-0.688-1.638-1.625-1.652-0.93-0.014-1.65 0.683-1.665 1.612-0.016 0.974 0.682 1.68 1.656 1.677 0.945-3e-3 1.632-0.692 1.634-1.637" fill="#d4d4d4"/>
  </g>
  <g transform="matrix(.35278 0 0 -.35278 157.33 239.73)">
   <path d="m0 0c3e-3 -0.937-0.687-1.639-1.624-1.652-0.931-0.014-1.651 0.683-1.666 1.612-0.015 0.974 0.683 1.679 1.656 1.676 0.945-2e-3 1.632-0.691 1.634-1.636" fill="#d4d4d4"/>
  </g>
  <g transform="matrix(.35278 0 0 -.35278 157.33 241.56)">
   <path d="m0 0c3e-3 -0.936-0.687-1.638-1.624-1.651-0.931-0.015-1.651 0.683-1.666 1.611-0.015 0.974 0.683 1.68 1.656 1.677 0.945-3e-3 1.632-0.692 1.634-1.637" fill="#d4d4d4"/>
  </g>
  <g transform="matrix(.35278 0 0 -.35278 157.33 243.39)">
   <path d="m0 0c3e-3 -0.936-0.687-1.638-1.624-1.652-0.931-0.014-1.651 0.683-1.666 1.612-0.015 0.974 0.683 1.68 1.656 1.677 0.945-3e-3 1.632-0.692 1.634-1.637" fill="#d4d4d4"/>
  </g>
  <g transform="matrix(.35278 0 0 -.35278 153.99 236.2)">
   <path d="m0 0c2e-3 -0.936-0.688-1.638-1.625-1.651-0.93-0.015-1.65 0.683-1.665 1.612-0.016 0.973 0.682 1.679 1.656 1.676 0.945-3e-3 1.632-0.692 1.634-1.637" fill="#d4d4d4"/>
  </g>
  <g transform="matrix(.35278 0 0 -.35278 153.99 238.03)">
   <path d="m0 0c2e-3 -0.936-0.688-1.638-1.625-1.652-0.93-0.014-1.65 0.683-1.665 1.612-0.016 0.974 0.682 1.68 1.656 1.677 0.945-3e-3 1.632-0.692 1.634-1.637" fill="#d4d4d4"/>
  </g>
  <g transform="matrix(.35278 0 0 -.35278 155.66 236.2)">
   <path d="m0 0c3e-3 -0.936-0.688-1.638-1.625-1.651-0.93-0.015-1.65 0.683-1.665 1.612-0.016 0.973 0.682 1.679 1.656 1.676 0.945-3e-3 1.632-0.692 1.634-1.637" fill="#d4d4d4"/>
  </g>
  <g transform="matrix(.35278 0 0 -.35278 155.66 238.03)">
   <path d="m0 0c3e-3 -0.936-0.688-1.638-1.625-1.652-0.93-0.014-1.65 0.683-1.665 1.612-0.016 0.974 0.682 1.68 1.656 1.677 0.945-3e-3 1.632-0.692 1.634-1.637" fill="#d4d4d4"/>
  </g>
  <g transform="matrix(.35278 0 0 -.35278 157.33 236.2)">
   <path d="m0 0c3e-3 -0.936-0.687-1.638-1.624-1.651-0.931-0.015-1.651 0.683-1.666 1.612-0.015 0.973 0.683 1.679 1.656 1.676 0.945-3e-3 1.632-0.692 1.634-1.637" fill="#d4d4d4"/>
  </g>
  <g transform="matrix(.35278 0 0 -.35278 157.33 238.03)">
   <path d="m0 0c3e-3 -0.936-0.687-1.638-1.624-1.652-0.931-0.014-1.651 0.683-1.666 1.612-0.015 0.974 0.683 1.68 1.656 1.677 0.945-3e-3 1.632-0.692 1.634-1.637" fill="#d4d4d4"/>
  </g>
  <g transform="matrix(.35278 0 0 -.35278 148.98 248.56)">
   <path d="m0 0c3e-3 -0.936-0.688-1.638-1.624-1.652-0.931-0.014-1.651 0.683-1.666 1.612-0.016 0.974 0.682 1.68 1.656 1.677 0.945-3e-3 1.632-0.692 1.634-1.637" fill="#d4d4d4"/>
  </g>
  <g transform="matrix(.35278 0 0 -.35278 150.65 248.56)">
   <path d="m0 0c3e-3 -0.936-0.687-1.638-1.624-1.652-0.931-0.014-1.651 0.683-1.666 1.612-0.015 0.974 0.683 1.68 1.656 1.677 0.945-3e-3 1.632-0.692 1.634-1.637" fill="#d4d4d4"/>
  </g>
  <g transform="matrix(.35278 0 0 -.35278 152.32 248.56)">
   <path d="m0 0c2e-3 -0.936-0.688-1.638-1.625-1.652-0.931-0.014-1.651 0.683-1.666 1.612-0.015 0.974 0.683 1.68 1.656 1.677 0.945-3e-3 1.632-0.692 1.635-1.637" fill="#d4d4d4"/>
  </g>
  <g transform="matrix(.35278 0 0 -.35278 148.98 245.03)">
   <path d="m0 0c3e-3 -0.937-0.688-1.639-1.624-1.652-0.931-0.014-1.651 0.683-1.666 1.612-0.016 0.974 0.682 1.679 1.656 1.676 0.945-3e-3 1.632-0.691 1.634-1.636" fill="#d4d4d4"/>
  </g>
  <g transform="matrix(.35278 0 0 -.35278 148.98 246.86)">
   <path d="m0 0c3e-3 -0.936-0.688-1.638-1.624-1.652-0.931-0.014-1.651 0.684-1.666 1.612-0.016 0.974 0.682 1.68 1.656 1.677 0.945-3e-3 1.632-0.692 1.634-1.637" fill="#d4d4d4"/>
  </g>
  <g transform="matrix(.35278 0 0 -.35278 150.65 245.03)">
   <path d="m0 0c3e-3 -0.937-0.687-1.639-1.624-1.652-0.931-0.014-1.651 0.683-1.666 1.612-0.015 0.974 0.683 1.679 1.656 1.676 0.945-3e-3 1.632-0.691 1.634-1.636" fill="#d4d4d4"/>
  </g>
  <g transform="matrix(.35278 0 0 -.35278 150.65 246.86)">
   <path d="m0 0c3e-3 -0.936-0.687-1.638-1.624-1.652-0.931-0.014-1.651 0.684-1.666 1.612-0.015 0.974 0.683 1.68 1.656 1.677 0.945-3e-3 1.632-0.692 1.634-1.637" fill="#d4d4d4"/>
  </g>
  <g transform="matrix(.35278 0 0 -.35278 152.32 245.03)">
   <path d="m0 0c2e-3 -0.937-0.688-1.639-1.625-1.652-0.931-0.014-1.651 0.683-1.666 1.612-0.015 0.974 0.683 1.679 1.656 1.676 0.945-3e-3 1.632-0.691 1.635-1.636" fill="#d4d4d4"/>
  </g>
  <g transform="matrix(.35278 0 0 -.35278 152.32 246.86)">
   <path d="m0 0c2e-3 -0.936-0.688-1.638-1.625-1.652-0.931-0.014-1.651 0.684-1.666 1.612-0.015 0.974 0.683 1.68 1.656 1.677 0.945-3e-3 1.632-0.692 1.635-1.637" fill="#d4d4d4"/>
  </g>
  <g transform="matrix(.35278 0 0 -.35278 153.99 248.56)">
   <path d="m0 0c2e-3 -0.936-0.688-1.638-1.625-1.652-0.93-0.014-1.65 0.683-1.665 1.612-0.016 0.974 0.682 1.68 1.656 1.677 0.945-3e-3 1.632-0.692 1.634-1.637" fill="#d4d4d4"/>
  </g>
  <g transform="matrix(.35278 0 0 -.35278 155.66 248.56)">
   <path d="m0 0c3e-3 -0.936-0.688-1.638-1.625-1.652-0.93-0.014-1.65 0.683-1.665 1.612-0.016 0.974 0.682 1.68 1.656 1.677 0.945-3e-3 1.632-0.692 1.634-1.637" fill="#d4d4d4"/>
  </g>
  <g transform="matrix(.35278 0 0 -.35278 157.33 248.56)">
   <path d="m0 0c3e-3 -0.936-0.687-1.638-1.624-1.652-0.931-0.014-1.651 0.683-1.666 1.612-0.015 0.974 0.683 1.68 1.656 1.677 0.945-3e-3 1.632-0.692 1.634-1.637" fill="#d4d4d4"/>
  </g>
  <g transform="matrix(.35278 0 0 -.35278 153.99 245.03)">
   <path d="m0 0c2e-3 -0.937-0.688-1.639-1.625-1.652-0.93-0.014-1.65 0.683-1.665 1.612-0.016 0.974 0.682 1.679 1.656 1.676 0.945-3e-3 1.632-0.691 1.634-1.636" fill="#d4d4d4"/>
  </g>
  <g transform="matrix(.35278 0 0 -.35278 153.99 246.86)">
   <path d="m0 0c2e-3 -0.936-0.688-1.638-1.625-1.652-0.93-0.014-1.65 0.684-1.665 1.612-0.016 0.974 0.682 1.68 1.656 1.677 0.945-3e-3 1.632-0.692 1.634-1.637" fill="#d4d4d4"/>
  </g>
  <g transform="matrix(.35278 0 0 -.35278 155.66 245.03)">
   <path d="m0 0c3e-3 -0.937-0.688-1.639-1.625-1.652-0.93-0.014-1.65 0.683-1.665 1.612-0.016 0.974 0.682 1.679 1.656 1.676 0.945-3e-3 1.632-0.691 1.634-1.636" fill="#d4d4d4"/>
  </g>
  <g transform="matrix(.35278 0 0 -.35278 155.66 246.86)">
   <path d="m0 0c3e-3 -0.936-0.688-1.638-1.625-1.652-0.93-0.014-1.65 0.684-1.665 1.612-0.016 0.974 0.682 1.68 1.656 1.677 0.945-3e-3 1.632-0.692 1.634-1.637" fill="#d4d4d4"/>
  </g>
  <g transform="matrix(.35278 0 0 -.35278 157.33 245.03)">
   <path d="m0 0c3e-3 -0.937-0.687-1.639-1.624-1.652-0.931-0.014-1.651 0.683-1.666 1.612-0.015 0.974 0.683 1.679 1.656 1.676 0.945-3e-3 1.632-0.691 1.634-1.636" fill="#d4d4d4"/>
  </g>
  <g transform="matrix(.35278 0 0 -.35278 157.33 246.86)">
   <path d="m0 0c3e-3 -0.936-0.687-1.638-1.624-1.652-0.931-0.014-1.651 0.684-1.666 1.612-0.015 0.974 0.683 1.68 1.656 1.677 0.945-3e-3 1.632-0.692 1.634-1.637" fill="#d4d4d4"/>
  </g>
  <g transform="matrix(.35278 0 0 -.35278 158.75 239.73)">
   <path d="m0 0c2e-3 -0.937-0.688-1.639-1.625-1.652-0.931-0.014-1.651 0.683-1.666 1.612-0.015 0.974 0.683 1.679 1.657 1.676 0.945-2e-3 1.631-0.691 1.634-1.636" fill="#d4d4d4"/>
  </g>
  <g transform="matrix(.35278 0 0 -.35278 158.75 241.56)">
   <path d="m0 0c2e-3 -0.936-0.688-1.638-1.625-1.651-0.931-0.015-1.651 0.683-1.666 1.611-0.015 0.974 0.683 1.68 1.657 1.677 0.945-3e-3 1.631-0.692 1.634-1.637" fill="#d4d4d4"/>
  </g>
  <g transform="matrix(.35278 0 0 -.35278 158.75 243.39)">
   <path d="m0 0c2e-3 -0.936-0.688-1.638-1.625-1.652-0.931-0.014-1.651 0.683-1.666 1.612-0.015 0.974 0.683 1.68 1.657 1.677 0.945-3e-3 1.631-0.692 1.634-1.637" fill="#d4d4d4"/>
  </g>
  <g transform="matrix(.35278 0 0 -.35278 158.75 236.2)">
   <path d="m0 0c2e-3 -0.936-0.688-1.638-1.625-1.651-0.931-0.015-1.651 0.683-1.666 1.612-0.015 0.973 0.683 1.679 1.657 1.676 0.945-3e-3 1.631-0.692 1.634-1.637" fill="#d4d4d4"/>
  </g>
  <g transform="matrix(.35278 0 0 -.35278 158.75 238.03)">
   <path d="m0 0c2e-3 -0.936-0.688-1.638-1.625-1.652-0.931-0.014-1.651 0.683-1.666 1.612-0.015 0.974 0.683 1.68 1.657 1.677 0.945-3e-3 1.631-0.692 1.634-1.637" fill="#d4d4d4"/>
  </g>
  <g transform="matrix(.35278 0 0 -.35278 158.75 248.56)">
   <path d="m0 0c2e-3 -0.936-0.688-1.638-1.625-1.652-0.931-0.014-1.651 0.683-1.666 1.612-0.015 0.974 0.683 1.68 1.657 1.677 0.945-3e-3 1.631-0.692 1.634-1.637" fill="#d4d4d4"/>
  </g>
  <g transform="matrix(.35278 0 0 -.35278 158.75 245.03)">
   <path d="m0 0c2e-3 -0.937-0.688-1.639-1.625-1.652-0.931-0.014-1.651 0.683-1.666 1.612-0.015 0.974 0.683 1.679 1.657 1.676 0.945-3e-3 1.631-0.691 1.634-1.636" fill="#d4d4d4"/>
  </g>
  <g transform="matrix(.35278 0 0 -.35278 158.75 246.86)">
   <path d="m0 0c2e-3 -0.936-0.688-1.638-1.625-1.652-0.931-0.014-1.651 0.684-1.666 1.612-0.015 0.974 0.683 1.68 1.657 1.677 0.945-3e-3 1.631-0.692 1.634-1.637" fill="#d4d4d4"/>
  </g>
  <g transform="matrix(.35278 0 0 -.35278 160.18 239.73)">
   <path d="m0 0c2e-3 -0.937-0.688-1.639-1.625-1.652-0.93-0.014-1.65 0.683-1.665 1.612-0.016 0.974 0.682 1.679 1.656 1.676 0.945-2e-3 1.632-0.691 1.634-1.636" fill="#d4d4d4"/>
  </g>
  <g transform="matrix(.35278 0 0 -.35278 160.18 241.56)">
   <path d="m0 0c2e-3 -0.936-0.688-1.638-1.625-1.651-0.93-0.015-1.65 0.683-1.665 1.611-0.016 0.974 0.682 1.68 1.656 1.677 0.945-3e-3 1.632-0.692 1.634-1.637" fill="#d4d4d4"/>
  </g>
  <g transform="matrix(.35278 0 0 -.35278 160.18 243.39)">
   <path d="m0 0c2e-3 -0.936-0.688-1.638-1.625-1.652-0.93-0.014-1.65 0.683-1.665 1.612-0.016 0.974 0.682 1.68 1.656 1.677 0.945-3e-3 1.632-0.692 1.634-1.637" fill="#d4d4d4"/>
  </g>
  <g transform="matrix(.35278 0 0 -.35278 160.18 236.2)">
   <path d="m0 0c2e-3 -0.936-0.688-1.638-1.625-1.651-0.93-0.015-1.65 0.683-1.665 1.612-0.016 0.973 0.682 1.679 1.656 1.676 0.945-3e-3 1.632-0.692 1.634-1.637" fill="#d4d4d4"/>
  </g>
  <g transform="matrix(.35278 0 0 -.35278 160.18 238.03)">
   <path d="m0 0c2e-3 -0.936-0.688-1.638-1.625-1.652-0.93-0.014-1.65 0.683-1.665 1.612-0.016 0.974 0.682 1.68 1.656 1.677 0.945-3e-3 1.632-0.692 1.634-1.637" fill="#d4d4d4"/>
  </g>
  <g transform="matrix(.35278 0 0 -.35278 160.18 248.56)">
   <path d="m0 0c2e-3 -0.936-0.688-1.638-1.625-1.652-0.93-0.014-1.65 0.683-1.665 1.612-0.016 0.974 0.682 1.68 1.656 1.677 0.945-3e-3 1.632-0.692 1.634-1.637" fill="#d4d4d4"/>
  </g>
  <g transform="matrix(.35278 0 0 -.35278 160.18 245.03)">
   <path d="m0 0c2e-3 -0.937-0.688-1.639-1.625-1.652-0.93-0.014-1.65 0.683-1.665 1.612-0.016 0.974 0.682 1.679 1.656 1.676 0.945-3e-3 1.632-0.691 1.634-1.636" fill="#d4d4d4"/>
  </g>
  <g transform="matrix(.35278 0 0 -.35278 160.18 246.86)">
   <path d="m0 0c2e-3 -0.936-0.688-1.638-1.625-1.652-0.93-0.014-1.65 0.684-1.665 1.612-0.016 0.974 0.682 1.68 1.656 1.677 0.945-3e-3 1.632-0.692 1.634-1.637" fill="#d4d4d4"/>
  </g>
  <g transform="matrix(.35278 0 0 -.35278 161.6 239.73)">
   <path d="m0 0c2e-3 -0.937-0.688-1.639-1.625-1.652-0.931-0.014-1.651 0.683-1.666 1.612-0.015 0.974 0.683 1.679 1.656 1.676 0.945-2e-3 1.632-0.691 1.635-1.636" fill="#d4d4d4"/>
  </g>
  <g transform="matrix(.35278 0 0 -.35278 161.6 241.56)">
   <path d="m0 0c2e-3 -0.936-0.688-1.638-1.625-1.651-0.931-0.015-1.651 0.683-1.666 1.611-0.015 0.974 0.683 1.68 1.656 1.677 0.945-3e-3 1.632-0.692 1.635-1.637" fill="#d4d4d4"/>
  </g>
  <g transform="matrix(.35278 0 0 -.35278 161.6 243.39)">
   <path d="m0 0c2e-3 -0.936-0.688-1.638-1.625-1.652-0.931-0.014-1.651 0.683-1.666 1.612-0.015 0.974 0.683 1.68 1.656 1.677 0.945-3e-3 1.632-0.692 1.635-1.637" fill="#d4d4d4"/>
  </g>
  <g transform="matrix(.35278 0 0 -.35278 161.6 236.2)">
   <path d="m0 0c2e-3 -0.936-0.688-1.638-1.625-1.651-0.931-0.015-1.651 0.683-1.666 1.612-0.015 0.973 0.683 1.679 1.656 1.676 0.945-3e-3 1.632-0.692 1.635-1.637" fill="#d4d4d4"/>
  </g>
  <g transform="matrix(.35278 0 0 -.35278 161.6 238.03)">
   <path d="m0 0c2e-3 -0.936-0.688-1.638-1.625-1.652-0.931-0.014-1.651 0.683-1.666 1.612-0.015 0.974 0.683 1.68 1.656 1.677 0.945-3e-3 1.632-0.692 1.635-1.637" fill="#d4d4d4"/>
  </g>
  <g transform="matrix(.35278 0 0 -.35278 161.6 248.56)">
   <path d="m0 0c2e-3 -0.936-0.688-1.638-1.625-1.652-0.931-0.014-1.651 0.683-1.666 1.612-0.015 0.974 0.683 1.68 1.656 1.677 0.945-3e-3 1.632-0.692 1.635-1.637" fill="#d4d4d4"/>
  </g>
  <g transform="matrix(.35278 0 0 -.35278 161.6 245.03)">
   <path d="m0 0c2e-3 -0.937-0.688-1.639-1.625-1.652-0.931-0.014-1.651 0.683-1.666 1.612-0.015 0.974 0.683 1.679 1.656 1.676 0.945-3e-3 1.632-0.691 1.635-1.636" fill="#d4d4d4"/>
  </g>
  <g transform="matrix(.35278 0 0 -.35278 161.6 246.86)">
   <path d="m0 0c2e-3 -0.936-0.688-1.638-1.625-1.652-0.931-0.014-1.651 0.684-1.666 1.612-0.015 0.974 0.683 1.68 1.656 1.677 0.945-3e-3 1.632-0.692 1.635-1.637" fill="#d4d4d4"/>
  </g>
  <g transform="matrix(.35278 0 0 -.35278 163.03 239.73)">
   <path d="m0 0c2e-3 -0.937-0.688-1.639-1.625-1.652-0.93-0.014-1.651 0.683-1.665 1.612-0.016 0.974 0.682 1.679 1.656 1.676 0.945-2e-3 1.632-0.691 1.634-1.636" fill="#d4d4d4"/>
  </g>
  <g transform="matrix(.35278 0 0 -.35278 163.03 241.56)">
   <path d="m0 0c2e-3 -0.936-0.688-1.638-1.625-1.651-0.93-0.015-1.651 0.683-1.665 1.611-0.016 0.974 0.682 1.68 1.656 1.677 0.945-3e-3 1.632-0.692 1.634-1.637" fill="#d4d4d4"/>
  </g>
  <g transform="matrix(.35278 0 0 -.35278 163.03 243.39)">
   <path d="m0 0c2e-3 -0.936-0.688-1.638-1.625-1.652-0.93-0.014-1.651 0.683-1.665 1.612-0.016 0.974 0.682 1.68 1.656 1.677 0.945-3e-3 1.632-0.692 1.634-1.637" fill="#d4d4d4"/>
  </g>
  <g transform="matrix(.35278 0 0 -.35278 163.03 236.2)">
   <path d="m0 0c2e-3 -0.936-0.688-1.638-1.625-1.651-0.93-0.015-1.651 0.683-1.665 1.612-0.016 0.973 0.682 1.679 1.656 1.676 0.945-3e-3 1.632-0.692 1.634-1.637" fill="#d4d4d4"/>
  </g>
  <g transform="matrix(.35278 0 0 -.35278 163.03 238.03)">
   <path d="m0 0c2e-3 -0.936-0.688-1.638-1.625-1.652-0.93-0.014-1.651 0.683-1.665 1.612-0.016 0.974 0.682 1.68 1.656 1.677 0.945-3e-3 1.632-0.692 1.634-1.637" fill="#d4d4d4"/>
  </g>
  <g transform="matrix(.35278 0 0 -.35278 163.03 248.56)">
   <path d="m0 0c2e-3 -0.936-0.688-1.638-1.625-1.652-0.93-0.014-1.651 0.683-1.665 1.612-0.016 0.974 0.682 1.68 1.656 1.677 0.945-3e-3 1.632-0.692 1.634-1.637" fill="#d4d4d4"/>
  </g>
  <g transform="matrix(.35278 0 0 -.35278 163.03 245.03)">
   <path d="m0 0c2e-3 -0.937-0.688-1.639-1.625-1.652-0.93-0.014-1.651 0.683-1.665 1.612-0.016 0.974 0.682 1.679 1.656 1.676 0.945-3e-3 1.632-0.691 1.634-1.636" fill="#d4d4d4"/>
  </g>
  <g transform="matrix(.35278 0 0 -.35278 163.03 246.86)">
   <path d="m0 0c2e-3 -0.936-0.688-1.638-1.625-1.652-0.93-0.014-1.651 0.684-1.665 1.612-0.016 0.974 0.682 1.68 1.656 1.677 0.945-3e-3 1.632-0.692 1.634-1.637" fill="#d4d4d4"/>
  </g>
  <g transform="matrix(.35278 0 0 -.35278 148.98 225.57)">
   <path d="m0 0c3e-3 -0.936-0.688-1.638-1.624-1.652-0.931-0.014-1.651 0.684-1.666 1.612-0.016 0.974 0.682 1.68 1.656 1.677 0.945-3e-3 1.632-0.692 1.634-1.637" fill="#d4d4d4"/>
  </g>
  <g transform="matrix(.35278 0 0 -.35278 148.98 227.4)">
   <path d="m0 0c3e-3 -0.937-0.688-1.639-1.624-1.652-0.931-0.014-1.651 0.683-1.666 1.612-0.016 0.974 0.682 1.679 1.656 1.676 0.945-3e-3 1.632-0.691 1.634-1.636" fill="#d4d4d4"/>
  </g>
  <g transform="matrix(.35278 0 0 -.35278 148.98 229.23)">
   <path d="m0 0c3e-3 -0.936-0.688-1.638-1.624-1.651-0.931-0.015-1.651 0.683-1.666 1.611-0.016 0.974 0.682 1.68 1.656 1.677 0.945-3e-3 1.632-0.692 1.634-1.637" fill="#d4d4d4"/>
  </g>
  <g transform="matrix(.35278 0 0 -.35278 150.65 225.57)">
   <path d="m0 0c3e-3 -0.936-0.687-1.638-1.624-1.652-0.931-0.014-1.651 0.684-1.666 1.612-0.015 0.974 0.683 1.68 1.656 1.677 0.945-3e-3 1.632-0.692 1.634-1.637" fill="#d4d4d4"/>
  </g>
  <g transform="matrix(.35278 0 0 -.35278 150.65 227.4)">
   <path d="m0 0c3e-3 -0.937-0.687-1.639-1.624-1.652-0.931-0.014-1.651 0.683-1.666 1.612-0.015 0.974 0.683 1.679 1.656 1.676 0.945-3e-3 1.632-0.691 1.634-1.636" fill="#d4d4d4"/>
  </g>
  <g transform="matrix(.35278 0 0 -.35278 150.65 229.23)">
   <path d="m0 0c3e-3 -0.936-0.687-1.638-1.624-1.651-0.931-0.015-1.651 0.683-1.666 1.611-0.015 0.974 0.683 1.68 1.656 1.677 0.945-3e-3 1.632-0.692 1.634-1.637" fill="#d4d4d4"/>
  </g>
  <g transform="matrix(.35278 0 0 -.35278 152.32 225.57)">
   <path d="m0 0c2e-3 -0.936-0.688-1.638-1.625-1.652-0.931-0.014-1.651 0.684-1.666 1.612-0.015 0.974 0.683 1.68 1.656 1.677 0.945-3e-3 1.632-0.692 1.635-1.637" fill="#d4d4d4"/>
  </g>
  <g transform="matrix(.35278 0 0 -.35278 152.32 227.4)">
   <path d="m0 0c2e-3 -0.937-0.688-1.639-1.625-1.652-0.931-0.014-1.651 0.683-1.666 1.612-0.015 0.974 0.683 1.679 1.656 1.676 0.945-3e-3 1.632-0.691 1.635-1.636" fill="#d4d4d4"/>
  </g>
  <g transform="matrix(.35278 0 0 -.35278 152.32 229.23)">
   <path d="m0 0c2e-3 -0.936-0.688-1.638-1.625-1.651-0.931-0.015-1.651 0.683-1.666 1.611-0.015 0.974 0.683 1.68 1.656 1.677 0.945-3e-3 1.632-0.692 1.635-1.637" fill="#d4d4d4"/>
  </g>
  <g transform="matrix(.35278 0 0 -.35278 148.98 222.04)">
   <path d="m0 0c3e-3 -0.937-0.688-1.639-1.624-1.652-0.931-0.014-1.651 0.683-1.666 1.612-0.016 0.974 0.682 1.679 1.656 1.676 0.945-2e-3 1.632-0.691 1.634-1.636" fill="#d4d4d4"/>
  </g>
  <g transform="matrix(.35278 0 0 -.35278 148.98 223.87)">
   <path d="m0 0c3e-3 -0.936-0.688-1.638-1.624-1.651-0.931-0.015-1.651 0.683-1.666 1.611-0.016 0.974 0.682 1.68 1.656 1.677 0.945-3e-3 1.632-0.692 1.634-1.637" fill="#d4d4d4"/>
  </g>
  <g transform="matrix(.35278 0 0 -.35278 150.65 222.04)">
   <path d="m0 0c3e-3 -0.937-0.687-1.639-1.624-1.652-0.931-0.014-1.651 0.683-1.666 1.612-0.015 0.974 0.683 1.679 1.656 1.676 0.945-2e-3 1.632-0.691 1.634-1.636" fill="#d4d4d4"/>
  </g>
  <g transform="matrix(.35278 0 0 -.35278 150.65 223.87)">
   <path d="m0 0c3e-3 -0.936-0.687-1.638-1.624-1.651-0.931-0.015-1.651 0.683-1.666 1.611-0.015 0.974 0.683 1.68 1.656 1.677 0.945-3e-3 1.632-0.692 1.634-1.637" fill="#d4d4d4"/>
  </g>
  <g transform="matrix(.35278 0 0 -.35278 152.32 222.04)">
   <path d="m0 0c2e-3 -0.937-0.688-1.639-1.625-1.652-0.931-0.014-1.651 0.683-1.666 1.612-0.015 0.974 0.683 1.679 1.656 1.676 0.945-2e-3 1.632-0.691 1.635-1.636" fill="#d4d4d4"/>
  </g>
  <g transform="matrix(.35278 0 0 -.35278 152.32 223.87)">
   <path d="m0 0c2e-3 -0.936-0.688-1.638-1.625-1.651-0.931-0.015-1.651 0.683-1.666 1.611-0.015 0.974 0.683 1.68 1.656 1.677 0.945-3e-3 1.632-0.692 1.635-1.637" fill="#d4d4d4"/>
  </g>
  <g transform="matrix(.35278 0 0 -.35278 153.99 225.57)">
   <path d="m0 0c2e-3 -0.936-0.688-1.638-1.625-1.652-0.93-0.014-1.65 0.684-1.665 1.612-0.016 0.974 0.682 1.68 1.656 1.677 0.945-3e-3 1.632-0.692 1.634-1.637" fill="#d4d4d4"/>
  </g>
  <g transform="matrix(.35278 0 0 -.35278 153.99 227.4)">
   <path d="m0 0c2e-3 -0.937-0.688-1.639-1.625-1.652-0.93-0.014-1.65 0.683-1.665 1.612-0.016 0.974 0.682 1.679 1.656 1.676 0.945-3e-3 1.632-0.691 1.634-1.636" fill="#d4d4d4"/>
  </g>
  <g transform="matrix(.35278 0 0 -.35278 153.99 229.23)">
   <path d="m0 0c2e-3 -0.936-0.688-1.638-1.625-1.651-0.93-0.015-1.65 0.683-1.665 1.611-0.016 0.974 0.682 1.68 1.656 1.677 0.945-3e-3 1.632-0.692 1.634-1.637" fill="#d4d4d4"/>
  </g>
  <g transform="matrix(.35278 0 0 -.35278 155.66 225.57)">
   <path d="m0 0c3e-3 -0.936-0.688-1.638-1.625-1.652-0.93-0.014-1.65 0.684-1.665 1.612-0.016 0.974 0.682 1.68 1.656 1.677 0.945-3e-3 1.632-0.692 1.634-1.637" fill="#d4d4d4"/>
  </g>
  <g transform="matrix(.35278 0 0 -.35278 155.66 227.4)">
   <path d="m0 0c3e-3 -0.937-0.688-1.639-1.625-1.652-0.93-0.014-1.65 0.683-1.665 1.612-0.016 0.974 0.682 1.679 1.656 1.676 0.945-3e-3 1.632-0.691 1.634-1.636" fill="#d4d4d4"/>
  </g>
  <g transform="matrix(.35278 0 0 -.35278 155.66 229.23)">
   <path d="m0 0c3e-3 -0.936-0.688-1.638-1.625-1.651-0.93-0.015-1.65 0.683-1.665 1.611-0.016 0.974 0.682 1.68 1.656 1.677 0.945-3e-3 1.632-0.692 1.634-1.637" fill="#d4d4d4"/>
  </g>
  <g transform="matrix(.35278 0 0 -.35278 157.33 225.57)">
   <path d="m0 0c3e-3 -0.936-0.687-1.638-1.624-1.652-0.931-0.014-1.651 0.684-1.666 1.612-0.015 0.974 0.683 1.68 1.656 1.677 0.945-3e-3 1.632-0.692 1.634-1.637" fill="#d4d4d4"/>
  </g>
  <g transform="matrix(.35278 0 0 -.35278 157.33 227.4)">
   <path d="m0 0c3e-3 -0.937-0.687-1.639-1.624-1.652-0.931-0.014-1.651 0.683-1.666 1.612-0.015 0.974 0.683 1.679 1.656 1.676 0.945-3e-3 1.632-0.691 1.634-1.636" fill="#d4d4d4"/>
  </g>
  <g transform="matrix(.35278 0 0 -.35278 157.33 229.23)">
   <path d="m0 0c3e-3 -0.936-0.687-1.638-1.624-1.651-0.931-0.015-1.651 0.683-1.666 1.611-0.015 0.974 0.683 1.68 1.656 1.677 0.945-3e-3 1.632-0.692 1.634-1.637" fill="#d4d4d4"/>
  </g>
  <g transform="matrix(.35278 0 0 -.35278 153.99 222.04)">
   <path d="m0 0c2e-3 -0.937-0.688-1.639-1.625-1.652-0.93-0.014-1.65 0.683-1.665 1.612-0.016 0.974 0.682 1.679 1.656 1.676 0.945-2e-3 1.632-0.691 1.634-1.636" fill="#d4d4d4"/>
  </g>
  <g transform="matrix(.35278 0 0 -.35278 153.99 223.87)">
   <path d="m0 0c2e-3 -0.936-0.688-1.638-1.625-1.651-0.93-0.015-1.65 0.683-1.665 1.611-0.016 0.974 0.682 1.68 1.656 1.677 0.945-3e-3 1.632-0.692 1.634-1.637" fill="#d4d4d4"/>
  </g>
  <g transform="matrix(.35278 0 0 -.35278 155.66 222.04)">
   <path d="m0 0c3e-3 -0.937-0.688-1.639-1.625-1.652-0.93-0.014-1.65 0.683-1.665 1.612-0.016 0.974 0.682 1.679 1.656 1.676 0.945-2e-3 1.632-0.691 1.634-1.636" fill="#d4d4d4"/>
  </g>
  <g transform="matrix(.35278 0 0 -.35278 155.66 223.87)">
   <path d="m0 0c3e-3 -0.936-0.688-1.638-1.625-1.651-0.93-0.015-1.65 0.683-1.665 1.611-0.016 0.974 0.682 1.68 1.656 1.677 0.945-3e-3 1.632-0.692 1.634-1.637" fill="#d4d4d4"/>
  </g>
  <g transform="matrix(.35278 0 0 -.35278 157.33 222.04)">
   <path d="m0 0c3e-3 -0.937-0.687-1.639-1.624-1.652-0.931-0.014-1.651 0.683-1.666 1.612-0.015 0.974 0.683 1.679 1.656 1.676 0.945-2e-3 1.632-0.691 1.634-1.636" fill="#d4d4d4"/>
  </g>
  <g transform="matrix(.35278 0 0 -.35278 157.33 223.87)">
   <path d="m0 0c3e-3 -0.936-0.687-1.638-1.624-1.651-0.931-0.015-1.651 0.683-1.666 1.611-0.015 0.974 0.683 1.68 1.656 1.677 0.945-3e-3 1.632-0.692 1.634-1.637" fill="#d4d4d4"/>
  </g>
  <g transform="matrix(.35278 0 0 -.35278 148.98 234.4)">
   <path d="m0 0c3e-3 -0.936-0.688-1.638-1.624-1.651-0.931-0.015-1.651 0.683-1.666 1.611-0.016 0.974 0.682 1.68 1.656 1.677 0.945-3e-3 1.632-0.692 1.634-1.637" fill="#d4d4d4"/>
  </g>
  <g transform="matrix(.35278 0 0 -.35278 150.65 234.4)">
   <path d="m0 0c3e-3 -0.936-0.687-1.638-1.624-1.651-0.931-0.015-1.651 0.683-1.666 1.611-0.015 0.974 0.683 1.68 1.656 1.677 0.945-3e-3 1.632-0.692 1.634-1.637" fill="#d4d4d4"/>
  </g>
  <g transform="matrix(.35278 0 0 -.35278 152.32 234.4)">
   <path d="m0 0c2e-3 -0.936-0.688-1.638-1.625-1.651-0.931-0.015-1.651 0.683-1.666 1.611-0.015 0.974 0.683 1.68 1.656 1.677 0.945-3e-3 1.632-0.692 1.635-1.637" fill="#d4d4d4"/>
  </g>
  <g transform="matrix(.35278 0 0 -.35278 148.98 230.87)">
   <path d="m0 0c3e-3 -0.936-0.688-1.638-1.624-1.652-0.931-0.014-1.651 0.683-1.666 1.612-0.016 0.974 0.682 1.68 1.656 1.677 0.945-3e-3 1.632-0.692 1.634-1.637" fill="#d4d4d4"/>
  </g>
  <g transform="matrix(.35278 0 0 -.35278 148.98 232.7)">
   <path d="m0 0c3e-3 -0.936-0.688-1.638-1.624-1.651-0.931-0.014-1.651 0.683-1.666 1.612-0.016 0.974 0.682 1.679 1.656 1.676 0.945-3e-3 1.632-0.692 1.634-1.637" fill="#d4d4d4"/>
  </g>
  <g transform="matrix(.35278 0 0 -.35278 150.65 230.87)">
   <path d="m0 0c3e-3 -0.936-0.687-1.638-1.624-1.652-0.931-0.014-1.651 0.683-1.666 1.612-0.015 0.974 0.683 1.68 1.656 1.677 0.945-3e-3 1.632-0.692 1.634-1.637" fill="#d4d4d4"/>
  </g>
  <g transform="matrix(.35278 0 0 -.35278 150.65 232.7)">
   <path d="m0 0c3e-3 -0.936-0.687-1.638-1.624-1.651-0.931-0.014-1.651 0.683-1.666 1.612-0.015 0.974 0.683 1.679 1.656 1.676 0.945-3e-3 1.632-0.692 1.634-1.637" fill="#d4d4d4"/>
  </g>
  <g transform="matrix(.35278 0 0 -.35278 152.32 230.87)">
   <path d="m0 0c2e-3 -0.936-0.688-1.638-1.625-1.652-0.931-0.014-1.651 0.683-1.666 1.612-0.015 0.974 0.683 1.68 1.656 1.677 0.945-3e-3 1.632-0.692 1.635-1.637" fill="#d4d4d4"/>
  </g>
  <g transform="matrix(.35278 0 0 -.35278 152.32 232.7)">
   <path d="m0 0c2e-3 -0.936-0.688-1.638-1.625-1.651-0.931-0.014-1.651 0.683-1.666 1.612-0.015 0.974 0.683 1.679 1.656 1.676 0.945-3e-3 1.632-0.692 1.635-1.637" fill="#d4d4d4"/>
  </g>
  <g transform="matrix(.35278 0 0 -.35278 153.99 234.4)">
   <path d="m0 0c2e-3 -0.936-0.688-1.638-1.625-1.651-0.93-0.015-1.65 0.683-1.665 1.611-0.016 0.974 0.682 1.68 1.656 1.677 0.945-3e-3 1.632-0.692 1.634-1.637" fill="#d4d4d4"/>
  </g>
  <g transform="matrix(.35278 0 0 -.35278 155.66 234.4)">
   <path d="m0 0c3e-3 -0.936-0.688-1.638-1.625-1.651-0.93-0.015-1.65 0.683-1.665 1.611-0.016 0.974 0.682 1.68 1.656 1.677 0.945-3e-3 1.632-0.692 1.634-1.637" fill="#d4d4d4"/>
  </g>
  <g transform="matrix(.35278 0 0 -.35278 157.33 234.4)">
   <path d="m0 0c3e-3 -0.936-0.687-1.638-1.624-1.651-0.931-0.015-1.651 0.683-1.666 1.611-0.015 0.974 0.683 1.68 1.656 1.677 0.945-3e-3 1.632-0.692 1.634-1.637" fill="#d4d4d4"/>
  </g>
  <g transform="matrix(.35278 0 0 -.35278 153.99 230.87)">
   <path d="m0 0c2e-3 -0.936-0.688-1.638-1.625-1.652-0.93-0.014-1.65 0.683-1.665 1.612-0.016 0.974 0.682 1.68 1.656 1.677 0.945-3e-3 1.632-0.692 1.634-1.637" fill="#d4d4d4"/>
  </g>
  <g transform="matrix(.35278 0 0 -.35278 153.99 232.7)">
   <path d="m0 0c2e-3 -0.936-0.688-1.638-1.625-1.651-0.93-0.014-1.65 0.683-1.665 1.612-0.016 0.974 0.682 1.679 1.656 1.676 0.945-3e-3 1.632-0.692 1.634-1.637" fill="#d4d4d4"/>
  </g>
  <g transform="matrix(.35278 0 0 -.35278 155.66 230.87)">
   <path d="m0 0c3e-3 -0.936-0.688-1.638-1.625-1.652-0.93-0.014-1.65 0.683-1.665 1.612-0.016 0.974 0.682 1.68 1.656 1.677 0.945-3e-3 1.632-0.692 1.634-1.637" fill="#d4d4d4"/>
  </g>
  <g transform="matrix(.35278 0 0 -.35278 155.66 232.7)">
   <path d="m0 0c3e-3 -0.936-0.688-1.638-1.625-1.651-0.93-0.014-1.65 0.683-1.665 1.612-0.016 0.974 0.682 1.679 1.656 1.676 0.945-3e-3 1.632-0.692 1.634-1.637" fill="#d4d4d4"/>
  </g>
  <g transform="matrix(.35278 0 0 -.35278 157.33 230.87)">
   <path d="m0 0c3e-3 -0.936-0.687-1.638-1.624-1.652-0.931-0.014-1.651 0.683-1.666 1.612-0.015 0.974 0.683 1.68 1.656 1.677 0.945-3e-3 1.632-0.692 1.634-1.637" fill="#d4d4d4"/>
  </g>
  <g transform="matrix(.35278 0 0 -.35278 157.33 232.7)">
   <path d="m0 0c3e-3 -0.936-0.687-1.638-1.624-1.651-0.931-0.014-1.651 0.683-1.666 1.612-0.015 0.974 0.683 1.679 1.656 1.676 0.945-3e-3 1.632-0.692 1.634-1.637" fill="#d4d4d4"/>
  </g>
  <g transform="matrix(.35278 0 0 -.35278 158.75 225.57)">
   <path d="m0 0c2e-3 -0.936-0.688-1.638-1.625-1.652-0.931-0.014-1.651 0.684-1.666 1.612-0.015 0.974 0.683 1.68 1.657 1.677 0.945-3e-3 1.631-0.692 1.634-1.637" fill="#d4d4d4"/>
  </g>
  <g transform="matrix(.35278 0 0 -.35278 158.75 227.4)">
   <path d="m0 0c2e-3 -0.937-0.688-1.639-1.625-1.652-0.931-0.014-1.651 0.683-1.666 1.612-0.015 0.974 0.683 1.679 1.657 1.676 0.945-3e-3 1.631-0.691 1.634-1.636" fill="#d4d4d4"/>
  </g>
  <g transform="matrix(.35278 0 0 -.35278 158.75 229.23)">
   <path d="m0 0c2e-3 -0.936-0.688-1.638-1.625-1.651-0.931-0.015-1.651 0.683-1.666 1.611-0.015 0.974 0.683 1.68 1.657 1.677 0.945-3e-3 1.631-0.692 1.634-1.637" fill="#d4d4d4"/>
  </g>
  <g transform="matrix(.35278 0 0 -.35278 158.75 222.04)">
   <path d="m0 0c2e-3 -0.937-0.688-1.639-1.625-1.652-0.931-0.014-1.651 0.683-1.666 1.612-0.015 0.974 0.683 1.679 1.657 1.676 0.945-2e-3 1.631-0.691 1.634-1.636" fill="#d4d4d4"/>
  </g>
  <g transform="matrix(.35278 0 0 -.35278 158.75 223.87)">
   <path d="m0 0c2e-3 -0.936-0.688-1.638-1.625-1.651-0.931-0.015-1.651 0.683-1.666 1.611-0.015 0.974 0.683 1.68 1.657 1.677 0.945-3e-3 1.631-0.692 1.634-1.637" fill="#d4d4d4"/>
  </g>
  <g transform="matrix(.35278 0 0 -.35278 158.75 234.4)">
   <path d="m0 0c2e-3 -0.936-0.688-1.638-1.625-1.651-0.931-0.015-1.651 0.683-1.666 1.611-0.015 0.974 0.683 1.68 1.657 1.677 0.945-3e-3 1.631-0.692 1.634-1.637" fill="#d4d4d4"/>
  </g>
  <g transform="matrix(.35278 0 0 -.35278 158.75 230.87)">
   <path d="m0 0c2e-3 -0.936-0.688-1.638-1.625-1.652-0.931-0.014-1.651 0.683-1.666 1.612-0.015 0.974 0.683 1.68 1.657 1.677 0.945-3e-3 1.631-0.692 1.634-1.637" fill="#d4d4d4"/>
  </g>
  <g transform="matrix(.35278 0 0 -.35278 158.75 232.7)">
   <path d="m0 0c2e-3 -0.936-0.688-1.638-1.625-1.651-0.931-0.014-1.651 0.683-1.666 1.612-0.015 0.974 0.683 1.679 1.657 1.676 0.945-3e-3 1.631-0.692 1.634-1.637" fill="#d4d4d4"/>
  </g>
  <g transform="matrix(.35278 0 0 -.35278 160.18 225.57)">
   <path d="m0 0c2e-3 -0.936-0.688-1.638-1.625-1.652-0.93-0.014-1.65 0.684-1.665 1.612-0.016 0.974 0.682 1.68 1.656 1.677 0.945-3e-3 1.632-0.692 1.634-1.637" fill="#d4d4d4"/>
  </g>
  <g transform="matrix(.35278 0 0 -.35278 160.18 227.4)">
   <path d="m0 0c2e-3 -0.937-0.688-1.639-1.625-1.652-0.93-0.014-1.65 0.683-1.665 1.612-0.016 0.974 0.682 1.679 1.656 1.676 0.945-3e-3 1.632-0.691 1.634-1.636" fill="#d4d4d4"/>
  </g>
  <g transform="matrix(.35278 0 0 -.35278 160.18 229.23)">
   <path d="m0 0c2e-3 -0.936-0.688-1.638-1.625-1.651-0.93-0.015-1.65 0.683-1.665 1.611-0.016 0.974 0.682 1.68 1.656 1.677 0.945-3e-3 1.632-0.692 1.634-1.637" fill="#d4d4d4"/>
  </g>
  <g transform="matrix(.35278 0 0 -.35278 160.18 222.04)">
   <path d="m0 0c2e-3 -0.937-0.688-1.639-1.625-1.652-0.93-0.014-1.65 0.683-1.665 1.612-0.016 0.974 0.682 1.679 1.656 1.676 0.945-2e-3 1.632-0.691 1.634-1.636" fill="#d4d4d4"/>
  </g>
  <g transform="matrix(.35278 0 0 -.35278 160.18 223.87)">
   <path d="m0 0c2e-3 -0.936-0.688-1.638-1.625-1.651-0.93-0.015-1.65 0.683-1.665 1.611-0.016 0.974 0.682 1.68 1.656 1.677 0.945-3e-3 1.632-0.692 1.634-1.637" fill="#d4d4d4"/>
  </g>
  <g transform="matrix(.35278 0 0 -.35278 160.18 234.4)">
   <path d="m0 0c2e-3 -0.936-0.688-1.638-1.625-1.651-0.93-0.015-1.65 0.683-1.665 1.611-0.016 0.974 0.682 1.68 1.656 1.677 0.945-3e-3 1.632-0.692 1.634-1.637" fill="#d4d4d4"/>
  </g>
  <g transform="matrix(.35278 0 0 -.35278 160.18 230.87)">
   <path d="m0 0c2e-3 -0.936-0.688-1.638-1.625-1.652-0.93-0.014-1.65 0.683-1.665 1.612-0.016 0.974 0.682 1.68 1.656 1.677 0.945-3e-3 1.632-0.692 1.634-1.637" fill="#d4d4d4"/>
  </g>
  <g transform="matrix(.35278 0 0 -.35278 160.18 232.7)">
   <path d="m0 0c2e-3 -0.936-0.688-1.638-1.625-1.651-0.93-0.014-1.65 0.683-1.665 1.612-0.016 0.974 0.682 1.679 1.656 1.676 0.945-3e-3 1.632-0.692 1.634-1.637" fill="#d4d4d4"/>
  </g>
  <g transform="matrix(.35278 0 0 -.35278 161.6 225.57)">
   <path d="m0 0c2e-3 -0.936-0.688-1.638-1.625-1.652-0.931-0.014-1.651 0.684-1.666 1.612-0.015 0.974 0.683 1.68 1.656 1.677 0.945-3e-3 1.632-0.692 1.635-1.637" fill="#d4d4d4"/>
  </g>
  <g transform="matrix(.35278 0 0 -.35278 161.6 227.4)">
   <path d="m0 0c2e-3 -0.937-0.688-1.639-1.625-1.652-0.931-0.014-1.651 0.683-1.666 1.612-0.015 0.974 0.683 1.679 1.656 1.676 0.945-3e-3 1.632-0.691 1.635-1.636" fill="#d4d4d4"/>
  </g>
  <g transform="matrix(.35278 0 0 -.35278 161.6 229.23)">
   <path d="m0 0c2e-3 -0.936-0.688-1.638-1.625-1.651-0.931-0.015-1.651 0.683-1.666 1.611-0.015 0.974 0.683 1.68 1.656 1.677 0.945-3e-3 1.632-0.692 1.635-1.637" fill="#d4d4d4"/>
  </g>
  <g transform="matrix(.35278 0 0 -.35278 161.6 222.04)">
   <path d="m0 0c2e-3 -0.937-0.688-1.639-1.625-1.652-0.931-0.014-1.651 0.683-1.666 1.612-0.015 0.974 0.683 1.679 1.656 1.676 0.945-2e-3 1.632-0.691 1.635-1.636" fill="#d4d4d4"/>
  </g>
  <g transform="matrix(.35278 0 0 -.35278 161.6 223.87)">
   <path d="m0 0c2e-3 -0.936-0.688-1.638-1.625-1.651-0.931-0.015-1.651 0.683-1.666 1.611-0.015 0.974 0.683 1.68 1.656 1.677 0.945-3e-3 1.632-0.692 1.635-1.637" fill="#d4d4d4"/>
  </g>
  <g transform="matrix(.35278 0 0 -.35278 161.6 234.4)">
   <path d="m0 0c2e-3 -0.936-0.688-1.638-1.625-1.651-0.931-0.015-1.651 0.683-1.666 1.611-0.015 0.974 0.683 1.68 1.656 1.677 0.945-3e-3 1.632-0.692 1.635-1.637" fill="#d4d4d4"/>
  </g>
  <g transform="matrix(.35278 0 0 -.35278 161.6 230.87)">
   <path d="m0 0c2e-3 -0.936-0.688-1.638-1.625-1.652-0.931-0.014-1.651 0.683-1.666 1.612-0.015 0.974 0.683 1.68 1.656 1.677 0.945-3e-3 1.632-0.692 1.635-1.637" fill="#d4d4d4"/>
  </g>
  <g transform="matrix(.35278 0 0 -.35278 161.6 232.7)">
   <path d="m0 0c2e-3 -0.936-0.688-1.638-1.625-1.651-0.931-0.014-1.651 0.683-1.666 1.612-0.015 0.974 0.683 1.679 1.656 1.676 0.945-3e-3 1.632-0.692 1.635-1.637" fill="#d4d4d4"/>
  </g>
  <g transform="matrix(.35278 0 0 -.35278 163.03 225.57)">
   <path d="m0 0c2e-3 -0.936-0.688-1.638-1.625-1.652-0.93-0.014-1.651 0.684-1.665 1.612-0.016 0.974 0.682 1.68 1.656 1.677 0.945-3e-3 1.632-0.692 1.634-1.637" fill="#d4d4d4"/>
  </g>
  <g transform="matrix(.35278 0 0 -.35278 163.03 227.4)">
   <path d="m0 0c2e-3 -0.937-0.688-1.639-1.625-1.652-0.93-0.014-1.651 0.683-1.665 1.612-0.016 0.974 0.682 1.679 1.656 1.676 0.945-3e-3 1.632-0.691 1.634-1.636" fill="#d4d4d4"/>
  </g>
  <g transform="matrix(.35278 0 0 -.35278 163.03 229.23)">
   <path d="m0 0c2e-3 -0.936-0.688-1.638-1.625-1.651-0.93-0.015-1.651 0.683-1.665 1.611-0.016 0.974 0.682 1.68 1.656 1.677 0.945-3e-3 1.632-0.692 1.634-1.637" fill="#d4d4d4"/>
  </g>
  <g transform="matrix(.35278 0 0 -.35278 163.03 222.04)">
   <path d="m0 0c2e-3 -0.937-0.688-1.639-1.625-1.652-0.93-0.014-1.651 0.683-1.665 1.612-0.016 0.974 0.682 1.679 1.656 1.676 0.945-2e-3 1.632-0.691 1.634-1.636" fill="#d4d4d4"/>
  </g>
  <g transform="matrix(.35278 0 0 -.35278 163.03 223.87)">
   <path d="m0 0c2e-3 -0.936-0.688-1.638-1.625-1.651-0.93-0.015-1.651 0.683-1.665 1.611-0.016 0.974 0.682 1.68 1.656 1.677 0.945-3e-3 1.632-0.692 1.634-1.637" fill="#d4d4d4"/>
  </g>
  <g transform="matrix(.35278 0 0 -.35278 163.03 234.4)">
   <path d="m0 0c2e-3 -0.936-0.688-1.638-1.625-1.651-0.93-0.015-1.651 0.683-1.665 1.611-0.016 0.974 0.682 1.68 1.656 1.677 0.945-3e-3 1.632-0.692 1.634-1.637" fill="#d4d4d4"/>
  </g>
  <g transform="matrix(.35278 0 0 -.35278 163.03 230.87)">
   <path d="m0 0c2e-3 -0.936-0.688-1.638-1.625-1.652-0.93-0.014-1.651 0.683-1.665 1.612-0.016 0.974 0.682 1.68 1.656 1.677 0.945-3e-3 1.632-0.692 1.634-1.637" fill="#d4d4d4"/>
  </g>
  <g transform="matrix(.35278 0 0 -.35278 163.03 232.7)">
   <path d="m0 0c2e-3 -0.936-0.688-1.638-1.625-1.651-0.93-0.014-1.651 0.683-1.665 1.612-0.016 0.974 0.682 1.679 1.656 1.676 0.945-3e-3 1.632-0.692 1.634-1.637" fill="#d4d4d4"/>
  </g>
  <g transform="matrix(.35278 0 0 -.35278 164.73 239.73)">
   <path d="m0 0c3e-3 -0.937-0.687-1.639-1.624-1.652-0.931-0.014-1.651 0.683-1.666 1.612-0.015 0.974 0.683 1.679 1.656 1.676 0.945-2e-3 1.632-0.691 1.634-1.636" fill="#d4d4d4"/>
  </g>
  <g transform="matrix(.35278 0 0 -.35278 164.73 241.56)">
   <path d="m0 0c3e-3 -0.936-0.687-1.638-1.624-1.651-0.931-0.015-1.651 0.683-1.666 1.611-0.015 0.974 0.683 1.68 1.656 1.677 0.945-3e-3 1.632-0.692 1.634-1.637" fill="#d4d4d4"/>
  </g>
  <g transform="matrix(.35278 0 0 -.35278 164.73 243.39)">
   <path d="m0 0c3e-3 -0.936-0.687-1.638-1.624-1.652-0.931-0.014-1.651 0.683-1.666 1.612-0.015 0.974 0.683 1.68 1.656 1.677 0.945-3e-3 1.632-0.692 1.634-1.637" fill="#d4d4d4"/>
  </g>
  <g transform="matrix(.35278 0 0 -.35278 166.4 239.73)">
   <path d="m0 0c2e-3 -0.937-0.688-1.639-1.625-1.652-0.931-0.014-1.651 0.683-1.666 1.612-0.015 0.974 0.683 1.679 1.656 1.676 0.945-2e-3 1.632-0.691 1.635-1.636" fill="#d4d4d4"/>
  </g>
  <g transform="matrix(.35278 0 0 -.35278 166.4 241.56)">
   <path d="m0 0c2e-3 -0.936-0.688-1.638-1.625-1.651-0.931-0.015-1.651 0.683-1.666 1.611-0.015 0.974 0.683 1.68 1.656 1.677 0.945-3e-3 1.632-0.692 1.635-1.637" fill="#d4d4d4"/>
  </g>
  <g transform="matrix(.35278 0 0 -.35278 166.4 243.39)">
   <path d="m0 0c2e-3 -0.936-0.688-1.638-1.625-1.652-0.931-0.014-1.651 0.683-1.666 1.612-0.015 0.974 0.683 1.68 1.656 1.677 0.945-3e-3 1.632-0.692 1.635-1.637" fill="#d4d4d4"/>
  </g>
  <g transform="matrix(.35278 0 0 -.35278 168.07 239.73)">
   <path d="m0 0c2e-3 -0.937-0.688-1.639-1.625-1.652-0.931-0.014-1.651 0.683-1.666 1.612-0.015 0.974 0.683 1.679 1.657 1.676 0.945-2e-3 1.631-0.691 1.634-1.636" fill="#d4d4d4"/>
  </g>
  <g transform="matrix(.35278 0 0 -.35278 168.07 241.56)">
   <path d="m0 0c2e-3 -0.936-0.688-1.638-1.625-1.651-0.931-0.015-1.651 0.683-1.666 1.611-0.015 0.974 0.683 1.68 1.657 1.677 0.945-3e-3 1.631-0.692 1.634-1.637" fill="#d4d4d4"/>
  </g>
  <g transform="matrix(.35278 0 0 -.35278 168.07 243.39)">
   <path d="m0 0c2e-3 -0.936-0.688-1.638-1.625-1.652-0.931-0.014-1.651 0.683-1.666 1.612-0.015 0.974 0.683 1.68 1.657 1.677 0.945-3e-3 1.631-0.692 1.634-1.637" fill="#d4d4d4"/>
  </g>
  <g transform="matrix(.35278 0 0 -.35278 164.73 236.2)">
   <path d="m0 0c3e-3 -0.936-0.687-1.638-1.624-1.651-0.931-0.015-1.651 0.683-1.666 1.612-0.015 0.973 0.683 1.679 1.656 1.676 0.945-3e-3 1.632-0.692 1.634-1.637" fill="#d4d4d4"/>
  </g>
  <g transform="matrix(.35278 0 0 -.35278 164.73 238.03)">
   <path d="m0 0c3e-3 -0.936-0.687-1.638-1.624-1.652-0.931-0.014-1.651 0.683-1.666 1.612-0.015 0.974 0.683 1.68 1.656 1.677 0.945-3e-3 1.632-0.692 1.634-1.637" fill="#d4d4d4"/>
  </g>
  <g transform="matrix(.35278 0 0 -.35278 166.4 236.2)">
   <path d="m0 0c2e-3 -0.936-0.688-1.638-1.625-1.651-0.931-0.015-1.651 0.683-1.666 1.612-0.015 0.973 0.683 1.679 1.656 1.676 0.945-3e-3 1.632-0.692 1.635-1.637" fill="#d4d4d4"/>
  </g>
  <g transform="matrix(.35278 0 0 -.35278 166.4 238.03)">
   <path d="m0 0c2e-3 -0.936-0.688-1.638-1.625-1.652-0.931-0.014-1.651 0.683-1.666 1.612-0.015 0.974 0.683 1.68 1.656 1.677 0.945-3e-3 1.632-0.692 1.635-1.637" fill="#d4d4d4"/>
  </g>
  <g transform="matrix(.35278 0 0 -.35278 168.07 236.2)">
   <path d="m0 0c2e-3 -0.936-0.688-1.638-1.625-1.651-0.931-0.015-1.651 0.683-1.666 1.612-0.015 0.973 0.683 1.679 1.657 1.676 0.945-3e-3 1.631-0.692 1.634-1.637" fill="#d4d4d4"/>
  </g>
  <g transform="matrix(.35278 0 0 -.35278 168.07 238.03)">
   <path d="m0 0c2e-3 -0.936-0.688-1.638-1.625-1.652-0.931-0.014-1.651 0.683-1.666 1.612-0.015 0.974 0.683 1.68 1.657 1.677 0.945-3e-3 1.631-0.692 1.634-1.637" fill="#d4d4d4"/>
  </g>
  <g transform="matrix(.35278 0 0 -.35278 169.74 239.73)">
   <path d="m0 0c3e-3 -0.937-0.688-1.639-1.625-1.652-0.93-0.014-1.65 0.683-1.665 1.612-0.016 0.974 0.682 1.679 1.656 1.676 0.945-2e-3 1.632-0.691 1.634-1.636" fill="#d4d4d4"/>
  </g>
  <g transform="matrix(.35278 0 0 -.35278 169.74 241.56)">
   <path d="m0 0c3e-3 -0.936-0.688-1.638-1.625-1.651-0.93-0.015-1.65 0.683-1.665 1.611-0.016 0.974 0.682 1.68 1.656 1.677 0.945-3e-3 1.632-0.692 1.634-1.637" fill="#d4d4d4"/>
  </g>
  <g transform="matrix(.35278 0 0 -.35278 169.74 243.39)">
   <path d="m0 0c3e-3 -0.936-0.688-1.638-1.625-1.652-0.93-0.014-1.65 0.683-1.665 1.612-0.016 0.974 0.682 1.68 1.656 1.677 0.945-3e-3 1.632-0.692 1.634-1.637" fill="#d4d4d4"/>
  </g>
  <g transform="matrix(.35278 0 0 -.35278 171.4 239.73)">
   <path d="m0 0c3e-3 -0.937-0.687-1.639-1.624-1.652-0.931-0.014-1.651 0.683-1.666 1.612-0.015 0.974 0.683 1.679 1.656 1.676 0.945-2e-3 1.632-0.691 1.634-1.636" fill="#d4d4d4"/>
  </g>
  <g transform="matrix(.35278 0 0 -.35278 171.4 241.56)">
   <path d="m0 0c3e-3 -0.936-0.687-1.638-1.624-1.651-0.931-0.015-1.651 0.683-1.666 1.611-0.015 0.974 0.683 1.68 1.656 1.677 0.945-3e-3 1.632-0.692 1.634-1.637" fill="#d4d4d4"/>
  </g>
  <g transform="matrix(.35278 0 0 -.35278 171.4 243.39)">
   <path d="m0 0c3e-3 -0.936-0.687-1.638-1.624-1.652-0.931-0.014-1.651 0.683-1.666 1.612-0.015 0.974 0.683 1.68 1.656 1.677 0.945-3e-3 1.632-0.692 1.634-1.637" fill="#d4d4d4"/>
  </g>
  <g transform="matrix(.35278 0 0 -.35278 173.07 239.73)">
   <path d="m0 0c2e-3 -0.937-0.688-1.639-1.625-1.652-0.931-0.014-1.651 0.683-1.666 1.612-0.015 0.974 0.683 1.679 1.656 1.676 0.945-2e-3 1.632-0.691 1.635-1.636" fill="#d4d4d4"/>
  </g>
  <g transform="matrix(.35278 0 0 -.35278 173.07 241.56)">
   <path d="m0 0c2e-3 -0.936-0.688-1.638-1.625-1.651-0.931-0.015-1.651 0.683-1.666 1.611-0.015 0.974 0.683 1.68 1.656 1.677 0.945-3e-3 1.632-0.692 1.635-1.637" fill="#d4d4d4"/>
  </g>
  <g transform="matrix(.35278 0 0 -.35278 173.07 243.39)">
   <path d="m0 0c2e-3 -0.936-0.688-1.638-1.625-1.652-0.931-0.014-1.651 0.683-1.666 1.612-0.015 0.974 0.683 1.68 1.656 1.677 0.945-3e-3 1.632-0.692 1.635-1.637" fill="#d4d4d4"/>
  </g>
  <g transform="matrix(.35278 0 0 -.35278 169.74 236.2)">
   <path d="m0 0c3e-3 -0.936-0.688-1.638-1.625-1.651-0.93-0.015-1.65 0.683-1.665 1.612-0.016 0.973 0.682 1.679 1.656 1.676 0.945-3e-3 1.632-0.692 1.634-1.637" fill="#d4d4d4"/>
  </g>
  <g transform="matrix(.35278 0 0 -.35278 169.74 238.03)">
   <path d="m0 0c3e-3 -0.936-0.688-1.638-1.625-1.652-0.93-0.014-1.65 0.683-1.665 1.612-0.016 0.974 0.682 1.68 1.656 1.677 0.945-3e-3 1.632-0.692 1.634-1.637" fill="#d4d4d4"/>
  </g>
  <g transform="matrix(.35278 0 0 -.35278 171.4 236.2)">
   <path d="m0 0c3e-3 -0.936-0.687-1.638-1.624-1.651-0.931-0.015-1.651 0.683-1.666 1.612-0.015 0.973 0.683 1.679 1.656 1.676 0.945-3e-3 1.632-0.692 1.634-1.637" fill="#d4d4d4"/>
  </g>
  <g transform="matrix(.35278 0 0 -.35278 171.4 238.03)">
   <path d="m0 0c3e-3 -0.936-0.687-1.638-1.624-1.652-0.931-0.014-1.651 0.683-1.666 1.612-0.015 0.974 0.683 1.68 1.656 1.677 0.945-3e-3 1.632-0.692 1.634-1.637" fill="#d4d4d4"/>
  </g>
  <g transform="matrix(.35278 0 0 -.35278 173.07 236.2)">
   <path d="m0 0c2e-3 -0.936-0.688-1.638-1.625-1.651-0.931-0.015-1.651 0.683-1.666 1.612-0.015 0.973 0.683 1.679 1.656 1.676 0.945-3e-3 1.632-0.692 1.635-1.637" fill="#d4d4d4"/>
  </g>
  <g transform="matrix(.35278 0 0 -.35278 173.07 238.03)">
   <path d="m0 0c2e-3 -0.936-0.688-1.638-1.625-1.652-0.931-0.014-1.651 0.683-1.666 1.612-0.015 0.974 0.683 1.68 1.656 1.677 0.945-3e-3 1.632-0.692 1.635-1.637" fill="#d4d4d4"/>
  </g>
  <g transform="matrix(.35278 0 0 -.35278 164.73 248.56)">
   <path d="m0 0c3e-3 -0.936-0.687-1.638-1.624-1.652-0.931-0.014-1.651 0.683-1.666 1.612-0.015 0.974 0.683 1.68 1.656 1.677 0.945-3e-3 1.632-0.692 1.634-1.637" fill="#d4d4d4"/>
  </g>
  <g transform="matrix(.35278 0 0 -.35278 166.4 248.56)">
   <path d="m0 0c2e-3 -0.936-0.688-1.638-1.625-1.652-0.931-0.014-1.651 0.683-1.666 1.612-0.015 0.974 0.683 1.68 1.656 1.677 0.945-3e-3 1.632-0.692 1.635-1.637" fill="#d4d4d4"/>
  </g>
  <g transform="matrix(.35278 0 0 -.35278 168.07 248.56)">
   <path d="m0 0c2e-3 -0.936-0.688-1.638-1.625-1.652-0.931-0.014-1.651 0.683-1.666 1.612-0.015 0.974 0.683 1.68 1.657 1.677 0.945-3e-3 1.631-0.692 1.634-1.637" fill="#d4d4d4"/>
  </g>
  <g transform="matrix(.35278 0 0 -.35278 164.73 245.03)">
   <path d="m0 0c3e-3 -0.937-0.687-1.639-1.624-1.652-0.931-0.014-1.651 0.683-1.666 1.612-0.015 0.974 0.683 1.679 1.656 1.676 0.945-3e-3 1.632-0.691 1.634-1.636" fill="#d4d4d4"/>
  </g>
  <g transform="matrix(.35278 0 0 -.35278 164.73 246.86)">
   <path d="m0 0c3e-3 -0.936-0.687-1.638-1.624-1.652-0.931-0.014-1.651 0.684-1.666 1.612-0.015 0.974 0.683 1.68 1.656 1.677 0.945-3e-3 1.632-0.692 1.634-1.637" fill="#d4d4d4"/>
  </g>
  <g transform="matrix(.35278 0 0 -.35278 166.4 245.03)">
   <path d="m0 0c2e-3 -0.937-0.688-1.639-1.625-1.652-0.931-0.014-1.651 0.683-1.666 1.612-0.015 0.974 0.683 1.679 1.656 1.676 0.945-3e-3 1.632-0.691 1.635-1.636" fill="#d4d4d4"/>
  </g>
  <g transform="matrix(.35278 0 0 -.35278 166.4 246.86)">
   <path d="m0 0c2e-3 -0.936-0.688-1.638-1.625-1.652-0.931-0.014-1.651 0.684-1.666 1.612-0.015 0.974 0.683 1.68 1.656 1.677 0.945-3e-3 1.632-0.692 1.635-1.637" fill="#d4d4d4"/>
  </g>
  <g transform="matrix(.35278 0 0 -.35278 168.07 245.03)">
   <path d="m0 0c2e-3 -0.937-0.688-1.639-1.625-1.652-0.931-0.014-1.651 0.683-1.666 1.612-0.015 0.974 0.683 1.679 1.657 1.676 0.945-3e-3 1.631-0.691 1.634-1.636" fill="#d4d4d4"/>
  </g>
  <g transform="matrix(.35278 0 0 -.35278 168.07 246.86)">
   <path d="m0 0c2e-3 -0.936-0.688-1.638-1.625-1.652-0.931-0.014-1.651 0.684-1.666 1.612-0.015 0.974 0.683 1.68 1.657 1.677 0.945-3e-3 1.631-0.692 1.634-1.637" fill="#d4d4d4"/>
  </g>
  <g transform="matrix(.35278 0 0 -.35278 169.74 248.56)">
   <path d="m0 0c3e-3 -0.936-0.688-1.638-1.625-1.652-0.93-0.014-1.65 0.683-1.665 1.612-0.016 0.974 0.682 1.68 1.656 1.677 0.945-3e-3 1.632-0.692 1.634-1.637" fill="#d4d4d4"/>
  </g>
  <g transform="matrix(.35278 0 0 -.35278 171.4 248.56)">
   <path d="m0 0c3e-3 -0.936-0.687-1.638-1.624-1.652-0.931-0.014-1.651 0.683-1.666 1.612-0.015 0.974 0.683 1.68 1.656 1.677 0.945-3e-3 1.632-0.692 1.634-1.637" fill="#d4d4d4"/>
  </g>
  <g transform="matrix(.35278 0 0 -.35278 173.07 248.56)">
   <path d="m0 0c2e-3 -0.936-0.688-1.638-1.625-1.652-0.931-0.014-1.651 0.683-1.666 1.612-0.015 0.974 0.683 1.68 1.656 1.677 0.945-3e-3 1.632-0.692 1.635-1.637" fill="#d4d4d4"/>
  </g>
  <g transform="matrix(.35278 0 0 -.35278 169.74 245.03)">
   <path d="m0 0c3e-3 -0.937-0.688-1.639-1.625-1.652-0.93-0.014-1.65 0.683-1.665 1.612-0.016 0.974 0.682 1.679 1.656 1.676 0.945-3e-3 1.632-0.691 1.634-1.636" fill="#d4d4d4"/>
  </g>
  <g transform="matrix(.35278 0 0 -.35278 169.74 246.86)">
   <path d="m0 0c3e-3 -0.936-0.688-1.638-1.625-1.652-0.93-0.014-1.65 0.684-1.665 1.612-0.016 0.974 0.682 1.68 1.656 1.677 0.945-3e-3 1.632-0.692 1.634-1.637" fill="#d4d4d4"/>
  </g>
  <g transform="matrix(.35278 0 0 -.35278 171.4 245.03)">
   <path d="m0 0c3e-3 -0.937-0.687-1.639-1.624-1.652-0.931-0.014-1.651 0.683-1.666 1.612-0.015 0.974 0.683 1.679 1.656 1.676 0.945-3e-3 1.632-0.691 1.634-1.636" fill="#d4d4d4"/>
  </g>
  <g transform="matrix(.35278 0 0 -.35278 171.4 246.86)">
   <path d="m0 0c3e-3 -0.936-0.687-1.638-1.624-1.652-0.931-0.014-1.651 0.684-1.666 1.612-0.015 0.974 0.683 1.68 1.656 1.677 0.945-3e-3 1.632-0.692 1.634-1.637" fill="#d4d4d4"/>
  </g>
  <g transform="matrix(.35278 0 0 -.35278 173.07 245.03)">
   <path d="m0 0c2e-3 -0.937-0.688-1.639-1.625-1.652-0.931-0.014-1.651 0.683-1.666 1.612-0.015 0.974 0.683 1.679 1.656 1.676 0.945-3e-3 1.632-0.691 1.635-1.636" fill="#d4d4d4"/>
  </g>
  <g transform="matrix(.35278 0 0 -.35278 173.07 246.86)">
   <path d="m0 0c2e-3 -0.936-0.688-1.638-1.625-1.652-0.931-0.014-1.651 0.684-1.666 1.612-0.015 0.974 0.683 1.68 1.656 1.677 0.945-3e-3 1.632-0.692 1.635-1.637" fill="#d4d4d4"/>
  </g>
  <g transform="matrix(.35278 0 0 -.35278 174.5 239.73)">
   <path d="m0 0c2e-3 -0.937-0.688-1.639-1.625-1.652-0.93-0.014-1.651 0.683-1.665 1.612-0.016 0.974 0.682 1.679 1.656 1.676 0.945-2e-3 1.632-0.691 1.634-1.636" fill="#d4d4d4"/>
  </g>
  <g transform="matrix(.35278 0 0 -.35278 174.5 241.56)">
   <path d="m0 0c2e-3 -0.936-0.688-1.638-1.625-1.651-0.93-0.015-1.651 0.683-1.665 1.611-0.016 0.974 0.682 1.68 1.656 1.677 0.945-3e-3 1.632-0.692 1.634-1.637" fill="#d4d4d4"/>
  </g>
  <g transform="matrix(.35278 0 0 -.35278 174.5 243.39)">
   <path d="m0 0c2e-3 -0.936-0.688-1.638-1.625-1.652-0.93-0.014-1.651 0.683-1.665 1.612-0.016 0.974 0.682 1.68 1.656 1.677 0.945-3e-3 1.632-0.692 1.634-1.637" fill="#d4d4d4"/>
  </g>
  <g transform="matrix(.35278 0 0 -.35278 174.5 236.2)">
   <path d="m0 0c2e-3 -0.936-0.688-1.638-1.625-1.651-0.93-0.015-1.651 0.683-1.665 1.612-0.016 0.973 0.682 1.679 1.656 1.676 0.945-3e-3 1.632-0.692 1.634-1.637" fill="#d4d4d4"/>
  </g>
  <g transform="matrix(.35278 0 0 -.35278 174.5 238.03)">
   <path d="m0 0c2e-3 -0.936-0.688-1.638-1.625-1.652-0.93-0.014-1.651 0.683-1.665 1.612-0.016 0.974 0.682 1.68 1.656 1.677 0.945-3e-3 1.632-0.692 1.634-1.637" fill="#d4d4d4"/>
  </g>
  <g transform="matrix(.35278 0 0 -.35278 174.5 248.56)">
   <path d="m0 0c2e-3 -0.936-0.688-1.638-1.625-1.652-0.93-0.014-1.651 0.683-1.665 1.612-0.016 0.974 0.682 1.68 1.656 1.677 0.945-3e-3 1.632-0.692 1.634-1.637" fill="#d4d4d4"/>
  </g>
  <g transform="matrix(.35278 0 0 -.35278 174.5 245.03)">
   <path d="m0 0c2e-3 -0.937-0.688-1.639-1.625-1.652-0.93-0.014-1.651 0.683-1.665 1.612-0.016 0.974 0.682 1.679 1.656 1.676 0.945-3e-3 1.632-0.691 1.634-1.636" fill="#d4d4d4"/>
  </g>
  <g transform="matrix(.35278 0 0 -.35278 174.5 246.86)">
   <path d="m0 0c2e-3 -0.936-0.688-1.638-1.625-1.652-0.93-0.014-1.651 0.684-1.665 1.612-0.016 0.974 0.682 1.68 1.656 1.677 0.945-3e-3 1.632-0.692 1.634-1.637" fill="#d4d4d4"/>
  </g>
  <g transform="matrix(.35278 0 0 -.35278 175.92 239.73)">
   <path d="m0 0c3e-3 -0.937-0.688-1.639-1.624-1.652-0.931-0.014-1.651 0.683-1.666 1.612-0.016 0.974 0.682 1.679 1.656 1.676 0.945-2e-3 1.632-0.691 1.634-1.636" fill="#d4d4d4"/>
  </g>
  <g transform="matrix(.35278 0 0 -.35278 175.92 241.56)">
   <path d="m0 0c3e-3 -0.936-0.688-1.638-1.624-1.651-0.931-0.015-1.651 0.683-1.666 1.611-0.016 0.974 0.682 1.68 1.656 1.677 0.945-3e-3 1.632-0.692 1.634-1.637" fill="#d4d4d4"/>
  </g>
  <g transform="matrix(.35278 0 0 -.35278 175.92 243.39)">
   <path d="m0 0c3e-3 -0.936-0.688-1.638-1.624-1.652-0.931-0.014-1.651 0.683-1.666 1.612-0.016 0.974 0.682 1.68 1.656 1.677 0.945-3e-3 1.632-0.692 1.634-1.637" fill="#d4d4d4"/>
  </g>
  <g transform="matrix(.35278 0 0 -.35278 175.92 236.2)">
   <path d="m0 0c3e-3 -0.936-0.688-1.638-1.624-1.651-0.931-0.015-1.651 0.683-1.666 1.612-0.016 0.973 0.682 1.679 1.656 1.676 0.945-3e-3 1.632-0.692 1.634-1.637" fill="#d4d4d4"/>
  </g>
  <g transform="matrix(.35278 0 0 -.35278 175.92 238.03)">
   <path d="m0 0c3e-3 -0.936-0.688-1.638-1.624-1.652-0.931-0.014-1.651 0.683-1.666 1.612-0.016 0.974 0.682 1.68 1.656 1.677 0.945-3e-3 1.632-0.692 1.634-1.637" fill="#d4d4d4"/>
  </g>
  <g transform="matrix(.35278 0 0 -.35278 175.92 248.56)">
   <path d="m0 0c3e-3 -0.936-0.688-1.638-1.624-1.652-0.931-0.014-1.651 0.683-1.666 1.612-0.016 0.974 0.682 1.68 1.656 1.677 0.945-3e-3 1.632-0.692 1.634-1.637" fill="#d4d4d4"/>
  </g>
  <g transform="matrix(.35278 0 0 -.35278 175.92 245.03)">
   <path d="m0 0c3e-3 -0.937-0.688-1.639-1.624-1.652-0.931-0.014-1.651 0.683-1.666 1.612-0.016 0.974 0.682 1.679 1.656 1.676 0.945-3e-3 1.632-0.691 1.634-1.636" fill="#d4d4d4"/>
  </g>
  <g transform="matrix(.35278 0 0 -.35278 175.92 246.86)">
   <path d="m0 0c3e-3 -0.936-0.688-1.638-1.624-1.652-0.931-0.014-1.651 0.684-1.666 1.612-0.016 0.974 0.682 1.68 1.656 1.677 0.945-3e-3 1.632-0.692 1.634-1.637" fill="#d4d4d4"/>
  </g>
  <g transform="matrix(.35278 0 0 -.35278 177.35 239.73)">
   <path d="m0 0c2e-3 -0.937-0.688-1.639-1.625-1.652-0.931-0.014-1.651 0.683-1.666 1.612-0.015 0.974 0.683 1.679 1.656 1.676 0.946-2e-3 1.632-0.691 1.635-1.636" fill="#d4d4d4"/>
  </g>
  <g transform="matrix(.35278 0 0 -.35278 177.35 241.56)">
   <path d="m0 0c2e-3 -0.936-0.688-1.638-1.625-1.651-0.931-0.015-1.651 0.683-1.666 1.611-0.015 0.974 0.683 1.68 1.656 1.677 0.946-3e-3 1.632-0.692 1.635-1.637" fill="#d4d4d4"/>
  </g>
  <g transform="matrix(.35278 0 0 -.35278 177.35 243.39)">
   <path d="m0 0c2e-3 -0.936-0.688-1.638-1.625-1.652-0.931-0.014-1.651 0.683-1.666 1.612-0.015 0.974 0.683 1.68 1.656 1.677 0.946-3e-3 1.632-0.692 1.635-1.637" fill="#d4d4d4"/>
  </g>
  <g transform="matrix(.35278 0 0 -.35278 177.35 236.2)">
   <path d="m0 0c2e-3 -0.936-0.688-1.638-1.625-1.651-0.931-0.015-1.651 0.683-1.666 1.612-0.015 0.973 0.683 1.679 1.656 1.676 0.946-3e-3 1.632-0.692 1.635-1.637" fill="#d4d4d4"/>
  </g>
  <g transform="matrix(.35278 0 0 -.35278 177.35 238.03)">
   <path d="m0 0c2e-3 -0.936-0.688-1.638-1.625-1.652-0.931-0.014-1.651 0.683-1.666 1.612-0.015 0.974 0.683 1.68 1.656 1.677 0.946-3e-3 1.632-0.692 1.635-1.637" fill="#d4d4d4"/>
  </g>
  <g transform="matrix(.35278 0 0 -.35278 177.35 248.56)">
   <path d="m0 0c2e-3 -0.936-0.688-1.638-1.625-1.652-0.931-0.014-1.651 0.683-1.666 1.612-0.015 0.974 0.683 1.68 1.656 1.677 0.946-3e-3 1.632-0.692 1.635-1.637" fill="#d4d4d4"/>
  </g>
  <g transform="matrix(.35278 0 0 -.35278 177.35 245.03)">
   <path d="m0 0c2e-3 -0.937-0.688-1.639-1.625-1.652-0.931-0.014-1.651 0.683-1.666 1.612-0.015 0.974 0.683 1.679 1.656 1.676 0.946-3e-3 1.632-0.691 1.635-1.636" fill="#d4d4d4"/>
  </g>
  <g transform="matrix(.35278 0 0 -.35278 177.35 246.86)">
   <path d="m0 0c2e-3 -0.936-0.688-1.638-1.625-1.652-0.931-0.014-1.651 0.684-1.666 1.612-0.015 0.974 0.683 1.68 1.656 1.677 0.946-3e-3 1.632-0.692 1.635-1.637" fill="#d4d4d4"/>
  </g>
  <g transform="matrix(.35278 0 0 -.35278 178.78 239.73)">
   <path d="m0 0c2e-3 -0.937-0.688-1.639-1.625-1.652-0.93-0.014-1.65 0.683-1.665 1.612-0.016 0.974 0.682 1.679 1.656 1.676 0.945-2e-3 1.632-0.691 1.634-1.636" fill="#d4d4d4"/>
  </g>
  <g transform="matrix(.35278 0 0 -.35278 178.78 241.56)">
   <path d="m0 0c2e-3 -0.936-0.688-1.638-1.625-1.651-0.93-0.015-1.65 0.683-1.665 1.611-0.016 0.974 0.682 1.68 1.656 1.677 0.945-3e-3 1.632-0.692 1.634-1.637" fill="#d4d4d4"/>
  </g>
  <g transform="matrix(.35278 0 0 -.35278 178.78 243.39)">
   <path d="m0 0c2e-3 -0.936-0.688-1.638-1.625-1.652-0.93-0.014-1.65 0.683-1.665 1.612-0.016 0.974 0.682 1.68 1.656 1.677 0.945-3e-3 1.632-0.692 1.634-1.637" fill="#d4d4d4"/>
  </g>
  <g transform="matrix(.35278 0 0 -.35278 178.78 236.2)">
   <path d="m0 0c2e-3 -0.936-0.688-1.638-1.625-1.651-0.93-0.015-1.65 0.683-1.665 1.612-0.016 0.973 0.682 1.679 1.656 1.676 0.945-3e-3 1.632-0.692 1.634-1.637" fill="#d4d4d4"/>
  </g>
  <g transform="matrix(.35278 0 0 -.35278 178.78 238.03)">
   <path d="m0 0c2e-3 -0.936-0.688-1.638-1.625-1.652-0.93-0.014-1.65 0.683-1.665 1.612-0.016 0.974 0.682 1.68 1.656 1.677 0.945-3e-3 1.632-0.692 1.634-1.637" fill="#d4d4d4"/>
  </g>
  <g transform="matrix(.35278 0 0 -.35278 178.78 248.56)">
   <path d="m0 0c2e-3 -0.936-0.688-1.638-1.625-1.652-0.93-0.014-1.65 0.683-1.665 1.612-0.016 0.974 0.682 1.68 1.656 1.677 0.945-3e-3 1.632-0.692 1.634-1.637" fill="#d4d4d4"/>
  </g>
  <g transform="matrix(.35278 0 0 -.35278 178.78 245.03)">
   <path d="m0 0c2e-3 -0.937-0.688-1.639-1.625-1.652-0.93-0.014-1.65 0.683-1.665 1.612-0.016 0.974 0.682 1.679 1.656 1.676 0.945-3e-3 1.632-0.691 1.634-1.636" fill="#d4d4d4"/>
  </g>
  <g transform="matrix(.35278 0 0 -.35278 178.78 246.86)">
   <path d="m0 0c2e-3 -0.936-0.688-1.638-1.625-1.652-0.93-0.014-1.65 0.684-1.665 1.612-0.016 0.974 0.682 1.68 1.656 1.677 0.945-3e-3 1.632-0.692 1.634-1.637" fill="#d4d4d4"/>
  </g>
  <g transform="matrix(.35278 0 0 -.35278 164.73 225.57)">
   <path d="m0 0c3e-3 -0.936-0.687-1.638-1.624-1.652-0.931-0.014-1.651 0.684-1.666 1.612-0.015 0.974 0.683 1.68 1.656 1.677 0.945-3e-3 1.632-0.692 1.634-1.637" fill="#d4d4d4"/>
  </g>
  <g transform="matrix(.35278 0 0 -.35278 164.73 227.4)">
   <path d="m0 0c3e-3 -0.937-0.687-1.639-1.624-1.652-0.931-0.014-1.651 0.683-1.666 1.612-0.015 0.974 0.683 1.679 1.656 1.676 0.945-3e-3 1.632-0.691 1.634-1.636" fill="#d4d4d4"/>
  </g>
  <g transform="matrix(.35278 0 0 -.35278 164.73 229.23)">
   <path d="m0 0c3e-3 -0.936-0.687-1.638-1.624-1.651-0.931-0.015-1.651 0.683-1.666 1.611-0.015 0.974 0.683 1.68 1.656 1.677 0.945-3e-3 1.632-0.692 1.634-1.637" fill="#d4d4d4"/>
  </g>
  <g transform="matrix(.35278 0 0 -.35278 166.4 225.57)">
   <path d="m0 0c2e-3 -0.936-0.688-1.638-1.625-1.652-0.931-0.014-1.651 0.684-1.666 1.612-0.015 0.974 0.683 1.68 1.656 1.677 0.945-3e-3 1.632-0.692 1.635-1.637" fill="#d4d4d4"/>
  </g>
  <g transform="matrix(.35278 0 0 -.35278 166.4 227.4)">
   <path d="m0 0c2e-3 -0.937-0.688-1.639-1.625-1.652-0.931-0.014-1.651 0.683-1.666 1.612-0.015 0.974 0.683 1.679 1.656 1.676 0.945-3e-3 1.632-0.691 1.635-1.636" fill="#d4d4d4"/>
  </g>
  <g transform="matrix(.35278 0 0 -.35278 166.4 229.23)">
   <path d="m0 0c2e-3 -0.936-0.688-1.638-1.625-1.651-0.931-0.015-1.651 0.683-1.666 1.611-0.015 0.974 0.683 1.68 1.656 1.677 0.945-3e-3 1.632-0.692 1.635-1.637" fill="#d4d4d4"/>
  </g>
  <g transform="matrix(.35278 0 0 -.35278 168.07 225.57)">
   <path d="m0 0c2e-3 -0.936-0.688-1.638-1.625-1.652-0.931-0.014-1.651 0.684-1.666 1.612-0.015 0.974 0.683 1.68 1.657 1.677 0.945-3e-3 1.631-0.692 1.634-1.637" fill="#d4d4d4"/>
  </g>
  <g transform="matrix(.35278 0 0 -.35278 168.07 227.4)">
   <path d="m0 0c2e-3 -0.937-0.688-1.639-1.625-1.652-0.931-0.014-1.651 0.683-1.666 1.612-0.015 0.974 0.683 1.679 1.657 1.676 0.945-3e-3 1.631-0.691 1.634-1.636" fill="#d4d4d4"/>
  </g>
  <g transform="matrix(.35278 0 0 -.35278 168.07 229.23)">
   <path d="m0 0c2e-3 -0.936-0.688-1.638-1.625-1.651-0.931-0.015-1.651 0.683-1.666 1.611-0.015 0.974 0.683 1.68 1.657 1.677 0.945-3e-3 1.631-0.692 1.634-1.637" fill="#d4d4d4"/>
  </g>
  <g transform="matrix(.35278 0 0 -.35278 164.73 222.04)">
   <path d="m0 0c3e-3 -0.937-0.687-1.639-1.624-1.652-0.931-0.014-1.651 0.683-1.666 1.612-0.015 0.974 0.683 1.679 1.656 1.676 0.945-2e-3 1.632-0.691 1.634-1.636" fill="#d4d4d4"/>
  </g>
  <g transform="matrix(.35278 0 0 -.35278 164.73 223.87)">
   <path d="m0 0c3e-3 -0.936-0.687-1.638-1.624-1.651-0.931-0.015-1.651 0.683-1.666 1.611-0.015 0.974 0.683 1.68 1.656 1.677 0.945-3e-3 1.632-0.692 1.634-1.637" fill="#d4d4d4"/>
  </g>
  <g transform="matrix(.35278 0 0 -.35278 166.4 222.04)">
   <path d="m0 0c2e-3 -0.937-0.688-1.639-1.625-1.652-0.931-0.014-1.651 0.683-1.666 1.612-0.015 0.974 0.683 1.679 1.656 1.676 0.945-2e-3 1.632-0.691 1.635-1.636" fill="#d4d4d4"/>
  </g>
  <g transform="matrix(.35278 0 0 -.35278 166.4 223.87)">
   <path d="m0 0c2e-3 -0.936-0.688-1.638-1.625-1.651-0.931-0.015-1.651 0.683-1.666 1.611-0.015 0.974 0.683 1.68 1.656 1.677 0.945-3e-3 1.632-0.692 1.635-1.637" fill="#d4d4d4"/>
  </g>
  <g transform="matrix(.35278 0 0 -.35278 168.07 222.04)">
   <path d="m0 0c2e-3 -0.937-0.688-1.639-1.625-1.652-0.931-0.014-1.651 0.683-1.666 1.612-0.015 0.974 0.683 1.679 1.657 1.676 0.945-2e-3 1.631-0.691 1.634-1.636" fill="#d4d4d4"/>
  </g>
  <g transform="matrix(.35278 0 0 -.35278 168.07 223.87)">
   <path d="m0 0c2e-3 -0.936-0.688-1.638-1.625-1.651-0.931-0.015-1.651 0.683-1.666 1.611-0.015 0.974 0.683 1.68 1.657 1.677 0.945-3e-3 1.631-0.692 1.634-1.637" fill="#d4d4d4"/>
  </g>
  <g transform="matrix(.35278 0 0 -.35278 169.74 225.57)">
   <path d="m0 0c3e-3 -0.936-0.688-1.638-1.625-1.652-0.93-0.014-1.65 0.684-1.665 1.612-0.016 0.974 0.682 1.68 1.656 1.677 0.945-3e-3 1.632-0.692 1.634-1.637" fill="#d4d4d4"/>
  </g>
  <g transform="matrix(.35278 0 0 -.35278 169.74 227.4)">
   <path d="m0 0c3e-3 -0.937-0.688-1.639-1.625-1.652-0.93-0.014-1.65 0.683-1.665 1.612-0.016 0.974 0.682 1.679 1.656 1.676 0.945-3e-3 1.632-0.691 1.634-1.636" fill="#d4d4d4"/>
  </g>
  <g transform="matrix(.35278 0 0 -.35278 169.74 229.23)">
   <path d="m0 0c3e-3 -0.936-0.688-1.638-1.625-1.651-0.93-0.015-1.65 0.683-1.665 1.611-0.016 0.974 0.682 1.68 1.656 1.677 0.945-3e-3 1.632-0.692 1.634-1.637" fill="#d4d4d4"/>
  </g>
  <g transform="matrix(.35278 0 0 -.35278 171.4 225.57)">
   <path d="m0 0c3e-3 -0.936-0.687-1.638-1.624-1.652-0.931-0.014-1.651 0.684-1.666 1.612-0.015 0.974 0.683 1.68 1.656 1.677 0.945-3e-3 1.632-0.692 1.634-1.637" fill="#d4d4d4"/>
  </g>
  <g transform="matrix(.35278 0 0 -.35278 171.4 227.4)">
   <path d="m0 0c3e-3 -0.937-0.687-1.639-1.624-1.652-0.931-0.014-1.651 0.683-1.666 1.612-0.015 0.974 0.683 1.679 1.656 1.676 0.945-3e-3 1.632-0.691 1.634-1.636" fill="#d4d4d4"/>
  </g>
  <g transform="matrix(.35278 0 0 -.35278 171.4 229.23)">
   <path d="m0 0c3e-3 -0.936-0.687-1.638-1.624-1.651-0.931-0.015-1.651 0.683-1.666 1.611-0.015 0.974 0.683 1.68 1.656 1.677 0.945-3e-3 1.632-0.692 1.634-1.637" fill="#d4d4d4"/>
  </g>
  <g transform="matrix(.35278 0 0 -.35278 173.07 225.57)">
   <path d="m0 0c2e-3 -0.936-0.688-1.638-1.625-1.652-0.931-0.014-1.651 0.684-1.666 1.612-0.015 0.974 0.683 1.68 1.656 1.677 0.945-3e-3 1.632-0.692 1.635-1.637" fill="#d4d4d4"/>
  </g>
  <g transform="matrix(.35278 0 0 -.35278 173.07 227.4)">
   <path d="m0 0c2e-3 -0.937-0.688-1.639-1.625-1.652-0.931-0.014-1.651 0.683-1.666 1.612-0.015 0.974 0.683 1.679 1.656 1.676 0.945-3e-3 1.632-0.691 1.635-1.636" fill="#d4d4d4"/>
  </g>
  <g transform="matrix(.35278 0 0 -.35278 173.07 229.23)">
   <path d="m0 0c2e-3 -0.936-0.688-1.638-1.625-1.651-0.931-0.015-1.651 0.683-1.666 1.611-0.015 0.974 0.683 1.68 1.656 1.677 0.945-3e-3 1.632-0.692 1.635-1.637" fill="#d4d4d4"/>
  </g>
  <g transform="matrix(.35278 0 0 -.35278 169.74 222.04)">
   <path d="m0 0c3e-3 -0.937-0.688-1.639-1.625-1.652-0.93-0.014-1.65 0.683-1.665 1.612-0.016 0.974 0.682 1.679 1.656 1.676 0.945-2e-3 1.632-0.691 1.634-1.636" fill="#d4d4d4"/>
  </g>
  <g transform="matrix(.35278 0 0 -.35278 169.74 223.87)">
   <path d="m0 0c3e-3 -0.936-0.688-1.638-1.625-1.651-0.93-0.015-1.65 0.683-1.665 1.611-0.016 0.974 0.682 1.68 1.656 1.677 0.945-3e-3 1.632-0.692 1.634-1.637" fill="#d4d4d4"/>
  </g>
  <g transform="matrix(.35278 0 0 -.35278 171.4 222.04)">
   <path d="m0 0c3e-3 -0.937-0.687-1.639-1.624-1.652-0.931-0.014-1.651 0.683-1.666 1.612-0.015 0.974 0.683 1.679 1.656 1.676 0.945-2e-3 1.632-0.691 1.634-1.636" fill="#d4d4d4"/>
  </g>
  <g transform="matrix(.35278 0 0 -.35278 171.4 223.87)">
   <path d="m0 0c3e-3 -0.936-0.687-1.638-1.624-1.651-0.931-0.015-1.651 0.683-1.666 1.611-0.015 0.974 0.683 1.68 1.656 1.677 0.945-3e-3 1.632-0.692 1.634-1.637" fill="#d4d4d4"/>
  </g>
  <g transform="matrix(.35278 0 0 -.35278 173.07 222.04)">
   <path d="m0 0c2e-3 -0.937-0.688-1.639-1.625-1.652-0.931-0.014-1.651 0.683-1.666 1.612-0.015 0.974 0.683 1.679 1.656 1.676 0.945-2e-3 1.632-0.691 1.635-1.636" fill="#d4d4d4"/>
  </g>
  <g transform="matrix(.35278 0 0 -.35278 173.07 223.87)">
   <path d="m0 0c2e-3 -0.936-0.688-1.638-1.625-1.651-0.931-0.015-1.651 0.683-1.666 1.611-0.015 0.974 0.683 1.68 1.656 1.677 0.945-3e-3 1.632-0.692 1.635-1.637" fill="#d4d4d4"/>
  </g>
  <g transform="matrix(.35278 0 0 -.35278 164.73 234.4)">
   <path d="m0 0c3e-3 -0.936-0.687-1.638-1.624-1.651-0.931-0.015-1.651 0.683-1.666 1.611-0.015 0.974 0.683 1.68 1.656 1.677 0.945-3e-3 1.632-0.692 1.634-1.637" fill="#d4d4d4"/>
  </g>
  <g transform="matrix(.35278 0 0 -.35278 166.4 234.4)">
   <path d="m0 0c2e-3 -0.936-0.688-1.638-1.625-1.651-0.931-0.015-1.651 0.683-1.666 1.611-0.015 0.974 0.683 1.68 1.656 1.677 0.945-3e-3 1.632-0.692 1.635-1.637" fill="#d4d4d4"/>
  </g>
  <g transform="matrix(.35278 0 0 -.35278 168.07 234.4)">
   <path d="m0 0c2e-3 -0.936-0.688-1.638-1.625-1.651-0.931-0.015-1.651 0.683-1.666 1.611-0.015 0.974 0.683 1.68 1.657 1.677 0.945-3e-3 1.631-0.692 1.634-1.637" fill="#d4d4d4"/>
  </g>
  <g transform="matrix(.35278 0 0 -.35278 164.73 230.87)">
   <path d="m0 0c3e-3 -0.936-0.687-1.638-1.624-1.652-0.931-0.014-1.651 0.683-1.666 1.612-0.015 0.974 0.683 1.68 1.656 1.677 0.945-3e-3 1.632-0.692 1.634-1.637" fill="#d4d4d4"/>
  </g>
  <g transform="matrix(.35278 0 0 -.35278 164.73 232.7)">
   <path d="m0 0c3e-3 -0.936-0.687-1.638-1.624-1.651-0.931-0.014-1.651 0.683-1.666 1.612-0.015 0.974 0.683 1.679 1.656 1.676 0.945-3e-3 1.632-0.692 1.634-1.637" fill="#d4d4d4"/>
  </g>
  <g transform="matrix(.35278 0 0 -.35278 166.4 230.87)">
   <path d="m0 0c2e-3 -0.936-0.688-1.638-1.625-1.652-0.931-0.014-1.651 0.683-1.666 1.612-0.015 0.974 0.683 1.68 1.656 1.677 0.945-3e-3 1.632-0.692 1.635-1.637" fill="#d4d4d4"/>
  </g>
  <g transform="matrix(.35278 0 0 -.35278 166.4 232.7)">
   <path d="m0 0c2e-3 -0.936-0.688-1.638-1.625-1.651-0.931-0.014-1.651 0.683-1.666 1.612-0.015 0.974 0.683 1.679 1.656 1.676 0.945-3e-3 1.632-0.692 1.635-1.637" fill="#d4d4d4"/>
  </g>
  <g transform="matrix(.35278 0 0 -.35278 168.07 230.87)">
   <path d="m0 0c2e-3 -0.936-0.688-1.638-1.625-1.652-0.931-0.014-1.651 0.683-1.666 1.612-0.015 0.974 0.683 1.68 1.657 1.677 0.945-3e-3 1.631-0.692 1.634-1.637" fill="#d4d4d4"/>
  </g>
  <g transform="matrix(.35278 0 0 -.35278 168.07 232.7)">
   <path d="m0 0c2e-3 -0.936-0.688-1.638-1.625-1.651-0.931-0.014-1.651 0.683-1.666 1.612-0.015 0.974 0.683 1.679 1.657 1.676 0.945-3e-3 1.631-0.692 1.634-1.637" fill="#d4d4d4"/>
  </g>
  <g transform="matrix(.35278 0 0 -.35278 169.74 234.4)">
   <path d="m0 0c3e-3 -0.936-0.688-1.638-1.625-1.651-0.93-0.015-1.65 0.683-1.665 1.611-0.016 0.974 0.682 1.68 1.656 1.677 0.945-3e-3 1.632-0.692 1.634-1.637" fill="#d4d4d4"/>
  </g>
  <g transform="matrix(.35278 0 0 -.35278 171.4 234.4)">
   <path d="m0 0c3e-3 -0.936-0.687-1.638-1.624-1.651-0.931-0.015-1.651 0.683-1.666 1.611-0.015 0.974 0.683 1.68 1.656 1.677 0.945-3e-3 1.632-0.692 1.634-1.637" fill="#d4d4d4"/>
  </g>
  <g transform="matrix(.35278 0 0 -.35278 173.07 234.4)">
   <path d="m0 0c2e-3 -0.936-0.688-1.638-1.625-1.651-0.931-0.015-1.651 0.683-1.666 1.611-0.015 0.974 0.683 1.68 1.656 1.677 0.945-3e-3 1.632-0.692 1.635-1.637" fill="#d4d4d4"/>
  </g>
  <g transform="matrix(.35278 0 0 -.35278 169.74 230.87)">
   <path d="m0 0c3e-3 -0.936-0.688-1.638-1.625-1.652-0.93-0.014-1.65 0.683-1.665 1.612-0.016 0.974 0.682 1.68 1.656 1.677 0.945-3e-3 1.632-0.692 1.634-1.637" fill="#d4d4d4"/>
  </g>
  <g transform="matrix(.35278 0 0 -.35278 169.74 232.7)">
   <path d="m0 0c3e-3 -0.936-0.688-1.638-1.625-1.651-0.93-0.014-1.65 0.683-1.665 1.612-0.016 0.974 0.682 1.679 1.656 1.676 0.945-3e-3 1.632-0.692 1.634-1.637" fill="#d4d4d4"/>
  </g>
  <g transform="matrix(.35278 0 0 -.35278 171.4 230.87)">
   <path d="m0 0c3e-3 -0.936-0.687-1.638-1.624-1.652-0.931-0.014-1.651 0.683-1.666 1.612-0.015 0.974 0.683 1.68 1.656 1.677 0.945-3e-3 1.632-0.692 1.634-1.637" fill="#d4d4d4"/>
  </g>
  <g transform="matrix(.35278 0 0 -.35278 171.4 232.7)">
   <path d="m0 0c3e-3 -0.936-0.687-1.638-1.624-1.651-0.931-0.014-1.651 0.683-1.666 1.612-0.015 0.974 0.683 1.679 1.656 1.676 0.945-3e-3 1.632-0.692 1.634-1.637" fill="#d4d4d4"/>
  </g>
  <g transform="matrix(.35278 0 0 -.35278 173.07 230.87)">
   <path d="m0 0c2e-3 -0.936-0.688-1.638-1.625-1.652-0.931-0.014-1.651 0.683-1.666 1.612-0.015 0.974 0.683 1.68 1.656 1.677 0.945-3e-3 1.632-0.692 1.635-1.637" fill="#d4d4d4"/>
  </g>
  <g transform="matrix(.35278 0 0 -.35278 173.07 232.7)">
   <path d="m0 0c2e-3 -0.936-0.688-1.638-1.625-1.651-0.931-0.014-1.651 0.683-1.666 1.612-0.015 0.974 0.683 1.679 1.656 1.676 0.945-3e-3 1.632-0.692 1.635-1.637" fill="#d4d4d4"/>
  </g>
  <g transform="matrix(.35278 0 0 -.35278 174.5 225.57)">
   <path d="m0 0c2e-3 -0.936-0.688-1.638-1.625-1.652-0.93-0.014-1.651 0.684-1.665 1.612-0.016 0.974 0.682 1.68 1.656 1.677 0.945-3e-3 1.632-0.692 1.634-1.637" fill="#d4d4d4"/>
  </g>
  <g transform="matrix(.35278 0 0 -.35278 174.5 227.4)">
   <path d="m0 0c2e-3 -0.937-0.688-1.639-1.625-1.652-0.93-0.014-1.651 0.683-1.665 1.612-0.016 0.974 0.682 1.679 1.656 1.676 0.945-3e-3 1.632-0.691 1.634-1.636" fill="#d4d4d4"/>
  </g>
  <g transform="matrix(.35278 0 0 -.35278 174.5 229.23)">
   <path d="m0 0c2e-3 -0.936-0.688-1.638-1.625-1.651-0.93-0.015-1.651 0.683-1.665 1.611-0.016 0.974 0.682 1.68 1.656 1.677 0.945-3e-3 1.632-0.692 1.634-1.637" fill="#d4d4d4"/>
  </g>
  <g transform="matrix(.35278 0 0 -.35278 174.5 222.04)">
   <path d="m0 0c2e-3 -0.937-0.688-1.639-1.625-1.652-0.93-0.014-1.651 0.683-1.665 1.612-0.016 0.974 0.682 1.679 1.656 1.676 0.945-2e-3 1.632-0.691 1.634-1.636" fill="#d4d4d4"/>
  </g>
  <g transform="matrix(.35278 0 0 -.35278 174.5 223.87)">
   <path d="m0 0c2e-3 -0.936-0.688-1.638-1.625-1.651-0.93-0.015-1.651 0.683-1.665 1.611-0.016 0.974 0.682 1.68 1.656 1.677 0.945-3e-3 1.632-0.692 1.634-1.637" fill="#d4d4d4"/>
  </g>
  <g transform="matrix(.35278 0 0 -.35278 174.5 234.4)">
   <path d="m0 0c2e-3 -0.936-0.688-1.638-1.625-1.651-0.93-0.015-1.651 0.683-1.665 1.611-0.016 0.974 0.682 1.68 1.656 1.677 0.945-3e-3 1.632-0.692 1.634-1.637" fill="#d4d4d4"/>
  </g>
  <g transform="matrix(.35278 0 0 -.35278 174.5 230.87)">
   <path d="m0 0c2e-3 -0.936-0.688-1.638-1.625-1.652-0.93-0.014-1.651 0.683-1.665 1.612-0.016 0.974 0.682 1.68 1.656 1.677 0.945-3e-3 1.632-0.692 1.634-1.637" fill="#d4d4d4"/>
  </g>
  <g transform="matrix(.35278 0 0 -.35278 174.5 232.7)">
   <path d="m0 0c2e-3 -0.936-0.688-1.638-1.625-1.651-0.93-0.014-1.651 0.683-1.665 1.612-0.016 0.974 0.682 1.679 1.656 1.676 0.945-3e-3 1.632-0.692 1.634-1.637" fill="#d4d4d4"/>
  </g>
  <g transform="matrix(.35278 0 0 -.35278 175.92 225.57)">
   <path d="m0 0c3e-3 -0.936-0.688-1.638-1.624-1.652-0.931-0.014-1.651 0.684-1.666 1.612-0.016 0.974 0.682 1.68 1.656 1.677 0.945-3e-3 1.632-0.692 1.634-1.637" fill="#d4d4d4"/>
  </g>
  <g transform="matrix(.35278 0 0 -.35278 175.92 227.4)">
   <path d="m0 0c3e-3 -0.937-0.688-1.639-1.624-1.652-0.931-0.014-1.651 0.683-1.666 1.612-0.016 0.974 0.682 1.679 1.656 1.676 0.945-3e-3 1.632-0.691 1.634-1.636" fill="#d4d4d4"/>
  </g>
  <g transform="matrix(.35278 0 0 -.35278 175.92 229.23)">
   <path d="m0 0c3e-3 -0.936-0.688-1.638-1.624-1.651-0.931-0.015-1.651 0.683-1.666 1.611-0.016 0.974 0.682 1.68 1.656 1.677 0.945-3e-3 1.632-0.692 1.634-1.637" fill="#d4d4d4"/>
  </g>
  <g transform="matrix(.35278 0 0 -.35278 175.92 222.04)">
   <path d="m0 0c3e-3 -0.937-0.688-1.639-1.624-1.652-0.931-0.014-1.651 0.683-1.666 1.612-0.016 0.974 0.682 1.679 1.656 1.676 0.945-2e-3 1.632-0.691 1.634-1.636" fill="#d4d4d4"/>
  </g>
  <g transform="matrix(.35278 0 0 -.35278 175.92 223.87)">
   <path d="m0 0c3e-3 -0.936-0.688-1.638-1.624-1.651-0.931-0.015-1.651 0.683-1.666 1.611-0.016 0.974 0.682 1.68 1.656 1.677 0.945-3e-3 1.632-0.692 1.634-1.637" fill="#d4d4d4"/>
  </g>
  <g transform="matrix(.35278 0 0 -.35278 175.92 234.4)">
   <path d="m0 0c3e-3 -0.936-0.688-1.638-1.624-1.651-0.931-0.015-1.651 0.683-1.666 1.611-0.016 0.974 0.682 1.68 1.656 1.677 0.945-3e-3 1.632-0.692 1.634-1.637" fill="#d4d4d4"/>
  </g>
  <g transform="matrix(.35278 0 0 -.35278 175.92 230.87)">
   <path d="m0 0c3e-3 -0.936-0.688-1.638-1.624-1.652-0.931-0.014-1.651 0.683-1.666 1.612-0.016 0.974 0.682 1.68 1.656 1.677 0.945-3e-3 1.632-0.692 1.634-1.637" fill="#d4d4d4"/>
  </g>
  <g transform="matrix(.35278 0 0 -.35278 175.92 232.7)">
   <path d="m0 0c3e-3 -0.936-0.688-1.638-1.624-1.651-0.931-0.014-1.651 0.683-1.666 1.612-0.016 0.974 0.682 1.679 1.656 1.676 0.945-3e-3 1.632-0.692 1.634-1.637" fill="#d4d4d4"/>
  </g>
  <g transform="matrix(.35278 0 0 -.35278 177.35 225.57)">
   <path d="m0 0c2e-3 -0.936-0.688-1.638-1.625-1.652-0.931-0.014-1.651 0.684-1.666 1.612-0.015 0.974 0.683 1.68 1.656 1.677 0.946-3e-3 1.632-0.692 1.635-1.637" fill="#d4d4d4"/>
  </g>
  <g transform="matrix(.35278 0 0 -.35278 177.35 227.4)">
   <path d="m0 0c2e-3 -0.937-0.688-1.639-1.625-1.652-0.931-0.014-1.651 0.683-1.666 1.612-0.015 0.974 0.683 1.679 1.656 1.676 0.946-3e-3 1.632-0.691 1.635-1.636" fill="#d4d4d4"/>
  </g>
  <g transform="matrix(.35278 0 0 -.35278 177.35 229.23)">
   <path d="m0 0c2e-3 -0.936-0.688-1.638-1.625-1.651-0.931-0.015-1.651 0.683-1.666 1.611-0.015 0.974 0.683 1.68 1.656 1.677 0.946-3e-3 1.632-0.692 1.635-1.637" fill="#d4d4d4"/>
  </g>
  <g transform="matrix(.35278 0 0 -.35278 177.35 222.04)">
   <path d="m0 0c2e-3 -0.937-0.688-1.639-1.625-1.652-0.931-0.014-1.651 0.683-1.666 1.612-0.015 0.974 0.683 1.679 1.656 1.676 0.946-2e-3 1.632-0.691 1.635-1.636" fill="#d4d4d4"/>
  </g>
  <g transform="matrix(.35278 0 0 -.35278 177.35 223.87)">
   <path d="m0 0c2e-3 -0.936-0.688-1.638-1.625-1.651-0.931-0.015-1.651 0.683-1.666 1.611-0.015 0.974 0.683 1.68 1.656 1.677 0.946-3e-3 1.632-0.692 1.635-1.637" fill="#d4d4d4"/>
  </g>
  <g transform="matrix(.35278 0 0 -.35278 177.35 234.4)">
   <path d="m0 0c2e-3 -0.936-0.688-1.638-1.625-1.651-0.931-0.015-1.651 0.683-1.666 1.611-0.015 0.974 0.683 1.68 1.656 1.677 0.946-3e-3 1.632-0.692 1.635-1.637" fill="#d4d4d4"/>
  </g>
  <g transform="matrix(.35278 0 0 -.35278 177.35 230.87)">
   <path d="m0 0c2e-3 -0.936-0.688-1.638-1.625-1.652-0.931-0.014-1.651 0.683-1.666 1.612-0.015 0.974 0.683 1.68 1.656 1.677 0.946-3e-3 1.632-0.692 1.635-1.637" fill="#d4d4d4"/>
  </g>
  <g transform="matrix(.35278 0 0 -.35278 177.35 232.7)">
   <path d="m0 0c2e-3 -0.936-0.688-1.638-1.625-1.651-0.931-0.014-1.651 0.683-1.666 1.612-0.015 0.974 0.683 1.679 1.656 1.676 0.946-3e-3 1.632-0.692 1.635-1.637" fill="#d4d4d4"/>
  </g>
  <g transform="matrix(.35278 0 0 -.35278 178.78 225.57)">
   <path d="m0 0c2e-3 -0.936-0.688-1.638-1.625-1.652-0.93-0.014-1.65 0.684-1.665 1.612-0.016 0.974 0.682 1.68 1.656 1.677 0.945-3e-3 1.632-0.692 1.634-1.637" fill="#d4d4d4"/>
  </g>
  <g transform="matrix(.35278 0 0 -.35278 178.78 227.4)">
   <path d="m0 0c2e-3 -0.937-0.688-1.639-1.625-1.652-0.93-0.014-1.65 0.683-1.665 1.612-0.016 0.974 0.682 1.679 1.656 1.676 0.945-3e-3 1.632-0.691 1.634-1.636" fill="#d4d4d4"/>
  </g>
  <g transform="matrix(.35278 0 0 -.35278 178.78 229.23)">
   <path d="m0 0c2e-3 -0.936-0.688-1.638-1.625-1.651-0.93-0.015-1.65 0.683-1.665 1.611-0.016 0.974 0.682 1.68 1.656 1.677 0.945-3e-3 1.632-0.692 1.634-1.637" fill="#d4d4d4"/>
  </g>
  <g transform="matrix(.35278 0 0 -.35278 178.78 222.04)">
   <path d="m0 0c2e-3 -0.937-0.688-1.639-1.625-1.652-0.93-0.014-1.65 0.683-1.665 1.612-0.016 0.974 0.682 1.679 1.656 1.676 0.945-2e-3 1.632-0.691 1.634-1.636" fill="#d4d4d4"/>
  </g>
  <g transform="matrix(.35278 0 0 -.35278 178.78 223.87)">
   <path d="m0 0c2e-3 -0.936-0.688-1.638-1.625-1.651-0.93-0.015-1.65 0.683-1.665 1.611-0.016 0.974 0.682 1.68 1.656 1.677 0.945-3e-3 1.632-0.692 1.634-1.637" fill="#d4d4d4"/>
  </g>
  <g transform="matrix(.35278 0 0 -.35278 178.78 234.4)">
   <path d="m0 0c2e-3 -0.936-0.688-1.638-1.625-1.651-0.93-0.015-1.65 0.683-1.665 1.611-0.016 0.974 0.682 1.68 1.656 1.677 0.945-3e-3 1.632-0.692 1.634-1.637" fill="#d4d4d4"/>
  </g>
  <g transform="matrix(.35278 0 0 -.35278 178.78 230.87)">
   <path d="m0 0c2e-3 -0.936-0.688-1.638-1.625-1.652-0.93-0.014-1.65 0.683-1.665 1.612-0.016 0.974 0.682 1.68 1.656 1.677 0.945-3e-3 1.632-0.692 1.634-1.637" fill="#d4d4d4"/>
  </g>
  <g transform="matrix(.35278 0 0 -.35278 178.78 232.7)">
   <path d="m0 0c2e-3 -0.936-0.688-1.638-1.625-1.651-0.93-0.014-1.65 0.683-1.665 1.612-0.016 0.974 0.682 1.679 1.656 1.676 0.945-3e-3 1.632-0.692 1.634-1.637" fill="#d4d4d4"/>
  </g>
 </g>
</svg>
