<?xml version="1.0" encoding="UTF-8" standalone="no"?>
<svg
   xmlns:dc="http://purl.org/dc/elements/1.1/"
   xmlns:cc="http://creativecommons.org/ns#"
   xmlns:rdf="http://www.w3.org/1999/02/22-rdf-syntax-ns#"
   xmlns:svg="http://www.w3.org/2000/svg"
   xmlns="http://www.w3.org/2000/svg"
   xmlns:sodipodi="http://sodipodi.sourceforge.net/DTD/sodipodi-0.dtd"
   xmlns:inkscape="http://www.inkscape.org/namespaces/inkscape"
   width="30.316044mm"
   height="26.628309mm"
   viewBox="0 0 30.316045 26.62831"
   version="1.1"
   id="svg8"
   inkscape:version="1.0.1 (3bc2e813f5, 2020-09-07)"
   sodipodi:docname="density2.svg">
  <defs
     id="defs2">
    <mask
       maskUnits="userSpaceOnUse"
       id="mask206">
      <g
         id="g210"
         transform="translate(-13.676317,81.656191)">
        <path
           d="m 0,0 c 5.654,0.091 10.093,-4.149 10.184,-9.729 0.09,-5.503 -4.325,-10.112 -9.805,-10.236 -5.445,-0.123 -10.073,4.363 -10.17,9.858 C -9.89,-4.485 -5.632,-0.091 0,0"
           style="fill:#f8d858;fill-opacity:1;fill-rule:nonzero;stroke:none"
           id="path208" />
      </g>
    </mask>
  </defs>
  <sodipodi:namedview
     id="base"
     pagecolor="#ffffff"
     bordercolor="#666666"
     borderopacity="1.0"
     inkscape:pageopacity="0.0"
     inkscape:pageshadow="2"
     inkscape:zoom="2.8"
     inkscape:cx="-25.250768"
     inkscape:cy="58.129392"
     inkscape:document-units="mm"
     inkscape:current-layer="layer1"
     inkscape:document-rotation="0"
     showgrid="false"
     inkscape:window-width="1920"
     inkscape:window-height="1001"
     inkscape:window-x="-9"
     inkscape:window-y="-9"
     inkscape:window-maximized="1"
     fit-margin-top="0"
     fit-margin-left="0"
     fit-margin-right="0"
     fit-margin-bottom="0" />
  <metadata
     id="metadata5">
    <rdf:RDF>
      <cc:Work
         rdf:about="">
        <dc:format>image/svg+xml</dc:format>
        <dc:type
           rdf:resource="http://purl.org/dc/dcmitype/StillImage" />
        <dc:title></dc:title>
      </cc:Work>
    </rdf:RDF>
  </metadata>
  <g
     inkscape:label="Layer 1"
     inkscape:groupmode="layer"
     id="layer1"
     transform="translate(-132.5054,-225.6984)">
    <g
       id="g2360"
       transform="matrix(0.35277777,0,0,-0.35277777,136.20772,238.79641)">
      <path
         d="m 0,0 c 0.007,-2.985 -2.195,-5.225 -5.182,-5.269 -2.966,-0.044 -5.265,2.181 -5.312,5.141 -0.048,3.106 2.176,5.356 5.283,5.347 C -2.199,5.21 -0.008,3.015 0,0"
         style="fill:#d4d4d4;fill-opacity:1;fill-rule:nonzero;stroke:none"
         id="path2362" />
    </g>
    <g
       id="g2364"
       transform="matrix(0.35277777,0,0,-0.35277777,136.20772,244.63206)">
      <path
         d="m 0,0 c 0.007,-2.984 -2.195,-5.224 -5.182,-5.269 -2.966,-0.044 -5.265,2.181 -5.312,5.142 -0.048,3.105 2.176,5.356 5.283,5.346 C -2.199,5.21 -0.008,3.015 0,0"
         style="fill:#d4d4d4;fill-opacity:1;fill-rule:nonzero;stroke:none"
         id="path2366" />
    </g>
    <g
       id="g2368"
       transform="matrix(0.35277777,0,0,-0.35277777,136.20772,250.46771)">
      <path
         d="m 0,0 c 0.007,-2.984 -2.195,-5.224 -5.182,-5.269 -2.966,-0.043 -5.265,2.181 -5.312,5.142 -0.048,3.105 2.176,5.356 5.283,5.346 C -2.199,5.21 -0.008,3.015 0,0"
         style="fill:#d4d4d4;fill-opacity:1;fill-rule:nonzero;stroke:none"
         id="path2370" />
    </g>
    <g
       id="g2372"
       transform="matrix(0.35277777,0,0,-0.35277777,141.52971,238.79641)">
      <path
         d="m 0,0 c 0.008,-2.985 -2.194,-5.225 -5.182,-5.269 -2.966,-0.044 -5.265,2.181 -5.311,5.141 -0.048,3.106 2.176,5.356 5.282,5.347 C -2.198,5.21 -0.007,3.015 0,0"
         style="fill:#d4d4d4;fill-opacity:1;fill-rule:nonzero;stroke:none"
         id="path2374" />
    </g>
    <g
       id="g2376"
       transform="matrix(0.35277777,0,0,-0.35277777,141.52971,244.63206)">
      <path
         d="m 0,0 c 0.008,-2.984 -2.194,-5.224 -5.182,-5.269 -2.966,-0.044 -5.265,2.181 -5.311,5.142 -0.048,3.105 2.176,5.356 5.282,5.346 C -2.198,5.21 -0.007,3.015 0,0"
         style="fill:#d4d4d4;fill-opacity:1;fill-rule:nonzero;stroke:none"
         id="path2378" />
    </g>
    <g
       id="g2380"
       transform="matrix(0.35277777,0,0,-0.35277777,141.52971,250.46771)">
      <path
         d="m 0,0 c 0.008,-2.984 -2.194,-5.224 -5.182,-5.269 -2.966,-0.043 -5.265,2.181 -5.311,5.142 -0.048,3.105 2.176,5.356 5.282,5.346 C -2.198,5.21 -0.007,3.015 0,0"
         style="fill:#d4d4d4;fill-opacity:1;fill-rule:nonzero;stroke:none"
         id="path2382" />
    </g>
    <g
       id="g2384"
       transform="matrix(0.35277777,0,0,-0.35277777,146.85204,238.79641)">
      <path
         d="m 0,0 c 0.008,-2.985 -2.195,-5.225 -5.182,-5.269 -2.966,-0.044 -5.265,2.181 -5.311,5.141 -0.049,3.106 2.175,5.356 5.282,5.347 C -2.199,5.21 -0.007,3.015 0,0"
         style="fill:#d4d4d4;fill-opacity:1;fill-rule:nonzero;stroke:none"
         id="path2386" />
    </g>
    <g
       id="g2388"
       transform="matrix(0.35277777,0,0,-0.35277777,146.85204,244.63206)">
      <path
         d="m 0,0 c 0.008,-2.984 -2.195,-5.224 -5.182,-5.269 -2.966,-0.044 -5.265,2.181 -5.311,5.142 -0.049,3.105 2.175,5.356 5.282,5.346 C -2.199,5.21 -0.007,3.015 0,0"
         style="fill:#d4d4d4;fill-opacity:1;fill-rule:nonzero;stroke:none"
         id="path2390" />
    </g>
    <g
       id="g2392"
       transform="matrix(0.35277777,0,0,-0.35277777,146.85204,250.46771)">
      <path
         d="m 0,0 c 0.008,-2.984 -2.195,-5.224 -5.182,-5.269 -2.966,-0.043 -5.265,2.181 -5.311,5.142 -0.049,3.105 2.175,5.356 5.282,5.346 C -2.199,5.21 -0.007,3.015 0,0"
         style="fill:#d4d4d4;fill-opacity:1;fill-rule:nonzero;stroke:none"
         id="path2394" />
    </g>
    <g
       id="g2396"
       transform="matrix(0.35277777,0,0,-0.35277777,136.20772,227.53956)">
      <path
         d="m 0,0 c 0.007,-2.985 -2.195,-5.225 -5.182,-5.269 -2.966,-0.044 -5.265,2.181 -5.312,5.141 -0.048,3.106 2.176,5.356 5.283,5.347 C -2.199,5.21 -0.008,3.015 0,0"
         style="fill:#d4d4d4;fill-opacity:1;fill-rule:nonzero;stroke:none"
         id="path2398" />
    </g>
    <g
       id="g2400"
       transform="matrix(0.35277777,0,0,-0.35277777,136.20772,233.37521)">
      <path
         d="m 0,0 c 0.007,-2.984 -2.195,-5.224 -5.182,-5.269 -2.966,-0.044 -5.265,2.181 -5.312,5.142 -0.048,3.105 2.176,5.356 5.283,5.346 C -2.199,5.21 -0.008,3.015 0,0"
         style="fill:#d4d4d4;fill-opacity:1;fill-rule:nonzero;stroke:none"
         id="path2402" />
    </g>
    <g
       id="g2404"
       transform="matrix(0.35277777,0,0,-0.35277777,141.52971,227.53956)">
      <path
         d="m 0,0 c 0.008,-2.985 -2.194,-5.225 -5.182,-5.269 -2.966,-0.044 -5.265,2.181 -5.311,5.141 -0.048,3.106 2.176,5.356 5.282,5.347 C -2.198,5.21 -0.007,3.015 0,0"
         style="fill:#d4d4d4;fill-opacity:1;fill-rule:nonzero;stroke:none"
         id="path2406" />
    </g>
    <g
       id="g2408"
       transform="matrix(0.35277777,0,0,-0.35277777,141.52971,233.37521)">
      <path
         d="m 0,0 c 0.008,-2.984 -2.194,-5.224 -5.182,-5.269 -2.966,-0.044 -5.265,2.181 -5.311,5.142 -0.048,3.105 2.176,5.356 5.282,5.346 C -2.198,5.21 -0.007,3.015 0,0"
         style="fill:#d4d4d4;fill-opacity:1;fill-rule:nonzero;stroke:none"
         id="path2410" />
    </g>
    <g
       id="g2412"
       transform="matrix(0.35277777,0,0,-0.35277777,146.85204,227.53956)">
      <path
         d="m 0,0 c 0.008,-2.985 -2.195,-5.225 -5.182,-5.269 -2.966,-0.044 -5.265,2.181 -5.311,5.141 -0.049,3.106 2.175,5.356 5.282,5.347 C -2.199,5.21 -0.007,3.015 0,0"
         style="fill:#d4d4d4;fill-opacity:1;fill-rule:nonzero;stroke:none"
         id="path2414" />
    </g>
    <g
       id="g2416"
       transform="matrix(0.35277777,0,0,-0.35277777,146.85204,233.37521)">
      <path
         d="m 0,0 c 0.008,-2.984 -2.195,-5.224 -5.182,-5.269 -2.966,-0.044 -5.265,2.181 -5.311,5.142 -0.049,3.105 2.175,5.356 5.282,5.346 C -2.199,5.21 -0.007,3.015 0,0"
         style="fill:#d4d4d4;fill-opacity:1;fill-rule:nonzero;stroke:none"
         id="path2418" />
    </g>
    <g
       id="g2420"
       transform="matrix(0.35277777,0,0,-0.35277777,152.17712,238.79641)">
      <path
         d="m 0,0 c 0.007,-2.985 -2.195,-5.225 -5.182,-5.269 -2.967,-0.044 -5.265,2.181 -5.312,5.141 -0.048,3.106 2.176,5.356 5.283,5.347 C -2.199,5.21 -0.008,3.015 0,0"
         style="fill:#d4d4d4;fill-opacity:1;fill-rule:nonzero;stroke:none"
         id="path2422" />
    </g>
    <g
       id="g2424"
       transform="matrix(0.35277777,0,0,-0.35277777,152.17712,244.63206)">
      <path
         d="m 0,0 c 0.007,-2.984 -2.195,-5.224 -5.182,-5.269 -2.967,-0.044 -5.265,2.181 -5.312,5.142 -0.048,3.105 2.176,5.356 5.283,5.346 C -2.199,5.21 -0.008,3.015 0,0"
         style="fill:#d4d4d4;fill-opacity:1;fill-rule:nonzero;stroke:none"
         id="path2426" />
    </g>
    <g
       id="g2428"
       transform="matrix(0.35277777,0,0,-0.35277777,152.17712,250.46771)">
      <path
         d="m 0,0 c 0.007,-2.984 -2.195,-5.224 -5.182,-5.269 -2.967,-0.043 -5.265,2.181 -5.312,5.142 -0.048,3.105 2.176,5.356 5.283,5.346 C -2.199,5.21 -0.008,3.015 0,0"
         style="fill:#d4d4d4;fill-opacity:1;fill-rule:nonzero;stroke:none"
         id="path2430" />
    </g>
    <g
       id="g2432"
       transform="matrix(0.35277777,0,0,-0.35277777,157.49911,238.79641)">
      <path
         d="m 0,0 c 0.008,-2.985 -2.194,-5.225 -5.182,-5.269 -2.966,-0.044 -5.265,2.181 -5.311,5.141 -0.049,3.106 2.176,5.356 5.282,5.347 C -2.199,5.21 -0.007,3.015 0,0"
         style="fill:#d4d4d4;fill-opacity:1;fill-rule:nonzero;stroke:none"
         id="path2434" />
    </g>
    <g
       id="g2436"
       transform="matrix(0.35277777,0,0,-0.35277777,157.49911,244.63206)">
      <path
         d="m 0,0 c 0.008,-2.984 -2.194,-5.224 -5.182,-5.269 -2.966,-0.044 -5.265,2.181 -5.311,5.142 -0.049,3.105 2.176,5.356 5.282,5.346 C -2.199,5.21 -0.007,3.015 0,0"
         style="fill:#d4d4d4;fill-opacity:1;fill-rule:nonzero;stroke:none"
         id="path2438" />
    </g>
    <g
       id="g2440"
       transform="matrix(0.35277777,0,0,-0.35277777,157.49911,250.46771)">
      <path
         d="m 0,0 c 0.008,-2.984 -2.194,-5.224 -5.182,-5.269 -2.966,-0.043 -5.265,2.181 -5.311,5.142 -0.049,3.105 2.176,5.356 5.282,5.346 C -2.199,5.21 -0.007,3.015 0,0"
         style="fill:#d4d4d4;fill-opacity:1;fill-rule:nonzero;stroke:none"
         id="path2442" />
    </g>
    <g
       id="g2444"
       transform="matrix(0.35277777,0,0,-0.35277777,162.82144,238.79641)">
      <path
         d="m 0,0 c 0.007,-2.985 -2.195,-5.225 -5.182,-5.269 -2.966,-0.044 -5.265,2.181 -5.311,5.141 -0.049,3.106 2.175,5.356 5.282,5.347 C -2.199,5.21 -0.007,3.015 0,0"
         style="fill:#d4d4d4;fill-opacity:1;fill-rule:nonzero;stroke:none"
         id="path2446" />
    </g>
    <g
       id="g2448"
       transform="matrix(0.35277777,0,0,-0.35277777,162.82144,244.63206)">
      <path
         d="m 0,0 c 0.007,-2.984 -2.195,-5.224 -5.182,-5.269 -2.966,-0.044 -5.265,2.181 -5.311,5.142 -0.049,3.105 2.175,5.356 5.282,5.346 C -2.199,5.21 -0.007,3.015 0,0"
         style="fill:#d4d4d4;fill-opacity:1;fill-rule:nonzero;stroke:none"
         id="path2450" />
    </g>
    <g
       id="g2452"
       transform="matrix(0.35277777,0,0,-0.35277777,162.82144,250.46771)">
      <path
         d="m 0,0 c 0.007,-2.984 -2.195,-5.224 -5.182,-5.269 -2.966,-0.043 -5.265,2.181 -5.311,5.142 -0.049,3.105 2.175,5.356 5.282,5.346 C -2.199,5.21 -0.007,3.015 0,0"
         style="fill:#d4d4d4;fill-opacity:1;fill-rule:nonzero;stroke:none"
         id="path2454" />
    </g>
    <g
       id="g2456"
       transform="matrix(0.35277777,0,0,-0.35277777,152.17712,227.53956)">
      <path
         d="m 0,0 c 0.007,-2.985 -2.195,-5.225 -5.182,-5.269 -2.967,-0.044 -5.265,2.181 -5.312,5.141 -0.048,3.106 2.176,5.356 5.283,5.347 C -2.199,5.21 -0.008,3.015 0,0"
         style="fill:#d4d4d4;fill-opacity:1;fill-rule:nonzero;stroke:none"
         id="path2458" />
    </g>
    <g
       id="g2460"
       transform="matrix(0.35277777,0,0,-0.35277777,152.17712,233.37521)">
      <path
         d="m 0,0 c 0.007,-2.984 -2.195,-5.224 -5.182,-5.269 -2.967,-0.044 -5.265,2.181 -5.312,5.142 -0.048,3.105 2.176,5.356 5.283,5.346 C -2.199,5.21 -0.008,3.015 0,0"
         style="fill:#d4d4d4;fill-opacity:1;fill-rule:nonzero;stroke:none"
         id="path2462" />
    </g>
    <g
       id="g2464"
       transform="matrix(0.35277777,0,0,-0.35277777,157.49911,227.53956)">
      <path
         d="m 0,0 c 0.008,-2.985 -2.194,-5.225 -5.182,-5.269 -2.966,-0.044 -5.265,2.181 -5.311,5.141 -0.049,3.106 2.176,5.356 5.282,5.347 C -2.199,5.21 -0.007,3.015 0,0"
         style="fill:#d4d4d4;fill-opacity:1;fill-rule:nonzero;stroke:none"
         id="path2466" />
    </g>
    <g
       id="g2468"
       transform="matrix(0.35277777,0,0,-0.35277777,157.49911,233.37521)">
      <path
         d="m 0,0 c 0.008,-2.984 -2.194,-5.224 -5.182,-5.269 -2.966,-0.044 -5.265,2.181 -5.311,5.142 -0.049,3.105 2.176,5.356 5.282,5.346 C -2.199,5.21 -0.007,3.015 0,0"
         style="fill:#d4d4d4;fill-opacity:1;fill-rule:nonzero;stroke:none"
         id="path2470" />
    </g>
    <g
       id="g2472"
       transform="matrix(0.35277777,0,0,-0.35277777,162.82144,227.53956)">
      <path
         d="m 0,0 c 0.007,-2.985 -2.195,-5.225 -5.182,-5.269 -2.966,-0.044 -5.265,2.181 -5.311,5.141 -0.049,3.106 2.175,5.356 5.282,5.347 C -2.199,5.21 -0.007,3.015 0,0"
         style="fill:#d4d4d4;fill-opacity:1;fill-rule:nonzero;stroke:none"
         id="path2474" />
    </g>
    <g
       id="g2476"
       transform="matrix(0.35277777,0,0,-0.35277777,162.82144,233.37521)">
      <path
         d="m 0,0 c 0.007,-2.984 -2.195,-5.224 -5.182,-5.269 -2.966,-0.044 -5.265,2.181 -5.311,5.142 -0.049,3.105 2.175,5.356 5.282,5.346 C -2.199,5.21 -0.007,3.015 0,0"
         style="fill:#d4d4d4;fill-opacity:1;fill-rule:nonzero;stroke:none"
         id="path2478" />
    </g>
  </g>
</svg>
