<?xml version="1.0" encoding="UTF-8" standalone="no"?>
<svg
   xmlns:dc="http://purl.org/dc/elements/1.1/"
   xmlns:cc="http://creativecommons.org/ns#"
   xmlns:rdf="http://www.w3.org/1999/02/22-rdf-syntax-ns#"
   xmlns:svg="http://www.w3.org/2000/svg"
   xmlns="http://www.w3.org/2000/svg"
   xmlns:sodipodi="http://sodipodi.sourceforge.net/DTD/sodipodi-0.dtd"
   xmlns:inkscape="http://www.inkscape.org/namespaces/inkscape"
   width="31.130959mm"
   height="27.68273mm"
   viewBox="0 0 31.13096 27.682731"
   version="1.1"
   id="svg8"
   inkscape:version="1.0.1 (3bc2e813f5, 2020-09-07)"
   sodipodi:docname="density3.svg">
  <defs
     id="defs2">
    <mask
       maskUnits="userSpaceOnUse"
       id="mask206">
      <g
         id="g210"
         transform="translate(-13.676317,81.656191)">
        <path
           d="m 0,0 c 5.654,0.091 10.093,-4.149 10.184,-9.729 0.09,-5.503 -4.325,-10.112 -9.805,-10.236 -5.445,-0.123 -10.073,4.363 -10.17,9.858 C -9.89,-4.485 -5.632,-0.091 0,0"
           style="fill:#f8d858;fill-opacity:1;fill-rule:nonzero;stroke:none"
           id="path208" />
      </g>
    </mask>
  </defs>
  <sodipodi:namedview
     id="base"
     pagecolor="#ffffff"
     bordercolor="#666666"
     borderopacity="1.0"
     inkscape:pageopacity="0.0"
     inkscape:pageshadow="2"
     inkscape:zoom="2.8"
     inkscape:cx="-83.132279"
     inkscape:cy="74.149061"
     inkscape:document-units="mm"
     inkscape:current-layer="layer1"
     inkscape:document-rotation="0"
     showgrid="false"
     inkscape:window-width="1920"
     inkscape:window-height="1001"
     inkscape:window-x="-9"
     inkscape:window-y="-9"
     inkscape:window-maximized="1"
     fit-margin-top="0"
     fit-margin-left="0"
     fit-margin-right="0"
     fit-margin-bottom="0" />
  <metadata
     id="metadata5">
    <rdf:RDF>
      <cc:Work
         rdf:about="">
        <dc:format>image/svg+xml</dc:format>
        <dc:type
           rdf:resource="http://purl.org/dc/dcmitype/StillImage" />
        <dc:title></dc:title>
      </cc:Work>
    </rdf:RDF>
  </metadata>
  <g
     inkscape:label="Layer 1"
     inkscape:groupmode="layer"
     id="layer1"
     transform="translate(-160.93518,-239.36431)">
    <g
       id="g2480"
       transform="matrix(0.35277777,0,0,-0.35277777,163.31132,247.77221)">
      <path
         d="m 0,0 c 0.005,-1.915 -1.409,-3.353 -3.326,-3.382 -1.904,-0.028 -3.38,1.401 -3.409,3.301 -0.032,1.993 1.396,3.437 3.39,3.432 C -1.411,3.345 -0.005,1.936 0,0"
         style="fill:#d4d4d4;fill-opacity:1;fill-rule:nonzero;stroke:none"
         id="path2482" />
    </g>
    <g
       id="g2484"
       transform="matrix(0.35277777,0,0,-0.35277777,163.31132,251.51804)">
      <path
         d="m 0,0 c 0.005,-1.915 -1.409,-3.353 -3.326,-3.382 -1.904,-0.028 -3.38,1.401 -3.409,3.301 -0.032,1.993 1.396,3.437 3.39,3.432 C -1.411,3.345 -0.005,1.936 0,0"
         style="fill:#d4d4d4;fill-opacity:1;fill-rule:nonzero;stroke:none"
         id="path2486" />
    </g>
    <g
       id="g2488"
       transform="matrix(0.35277777,0,0,-0.35277777,163.31132,255.2639)">
      <path
         d="m 0,0 c 0.005,-1.915 -1.409,-3.353 -3.326,-3.382 -1.904,-0.028 -3.38,1.401 -3.409,3.301 -0.032,1.993 1.396,3.437 3.39,3.432 C -1.411,3.345 -0.005,1.936 0,0"
         style="fill:#d4d4d4;fill-opacity:1;fill-rule:nonzero;stroke:none"
         id="path2490" />
    </g>
    <g
       id="g2492"
       transform="matrix(0.35277777,0,0,-0.35277777,166.72784,247.77221)">
      <path
         d="m 0,0 c 0.004,-1.915 -1.409,-3.353 -3.326,-3.382 -1.904,-0.028 -3.38,1.401 -3.41,3.301 -0.032,1.993 1.396,3.437 3.39,3.432 C -1.412,3.345 -0.005,1.936 0,0"
         style="fill:#d4d4d4;fill-opacity:1;fill-rule:nonzero;stroke:none"
         id="path2494" />
    </g>
    <g
       id="g2496"
       transform="matrix(0.35277777,0,0,-0.35277777,166.72784,251.51804)">
      <path
         d="m 0,0 c 0.004,-1.915 -1.409,-3.353 -3.326,-3.382 -1.904,-0.028 -3.38,1.401 -3.41,3.301 -0.032,1.993 1.396,3.437 3.39,3.432 C -1.412,3.345 -0.005,1.936 0,0"
         style="fill:#d4d4d4;fill-opacity:1;fill-rule:nonzero;stroke:none"
         id="path2498" />
    </g>
    <g
       id="g2500"
       transform="matrix(0.35277777,0,0,-0.35277777,166.72784,255.2639)">
      <path
         d="m 0,0 c 0.004,-1.915 -1.409,-3.353 -3.326,-3.382 -1.904,-0.028 -3.38,1.401 -3.41,3.301 -0.032,1.993 1.396,3.437 3.39,3.432 C -1.412,3.345 -0.005,1.936 0,0"
         style="fill:#d4d4d4;fill-opacity:1;fill-rule:nonzero;stroke:none"
         id="path2502" />
    </g>
    <g
       id="g2504"
       transform="matrix(0.35277777,0,0,-0.35277777,170.14398,247.77221)">
      <path
         d="m 0,0 c 0.005,-1.915 -1.409,-3.353 -3.326,-3.382 -1.904,-0.028 -3.38,1.401 -3.409,3.301 -0.032,1.993 1.396,3.437 3.39,3.432 C -1.411,3.345 -0.005,1.936 0,0"
         style="fill:#d4d4d4;fill-opacity:1;fill-rule:nonzero;stroke:none"
         id="path2506" />
    </g>
    <g
       id="g2508"
       transform="matrix(0.35277777,0,0,-0.35277777,170.14398,251.51804)">
      <path
         d="m 0,0 c 0.005,-1.915 -1.409,-3.353 -3.326,-3.382 -1.904,-0.028 -3.38,1.401 -3.409,3.301 -0.032,1.993 1.396,3.437 3.39,3.432 C -1.411,3.345 -0.005,1.936 0,0"
         style="fill:#d4d4d4;fill-opacity:1;fill-rule:nonzero;stroke:none"
         id="path2510" />
    </g>
    <g
       id="g2512"
       transform="matrix(0.35277777,0,0,-0.35277777,170.14398,255.2639)">
      <path
         d="m 0,0 c 0.005,-1.915 -1.409,-3.353 -3.326,-3.382 -1.904,-0.028 -3.38,1.401 -3.409,3.301 -0.032,1.993 1.396,3.437 3.39,3.432 C -1.411,3.345 -0.005,1.936 0,0"
         style="fill:#d4d4d4;fill-opacity:1;fill-rule:nonzero;stroke:none"
         id="path2514" />
    </g>
    <g
       id="g2516"
       transform="matrix(0.35277777,0,0,-0.35277777,163.31132,240.54647)">
      <path
         d="m 0,0 c 0.005,-1.915 -1.409,-3.353 -3.326,-3.382 -1.904,-0.028 -3.38,1.401 -3.409,3.301 -0.032,1.993 1.396,3.437 3.39,3.432 C -1.411,3.345 -0.005,1.936 0,0"
         style="fill:#d4d4d4;fill-opacity:1;fill-rule:nonzero;stroke:none"
         id="path2518" />
    </g>
    <g
       id="g2520"
       transform="matrix(0.35277777,0,0,-0.35277777,163.31132,244.2923)">
      <path
         d="m 0,0 c 0.005,-1.915 -1.409,-3.353 -3.326,-3.382 -1.904,-0.028 -3.38,1.401 -3.409,3.301 -0.032,1.993 1.396,3.437 3.39,3.432 C -1.411,3.345 -0.005,1.936 0,0"
         style="fill:#d4d4d4;fill-opacity:1;fill-rule:nonzero;stroke:none"
         id="path2522" />
    </g>
    <g
       id="g2524"
       transform="matrix(0.35277777,0,0,-0.35277777,166.72784,240.54647)">
      <path
         d="m 0,0 c 0.004,-1.915 -1.409,-3.353 -3.326,-3.382 -1.904,-0.028 -3.38,1.401 -3.41,3.301 -0.032,1.993 1.396,3.437 3.39,3.432 C -1.412,3.345 -0.005,1.936 0,0"
         style="fill:#d4d4d4;fill-opacity:1;fill-rule:nonzero;stroke:none"
         id="path2526" />
    </g>
    <g
       id="g2528"
       transform="matrix(0.35277777,0,0,-0.35277777,166.72784,244.2923)">
      <path
         d="m 0,0 c 0.004,-1.915 -1.409,-3.353 -3.326,-3.382 -1.904,-0.028 -3.38,1.401 -3.41,3.301 -0.032,1.993 1.396,3.437 3.39,3.432 C -1.412,3.345 -0.005,1.936 0,0"
         style="fill:#d4d4d4;fill-opacity:1;fill-rule:nonzero;stroke:none"
         id="path2530" />
    </g>
    <g
       id="g2532"
       transform="matrix(0.35277777,0,0,-0.35277777,170.14398,240.54647)">
      <path
         d="m 0,0 c 0.005,-1.915 -1.409,-3.353 -3.326,-3.382 -1.904,-0.028 -3.38,1.401 -3.409,3.301 -0.032,1.993 1.396,3.437 3.39,3.432 C -1.411,3.345 -0.005,1.936 0,0"
         style="fill:#d4d4d4;fill-opacity:1;fill-rule:nonzero;stroke:none"
         id="path2534" />
    </g>
    <g
       id="g2536"
       transform="matrix(0.35277777,0,0,-0.35277777,170.14398,244.2923)">
      <path
         d="m 0,0 c 0.005,-1.915 -1.409,-3.353 -3.326,-3.382 -1.904,-0.028 -3.38,1.401 -3.409,3.301 -0.032,1.993 1.396,3.437 3.39,3.432 C -1.411,3.345 -0.005,1.936 0,0"
         style="fill:#d4d4d4;fill-opacity:1;fill-rule:nonzero;stroke:none"
         id="path2538" />
    </g>
    <g
       id="g2540"
       transform="matrix(0.35277777,0,0,-0.35277777,173.56221,247.77221)">
      <path
         d="m 0,0 c 0.004,-1.915 -1.409,-3.353 -3.326,-3.382 -1.905,-0.028 -3.38,1.401 -3.41,3.301 -0.032,1.993 1.396,3.437 3.39,3.432 C -1.412,3.345 -0.005,1.936 0,0"
         style="fill:#d4d4d4;fill-opacity:1;fill-rule:nonzero;stroke:none"
         id="path2542" />
    </g>
    <g
       id="g2544"
       transform="matrix(0.35277777,0,0,-0.35277777,173.56221,251.51804)">
      <path
         d="m 0,0 c 0.004,-1.915 -1.409,-3.353 -3.326,-3.382 -1.905,-0.028 -3.38,1.401 -3.41,3.301 -0.032,1.993 1.396,3.437 3.39,3.432 C -1.412,3.345 -0.005,1.936 0,0"
         style="fill:#d4d4d4;fill-opacity:1;fill-rule:nonzero;stroke:none"
         id="path2546" />
    </g>
    <g
       id="g2548"
       transform="matrix(0.35277777,0,0,-0.35277777,173.56221,255.2639)">
      <path
         d="m 0,0 c 0.004,-1.915 -1.409,-3.353 -3.326,-3.382 -1.905,-0.028 -3.38,1.401 -3.41,3.301 -0.032,1.993 1.396,3.437 3.39,3.432 C -1.412,3.345 -0.005,1.936 0,0"
         style="fill:#d4d4d4;fill-opacity:1;fill-rule:nonzero;stroke:none"
         id="path2550" />
    </g>
    <g
       id="g2552"
       transform="matrix(0.35277777,0,0,-0.35277777,176.97838,247.77221)">
      <path
         d="m 0,0 c 0.005,-1.915 -1.409,-3.353 -3.326,-3.382 -1.904,-0.028 -3.38,1.401 -3.409,3.301 -0.032,1.993 1.396,3.437 3.39,3.432 C -1.411,3.345 -0.005,1.936 0,0"
         style="fill:#d4d4d4;fill-opacity:1;fill-rule:nonzero;stroke:none"
         id="path2554" />
    </g>
    <g
       id="g2556"
       transform="matrix(0.35277777,0,0,-0.35277777,176.97838,251.51804)">
      <path
         d="m 0,0 c 0.005,-1.915 -1.409,-3.353 -3.326,-3.382 -1.904,-0.028 -3.38,1.401 -3.409,3.301 -0.032,1.993 1.396,3.437 3.39,3.432 C -1.411,3.345 -0.005,1.936 0,0"
         style="fill:#d4d4d4;fill-opacity:1;fill-rule:nonzero;stroke:none"
         id="path2558" />
    </g>
    <g
       id="g2560"
       transform="matrix(0.35277777,0,0,-0.35277777,176.97838,255.2639)">
      <path
         d="m 0,0 c 0.005,-1.915 -1.409,-3.353 -3.326,-3.382 -1.904,-0.028 -3.38,1.401 -3.409,3.301 -0.032,1.993 1.396,3.437 3.39,3.432 C -1.411,3.345 -0.005,1.936 0,0"
         style="fill:#d4d4d4;fill-opacity:1;fill-rule:nonzero;stroke:none"
         id="path2562" />
    </g>
    <g
       id="g2564"
       transform="matrix(0.35277777,0,0,-0.35277777,180.39489,247.77221)">
      <path
         d="m 0,0 c 0.004,-1.915 -1.409,-3.353 -3.326,-3.382 -1.904,-0.028 -3.38,1.401 -3.41,3.301 -0.032,1.993 1.396,3.437 3.39,3.432 C -1.412,3.345 -0.005,1.936 0,0"
         style="fill:#d4d4d4;fill-opacity:1;fill-rule:nonzero;stroke:none"
         id="path2566" />
    </g>
    <g
       id="g2568"
       transform="matrix(0.35277777,0,0,-0.35277777,180.39489,251.51804)">
      <path
         d="m 0,0 c 0.004,-1.915 -1.409,-3.353 -3.326,-3.382 -1.904,-0.028 -3.38,1.401 -3.41,3.301 -0.032,1.993 1.396,3.437 3.39,3.432 C -1.412,3.345 -0.005,1.936 0,0"
         style="fill:#d4d4d4;fill-opacity:1;fill-rule:nonzero;stroke:none"
         id="path2570" />
    </g>
    <g
       id="g2572"
       transform="matrix(0.35277777,0,0,-0.35277777,180.39489,255.2639)">
      <path
         d="m 0,0 c 0.004,-1.915 -1.409,-3.353 -3.326,-3.382 -1.904,-0.028 -3.38,1.401 -3.41,3.301 -0.032,1.993 1.396,3.437 3.39,3.432 C -1.412,3.345 -0.005,1.936 0,0"
         style="fill:#d4d4d4;fill-opacity:1;fill-rule:nonzero;stroke:none"
         id="path2574" />
    </g>
    <g
       id="g2576"
       transform="matrix(0.35277777,0,0,-0.35277777,173.56221,240.54647)">
      <path
         d="m 0,0 c 0.004,-1.915 -1.409,-3.353 -3.326,-3.382 -1.905,-0.028 -3.38,1.401 -3.41,3.301 -0.032,1.993 1.396,3.437 3.39,3.432 C -1.412,3.345 -0.005,1.936 0,0"
         style="fill:#d4d4d4;fill-opacity:1;fill-rule:nonzero;stroke:none"
         id="path2578" />
    </g>
    <g
       id="g2580"
       transform="matrix(0.35277777,0,0,-0.35277777,173.56221,244.2923)">
      <path
         d="m 0,0 c 0.004,-1.915 -1.409,-3.353 -3.326,-3.382 -1.905,-0.028 -3.38,1.401 -3.41,3.301 -0.032,1.993 1.396,3.437 3.39,3.432 C -1.412,3.345 -0.005,1.936 0,0"
         style="fill:#d4d4d4;fill-opacity:1;fill-rule:nonzero;stroke:none"
         id="path2582" />
    </g>
    <g
       id="g2584"
       transform="matrix(0.35277777,0,0,-0.35277777,176.97838,240.54647)">
      <path
         d="m 0,0 c 0.005,-1.915 -1.409,-3.353 -3.326,-3.382 -1.904,-0.028 -3.38,1.401 -3.409,3.301 -0.032,1.993 1.396,3.437 3.39,3.432 C -1.411,3.345 -0.005,1.936 0,0"
         style="fill:#d4d4d4;fill-opacity:1;fill-rule:nonzero;stroke:none"
         id="path2586" />
    </g>
    <g
       id="g2588"
       transform="matrix(0.35277777,0,0,-0.35277777,176.97838,244.2923)">
      <path
         d="m 0,0 c 0.005,-1.915 -1.409,-3.353 -3.326,-3.382 -1.904,-0.028 -3.38,1.401 -3.409,3.301 -0.032,1.993 1.396,3.437 3.39,3.432 C -1.411,3.345 -0.005,1.936 0,0"
         style="fill:#d4d4d4;fill-opacity:1;fill-rule:nonzero;stroke:none"
         id="path2590" />
    </g>
    <g
       id="g2592"
       transform="matrix(0.35277777,0,0,-0.35277777,180.39489,240.54647)">
      <path
         d="m 0,0 c 0.004,-1.915 -1.409,-3.353 -3.326,-3.382 -1.904,-0.028 -3.38,1.401 -3.41,3.301 -0.032,1.993 1.396,3.437 3.39,3.432 C -1.412,3.345 -0.005,1.936 0,0"
         style="fill:#d4d4d4;fill-opacity:1;fill-rule:nonzero;stroke:none"
         id="path2594" />
    </g>
    <g
       id="g2596"
       transform="matrix(0.35277777,0,0,-0.35277777,180.39489,244.2923)">
      <path
         d="m 0,0 c 0.004,-1.915 -1.409,-3.353 -3.326,-3.382 -1.904,-0.028 -3.38,1.401 -3.41,3.301 -0.032,1.993 1.396,3.437 3.39,3.432 C -1.412,3.345 -0.005,1.936 0,0"
         style="fill:#d4d4d4;fill-opacity:1;fill-rule:nonzero;stroke:none"
         id="path2598" />
    </g>
    <g
       id="g2600"
       transform="matrix(0.35277777,0,0,-0.35277777,163.31132,265.8538)">
      <path
         d="m 0,0 c 0.005,-1.916 -1.409,-3.354 -3.326,-3.382 -1.904,-0.028 -3.38,1.4 -3.409,3.3 -0.032,1.993 1.396,3.437 3.39,3.432 C -1.411,3.344 -0.005,1.935 0,0"
         style="fill:#d4d4d4;fill-opacity:1;fill-rule:nonzero;stroke:none"
         id="path2602" />
    </g>
    <g
       id="g2604"
       transform="matrix(0.35277777,0,0,-0.35277777,166.72784,265.8538)">
      <path
         d="m 0,0 c 0.004,-1.916 -1.409,-3.354 -3.326,-3.382 -1.904,-0.028 -3.38,1.4 -3.41,3.3 -0.032,1.993 1.396,3.437 3.39,3.432 C -1.412,3.344 -0.005,1.935 0,0"
         style="fill:#d4d4d4;fill-opacity:1;fill-rule:nonzero;stroke:none"
         id="path2606" />
    </g>
    <g
       id="g2608"
       transform="matrix(0.35277777,0,0,-0.35277777,170.14398,265.8538)">
      <path
         d="m 0,0 c 0.005,-1.916 -1.409,-3.354 -3.326,-3.382 -1.904,-0.028 -3.38,1.4 -3.409,3.3 -0.032,1.993 1.396,3.437 3.39,3.432 C -1.411,3.344 -0.005,1.935 0,0"
         style="fill:#d4d4d4;fill-opacity:1;fill-rule:nonzero;stroke:none"
         id="path2610" />
    </g>
    <g
       id="g2612"
       transform="matrix(0.35277777,0,0,-0.35277777,163.31132,258.62803)">
      <path
         d="m 0,0 c 0.005,-1.916 -1.409,-3.354 -3.326,-3.382 -1.904,-0.028 -3.38,1.4 -3.409,3.3 -0.032,1.993 1.396,3.437 3.39,3.432 C -1.411,3.344 -0.005,1.935 0,0"
         style="fill:#d4d4d4;fill-opacity:1;fill-rule:nonzero;stroke:none"
         id="path2614" />
    </g>
    <g
       id="g2616"
       transform="matrix(0.35277777,0,0,-0.35277777,163.31132,262.37389)">
      <path
         d="m 0,0 c 0.005,-1.916 -1.409,-3.354 -3.326,-3.382 -1.904,-0.028 -3.38,1.4 -3.409,3.3 -0.032,1.993 1.396,3.437 3.39,3.432 C -1.411,3.344 -0.005,1.935 0,0"
         style="fill:#d4d4d4;fill-opacity:1;fill-rule:nonzero;stroke:none"
         id="path2618" />
    </g>
    <g
       id="g2620"
       transform="matrix(0.35277777,0,0,-0.35277777,166.72784,258.62803)">
      <path
         d="m 0,0 c 0.004,-1.916 -1.409,-3.354 -3.326,-3.382 -1.904,-0.028 -3.38,1.4 -3.41,3.3 -0.032,1.993 1.396,3.437 3.39,3.432 C -1.412,3.344 -0.005,1.935 0,0"
         style="fill:#d4d4d4;fill-opacity:1;fill-rule:nonzero;stroke:none"
         id="path2622" />
    </g>
    <g
       id="g2624"
       transform="matrix(0.35277777,0,0,-0.35277777,166.72784,262.37389)">
      <path
         d="m 0,0 c 0.004,-1.916 -1.409,-3.354 -3.326,-3.382 -1.904,-0.028 -3.38,1.4 -3.41,3.3 -0.032,1.993 1.396,3.437 3.39,3.432 C -1.412,3.344 -0.005,1.935 0,0"
         style="fill:#d4d4d4;fill-opacity:1;fill-rule:nonzero;stroke:none"
         id="path2626" />
    </g>
    <g
       id="g2628"
       transform="matrix(0.35277777,0,0,-0.35277777,170.14398,258.62803)">
      <path
         d="m 0,0 c 0.005,-1.916 -1.409,-3.354 -3.326,-3.382 -1.904,-0.028 -3.38,1.4 -3.409,3.3 -0.032,1.993 1.396,3.437 3.39,3.432 C -1.411,3.344 -0.005,1.935 0,0"
         style="fill:#d4d4d4;fill-opacity:1;fill-rule:nonzero;stroke:none"
         id="path2630" />
    </g>
    <g
       id="g2632"
       transform="matrix(0.35277777,0,0,-0.35277777,170.14398,262.37389)">
      <path
         d="m 0,0 c 0.005,-1.916 -1.409,-3.354 -3.326,-3.382 -1.904,-0.028 -3.38,1.4 -3.409,3.3 -0.032,1.993 1.396,3.437 3.39,3.432 C -1.411,3.344 -0.005,1.935 0,0"
         style="fill:#d4d4d4;fill-opacity:1;fill-rule:nonzero;stroke:none"
         id="path2634" />
    </g>
    <g
       id="g2636"
       transform="matrix(0.35277777,0,0,-0.35277777,173.56221,265.8538)">
      <path
         d="m 0,0 c 0.004,-1.916 -1.409,-3.354 -3.326,-3.382 -1.905,-0.028 -3.38,1.4 -3.41,3.3 -0.032,1.993 1.396,3.437 3.39,3.432 C -1.412,3.344 -0.005,1.935 0,0"
         style="fill:#d4d4d4;fill-opacity:1;fill-rule:nonzero;stroke:none"
         id="path2638" />
    </g>
    <g
       id="g2640"
       transform="matrix(0.35277777,0,0,-0.35277777,176.97838,265.8538)">
      <path
         d="m 0,0 c 0.005,-1.916 -1.409,-3.354 -3.326,-3.382 -1.904,-0.028 -3.38,1.4 -3.409,3.3 -0.032,1.993 1.396,3.437 3.39,3.432 C -1.411,3.344 -0.005,1.935 0,0"
         style="fill:#d4d4d4;fill-opacity:1;fill-rule:nonzero;stroke:none"
         id="path2642" />
    </g>
    <g
       id="g2644"
       transform="matrix(0.35277777,0,0,-0.35277777,180.39489,265.8538)">
      <path
         d="m 0,0 c 0.004,-1.916 -1.409,-3.354 -3.326,-3.382 -1.904,-0.028 -3.38,1.4 -3.41,3.3 -0.032,1.993 1.396,3.437 3.39,3.432 C -1.412,3.344 -0.005,1.935 0,0"
         style="fill:#d4d4d4;fill-opacity:1;fill-rule:nonzero;stroke:none"
         id="path2646" />
    </g>
    <g
       id="g2648"
       transform="matrix(0.35277777,0,0,-0.35277777,173.56221,258.62803)">
      <path
         d="m 0,0 c 0.004,-1.916 -1.409,-3.354 -3.326,-3.382 -1.905,-0.028 -3.38,1.4 -3.41,3.3 -0.032,1.993 1.396,3.437 3.39,3.432 C -1.412,3.344 -0.005,1.935 0,0"
         style="fill:#d4d4d4;fill-opacity:1;fill-rule:nonzero;stroke:none"
         id="path2650" />
    </g>
    <g
       id="g2652"
       transform="matrix(0.35277777,0,0,-0.35277777,173.56221,262.37389)">
      <path
         d="m 0,0 c 0.004,-1.916 -1.409,-3.354 -3.326,-3.382 -1.905,-0.028 -3.38,1.4 -3.41,3.3 -0.032,1.993 1.396,3.437 3.39,3.432 C -1.412,3.344 -0.005,1.935 0,0"
         style="fill:#d4d4d4;fill-opacity:1;fill-rule:nonzero;stroke:none"
         id="path2654" />
    </g>
    <g
       id="g2656"
       transform="matrix(0.35277777,0,0,-0.35277777,176.97838,258.62803)">
      <path
         d="m 0,0 c 0.005,-1.916 -1.409,-3.354 -3.326,-3.382 -1.904,-0.028 -3.38,1.4 -3.409,3.3 -0.032,1.993 1.396,3.437 3.39,3.432 C -1.411,3.344 -0.005,1.935 0,0"
         style="fill:#d4d4d4;fill-opacity:1;fill-rule:nonzero;stroke:none"
         id="path2658" />
    </g>
    <g
       id="g2660"
       transform="matrix(0.35277777,0,0,-0.35277777,176.97838,262.37389)">
      <path
         d="m 0,0 c 0.005,-1.916 -1.409,-3.354 -3.326,-3.382 -1.904,-0.028 -3.38,1.4 -3.409,3.3 -0.032,1.993 1.396,3.437 3.39,3.432 C -1.411,3.344 -0.005,1.935 0,0"
         style="fill:#d4d4d4;fill-opacity:1;fill-rule:nonzero;stroke:none"
         id="path2662" />
    </g>
    <g
       id="g2664"
       transform="matrix(0.35277777,0,0,-0.35277777,180.39489,258.62803)">
      <path
         d="m 0,0 c 0.004,-1.916 -1.409,-3.354 -3.326,-3.382 -1.904,-0.028 -3.38,1.4 -3.41,3.3 -0.032,1.993 1.396,3.437 3.39,3.432 C -1.412,3.344 -0.005,1.935 0,0"
         style="fill:#d4d4d4;fill-opacity:1;fill-rule:nonzero;stroke:none"
         id="path2666" />
    </g>
    <g
       id="g2668"
       transform="matrix(0.35277777,0,0,-0.35277777,180.39489,262.37389)">
      <path
         d="m 0,0 c 0.004,-1.916 -1.409,-3.354 -3.326,-3.382 -1.904,-0.028 -3.38,1.4 -3.41,3.3 -0.032,1.993 1.396,3.437 3.39,3.432 C -1.412,3.344 -0.005,1.935 0,0"
         style="fill:#d4d4d4;fill-opacity:1;fill-rule:nonzero;stroke:none"
         id="path2670" />
    </g>
    <g
       id="g2672"
       transform="matrix(0.35277777,0,0,-0.35277777,183.31253,247.77221)">
      <path
         d="m 0,0 c 0.005,-1.915 -1.409,-3.353 -3.326,-3.382 -1.904,-0.028 -3.38,1.401 -3.409,3.301 -0.032,1.993 1.396,3.437 3.39,3.432 C -1.411,3.345 -0.005,1.936 0,0"
         style="fill:#d4d4d4;fill-opacity:1;fill-rule:nonzero;stroke:none"
         id="path2674" />
    </g>
    <g
       id="g2676"
       transform="matrix(0.35277777,0,0,-0.35277777,183.31253,251.51804)">
      <path
         d="m 0,0 c 0.005,-1.915 -1.409,-3.353 -3.326,-3.382 -1.904,-0.028 -3.38,1.401 -3.409,3.301 -0.032,1.993 1.396,3.437 3.39,3.432 C -1.411,3.345 -0.005,1.936 0,0"
         style="fill:#d4d4d4;fill-opacity:1;fill-rule:nonzero;stroke:none"
         id="path2678" />
    </g>
    <g
       id="g2680"
       transform="matrix(0.35277777,0,0,-0.35277777,183.31253,255.2639)">
      <path
         d="m 0,0 c 0.005,-1.915 -1.409,-3.353 -3.326,-3.382 -1.904,-0.028 -3.38,1.401 -3.409,3.301 -0.032,1.993 1.396,3.437 3.39,3.432 C -1.411,3.345 -0.005,1.936 0,0"
         style="fill:#d4d4d4;fill-opacity:1;fill-rule:nonzero;stroke:none"
         id="path2682" />
    </g>
    <g
       id="g2684"
       transform="matrix(0.35277777,0,0,-0.35277777,183.31253,240.54647)">
      <path
         d="m 0,0 c 0.005,-1.915 -1.409,-3.353 -3.326,-3.382 -1.904,-0.028 -3.38,1.401 -3.409,3.301 -0.032,1.993 1.396,3.437 3.39,3.432 C -1.411,3.345 -0.005,1.936 0,0"
         style="fill:#d4d4d4;fill-opacity:1;fill-rule:nonzero;stroke:none"
         id="path2686" />
    </g>
    <g
       id="g2688"
       transform="matrix(0.35277777,0,0,-0.35277777,183.31253,244.2923)">
      <path
         d="m 0,0 c 0.005,-1.915 -1.409,-3.353 -3.326,-3.382 -1.904,-0.028 -3.38,1.401 -3.409,3.301 -0.032,1.993 1.396,3.437 3.39,3.432 C -1.411,3.345 -0.005,1.936 0,0"
         style="fill:#d4d4d4;fill-opacity:1;fill-rule:nonzero;stroke:none"
         id="path2690" />
    </g>
    <g
       id="g2692"
       transform="matrix(0.35277777,0,0,-0.35277777,183.31253,265.8538)">
      <path
         d="m 0,0 c 0.005,-1.916 -1.409,-3.354 -3.326,-3.382 -1.904,-0.028 -3.38,1.4 -3.409,3.3 -0.032,1.993 1.396,3.437 3.39,3.432 C -1.411,3.344 -0.005,1.935 0,0"
         style="fill:#d4d4d4;fill-opacity:1;fill-rule:nonzero;stroke:none"
         id="path2694" />
    </g>
    <g
       id="g2696"
       transform="matrix(0.35277777,0,0,-0.35277777,183.31253,258.62803)">
      <path
         d="m 0,0 c 0.005,-1.916 -1.409,-3.354 -3.326,-3.382 -1.904,-0.028 -3.38,1.4 -3.409,3.3 -0.032,1.993 1.396,3.437 3.39,3.432 C -1.411,3.344 -0.005,1.935 0,0"
         style="fill:#d4d4d4;fill-opacity:1;fill-rule:nonzero;stroke:none"
         id="path2698" />
    </g>
    <g
       id="g2700"
       transform="matrix(0.35277777,0,0,-0.35277777,183.31253,262.37389)">
      <path
         d="m 0,0 c 0.005,-1.916 -1.409,-3.354 -3.326,-3.382 -1.904,-0.028 -3.38,1.4 -3.409,3.3 -0.032,1.993 1.396,3.437 3.39,3.432 C -1.411,3.344 -0.005,1.935 0,0"
         style="fill:#d4d4d4;fill-opacity:1;fill-rule:nonzero;stroke:none"
         id="path2702" />
    </g>
    <g
       id="g2704"
       transform="matrix(0.35277777,0,0,-0.35277777,186.23054,247.77221)">
      <path
         d="m 0,0 c 0.005,-1.915 -1.409,-3.353 -3.326,-3.382 -1.904,-0.028 -3.38,1.401 -3.409,3.301 -0.032,1.993 1.395,3.437 3.39,3.432 C -1.412,3.345 -0.005,1.936 0,0"
         style="fill:#d4d4d4;fill-opacity:1;fill-rule:nonzero;stroke:none"
         id="path2706" />
    </g>
    <g
       id="g2708"
       transform="matrix(0.35277777,0,0,-0.35277777,186.23054,251.51804)">
      <path
         d="m 0,0 c 0.005,-1.915 -1.409,-3.353 -3.326,-3.382 -1.904,-0.028 -3.38,1.401 -3.409,3.301 -0.032,1.993 1.395,3.437 3.39,3.432 C -1.412,3.345 -0.005,1.936 0,0"
         style="fill:#d4d4d4;fill-opacity:1;fill-rule:nonzero;stroke:none"
         id="path2710" />
    </g>
    <g
       id="g2712"
       transform="matrix(0.35277777,0,0,-0.35277777,186.23054,255.2639)">
      <path
         d="m 0,0 c 0.005,-1.915 -1.409,-3.353 -3.326,-3.382 -1.904,-0.028 -3.38,1.401 -3.409,3.301 -0.032,1.993 1.395,3.437 3.39,3.432 C -1.412,3.345 -0.005,1.936 0,0"
         style="fill:#d4d4d4;fill-opacity:1;fill-rule:nonzero;stroke:none"
         id="path2714" />
    </g>
    <g
       id="g2716"
       transform="matrix(0.35277777,0,0,-0.35277777,186.23054,240.54647)">
      <path
         d="m 0,0 c 0.005,-1.915 -1.409,-3.353 -3.326,-3.382 -1.904,-0.028 -3.38,1.401 -3.409,3.301 -0.032,1.993 1.395,3.437 3.39,3.432 C -1.412,3.345 -0.005,1.936 0,0"
         style="fill:#d4d4d4;fill-opacity:1;fill-rule:nonzero;stroke:none"
         id="path2718" />
    </g>
    <g
       id="g2720"
       transform="matrix(0.35277777,0,0,-0.35277777,186.23054,244.2923)">
      <path
         d="m 0,0 c 0.005,-1.915 -1.409,-3.353 -3.326,-3.382 -1.904,-0.028 -3.38,1.401 -3.409,3.301 -0.032,1.993 1.395,3.437 3.39,3.432 C -1.412,3.345 -0.005,1.936 0,0"
         style="fill:#d4d4d4;fill-opacity:1;fill-rule:nonzero;stroke:none"
         id="path2722" />
    </g>
    <g
       id="g2724"
       transform="matrix(0.35277777,0,0,-0.35277777,186.23054,265.8538)">
      <path
         d="m 0,0 c 0.005,-1.916 -1.409,-3.354 -3.326,-3.382 -1.904,-0.028 -3.38,1.4 -3.409,3.3 -0.032,1.993 1.395,3.437 3.39,3.432 C -1.412,3.344 -0.005,1.935 0,0"
         style="fill:#d4d4d4;fill-opacity:1;fill-rule:nonzero;stroke:none"
         id="path2726" />
    </g>
    <g
       id="g2728"
       transform="matrix(0.35277777,0,0,-0.35277777,186.23054,258.62803)">
      <path
         d="m 0,0 c 0.005,-1.916 -1.409,-3.354 -3.326,-3.382 -1.904,-0.028 -3.38,1.4 -3.409,3.3 -0.032,1.993 1.395,3.437 3.39,3.432 C -1.412,3.344 -0.005,1.935 0,0"
         style="fill:#d4d4d4;fill-opacity:1;fill-rule:nonzero;stroke:none"
         id="path2730" />
    </g>
    <g
       id="g2732"
       transform="matrix(0.35277777,0,0,-0.35277777,186.23054,262.37389)">
      <path
         d="m 0,0 c 0.005,-1.916 -1.409,-3.354 -3.326,-3.382 -1.904,-0.028 -3.38,1.4 -3.409,3.3 -0.032,1.993 1.395,3.437 3.39,3.432 C -1.412,3.344 -0.005,1.935 0,0"
         style="fill:#d4d4d4;fill-opacity:1;fill-rule:nonzero;stroke:none"
         id="path2734" />
    </g>
    <g
       id="g2736"
       transform="matrix(0.35277777,0,0,-0.35277777,189.14849,247.77221)">
      <path
         d="m 0,0 c 0.004,-1.915 -1.409,-3.353 -3.326,-3.382 -1.905,-0.028 -3.38,1.401 -3.41,3.301 -0.032,1.993 1.396,3.437 3.39,3.432 C -1.412,3.345 -0.005,1.936 0,0"
         style="fill:#d4d4d4;fill-opacity:1;fill-rule:nonzero;stroke:none"
         id="path2738" />
    </g>
    <g
       id="g2740"
       transform="matrix(0.35277777,0,0,-0.35277777,189.14849,251.51804)">
      <path
         d="m 0,0 c 0.004,-1.915 -1.409,-3.353 -3.326,-3.382 -1.905,-0.028 -3.38,1.401 -3.41,3.301 -0.032,1.993 1.396,3.437 3.39,3.432 C -1.412,3.345 -0.005,1.936 0,0"
         style="fill:#d4d4d4;fill-opacity:1;fill-rule:nonzero;stroke:none"
         id="path2742" />
    </g>
    <g
       id="g2744"
       transform="matrix(0.35277777,0,0,-0.35277777,189.14849,255.2639)">
      <path
         d="m 0,0 c 0.004,-1.915 -1.409,-3.353 -3.326,-3.382 -1.905,-0.028 -3.38,1.401 -3.41,3.301 -0.032,1.993 1.396,3.437 3.39,3.432 C -1.412,3.345 -0.005,1.936 0,0"
         style="fill:#d4d4d4;fill-opacity:1;fill-rule:nonzero;stroke:none"
         id="path2746" />
    </g>
    <g
       id="g2748"
       transform="matrix(0.35277777,0,0,-0.35277777,189.14849,240.54647)">
      <path
         d="m 0,0 c 0.004,-1.915 -1.409,-3.353 -3.326,-3.382 -1.905,-0.028 -3.38,1.401 -3.41,3.301 -0.032,1.993 1.396,3.437 3.39,3.432 C -1.412,3.345 -0.005,1.936 0,0"
         style="fill:#d4d4d4;fill-opacity:1;fill-rule:nonzero;stroke:none"
         id="path2750" />
    </g>
    <g
       id="g2752"
       transform="matrix(0.35277777,0,0,-0.35277777,189.14849,244.2923)">
      <path
         d="m 0,0 c 0.004,-1.915 -1.409,-3.353 -3.326,-3.382 -1.905,-0.028 -3.38,1.401 -3.41,3.301 -0.032,1.993 1.396,3.437 3.39,3.432 C -1.412,3.345 -0.005,1.936 0,0"
         style="fill:#d4d4d4;fill-opacity:1;fill-rule:nonzero;stroke:none"
         id="path2754" />
    </g>
    <g
       id="g2756"
       transform="matrix(0.35277777,0,0,-0.35277777,189.14849,265.8538)">
      <path
         d="m 0,0 c 0.004,-1.916 -1.409,-3.354 -3.326,-3.382 -1.905,-0.028 -3.38,1.4 -3.41,3.3 -0.032,1.993 1.396,3.437 3.39,3.432 C -1.412,3.344 -0.005,1.935 0,0"
         style="fill:#d4d4d4;fill-opacity:1;fill-rule:nonzero;stroke:none"
         id="path2758" />
    </g>
    <g
       id="g2760"
       transform="matrix(0.35277777,0,0,-0.35277777,189.14849,258.62803)">
      <path
         d="m 0,0 c 0.004,-1.916 -1.409,-3.354 -3.326,-3.382 -1.905,-0.028 -3.38,1.4 -3.41,3.3 -0.032,1.993 1.396,3.437 3.39,3.432 C -1.412,3.344 -0.005,1.935 0,0"
         style="fill:#d4d4d4;fill-opacity:1;fill-rule:nonzero;stroke:none"
         id="path2762" />
    </g>
    <g
       id="g2764"
       transform="matrix(0.35277777,0,0,-0.35277777,189.14849,262.37389)">
      <path
         d="m 0,0 c 0.004,-1.916 -1.409,-3.354 -3.326,-3.382 -1.905,-0.028 -3.38,1.4 -3.41,3.3 -0.032,1.993 1.396,3.437 3.39,3.432 C -1.412,3.344 -0.005,1.935 0,0"
         style="fill:#d4d4d4;fill-opacity:1;fill-rule:nonzero;stroke:none"
         id="path2766" />
    </g>
    <g
       id="g2768"
       transform="matrix(0.35277777,0,0,-0.35277777,192.06613,247.77221)">
      <path
         d="m 0,0 c 0.005,-1.915 -1.409,-3.353 -3.326,-3.382 -1.904,-0.028 -3.38,1.401 -3.409,3.301 -0.032,1.993 1.396,3.437 3.39,3.432 C -1.411,3.345 -0.005,1.936 0,0"
         style="fill:#d4d4d4;fill-opacity:1;fill-rule:nonzero;stroke:none"
         id="path2770" />
    </g>
    <g
       id="g2772"
       transform="matrix(0.35277777,0,0,-0.35277777,192.06613,251.51804)">
      <path
         d="m 0,0 c 0.005,-1.915 -1.409,-3.353 -3.326,-3.382 -1.904,-0.028 -3.38,1.401 -3.409,3.301 -0.032,1.993 1.396,3.437 3.39,3.432 C -1.411,3.345 -0.005,1.936 0,0"
         style="fill:#d4d4d4;fill-opacity:1;fill-rule:nonzero;stroke:none"
         id="path2774" />
    </g>
    <g
       id="g2776"
       transform="matrix(0.35277777,0,0,-0.35277777,192.06613,255.2639)">
      <path
         d="m 0,0 c 0.005,-1.915 -1.409,-3.353 -3.326,-3.382 -1.904,-0.028 -3.38,1.401 -3.409,3.301 -0.032,1.993 1.396,3.437 3.39,3.432 C -1.411,3.345 -0.005,1.936 0,0"
         style="fill:#d4d4d4;fill-opacity:1;fill-rule:nonzero;stroke:none"
         id="path2778" />
    </g>
    <g
       id="g2780"
       transform="matrix(0.35277777,0,0,-0.35277777,192.06613,240.54647)">
      <path
         d="m 0,0 c 0.005,-1.915 -1.409,-3.353 -3.326,-3.382 -1.904,-0.028 -3.38,1.401 -3.409,3.301 -0.032,1.993 1.396,3.437 3.39,3.432 C -1.411,3.345 -0.005,1.936 0,0"
         style="fill:#d4d4d4;fill-opacity:1;fill-rule:nonzero;stroke:none"
         id="path2782" />
    </g>
    <g
       id="g2784"
       transform="matrix(0.35277777,0,0,-0.35277777,192.06613,244.2923)">
      <path
         d="m 0,0 c 0.005,-1.915 -1.409,-3.353 -3.326,-3.382 -1.904,-0.028 -3.38,1.401 -3.409,3.301 -0.032,1.993 1.396,3.437 3.39,3.432 C -1.411,3.345 -0.005,1.936 0,0"
         style="fill:#d4d4d4;fill-opacity:1;fill-rule:nonzero;stroke:none"
         id="path2786" />
    </g>
    <g
       id="g2788"
       transform="matrix(0.35277777,0,0,-0.35277777,192.06613,265.8538)">
      <path
         d="m 0,0 c 0.005,-1.916 -1.409,-3.354 -3.326,-3.382 -1.904,-0.028 -3.38,1.4 -3.409,3.3 -0.032,1.993 1.396,3.437 3.39,3.432 C -1.411,3.344 -0.005,1.935 0,0"
         style="fill:#d4d4d4;fill-opacity:1;fill-rule:nonzero;stroke:none"
         id="path2790" />
    </g>
    <g
       id="g2792"
       transform="matrix(0.35277777,0,0,-0.35277777,192.06613,258.62803)">
      <path
         d="m 0,0 c 0.005,-1.916 -1.409,-3.354 -3.326,-3.382 -1.904,-0.028 -3.38,1.4 -3.409,3.3 -0.032,1.993 1.396,3.437 3.39,3.432 C -1.411,3.344 -0.005,1.935 0,0"
         style="fill:#d4d4d4;fill-opacity:1;fill-rule:nonzero;stroke:none"
         id="path2794" />
    </g>
    <g
       id="g2796"
       transform="matrix(0.35277777,0,0,-0.35277777,192.06613,262.37389)">
      <path
         d="m 0,0 c 0.005,-1.916 -1.409,-3.354 -3.326,-3.382 -1.904,-0.028 -3.38,1.4 -3.409,3.3 -0.032,1.993 1.396,3.437 3.39,3.432 C -1.411,3.344 -0.005,1.935 0,0"
         style="fill:#d4d4d4;fill-opacity:1;fill-rule:nonzero;stroke:none"
         id="path2798" />
    </g>
  </g>
</svg>
