<?xml version="1.0" encoding="UTF-8" standalone="no"?>
<svg
   xmlns:dc="http://purl.org/dc/elements/1.1/"
   xmlns:cc="http://creativecommons.org/ns#"
   xmlns:rdf="http://www.w3.org/1999/02/22-rdf-syntax-ns#"
   xmlns:svg="http://www.w3.org/2000/svg"
   xmlns="http://www.w3.org/2000/svg"
   xmlns:sodipodi="http://sodipodi.sourceforge.net/DTD/sodipodi-0.dtd"
   xmlns:inkscape="http://www.inkscape.org/namespaces/inkscape"
   width="24.853148mm"
   height="26.627914mm"
   viewBox="0 0 24.853148 26.627914"
   version="1.1"
   id="svg8"
   inkscape:version="1.0.1 (3bc2e813f5, 2020-09-07)"
   sodipodi:docname="density1.svg">
  <defs
     id="defs2" />
  <sodipodi:namedview
     id="base"
     pagecolor="#ffffff"
     bordercolor="#666666"
     borderopacity="1.0"
     inkscape:pageopacity="0.0"
     inkscape:pageshadow="2"
     inkscape:zoom="0.35"
     inkscape:cx="864.10943"
     inkscape:cy="198.89189"
     inkscape:document-units="mm"
     inkscape:current-layer="layer1"
     inkscape:document-rotation="0"
     showgrid="false"
     inkscape:window-width="1431"
     inkscape:window-height="1030"
     inkscape:window-x="32"
     inkscape:window-y="0"
     inkscape:window-maximized="0" />
  <metadata
     id="metadata5">
    <rdf:RDF>
      <cc:Work
         rdf:about="">
        <dc:format>image/svg+xml</dc:format>
        <dc:type
           rdf:resource="http://purl.org/dc/dcmitype/StillImage" />
        <dc:title></dc:title>
      </cc:Work>
    </rdf:RDF>
  </metadata>
  <g
     inkscape:label="Layer 1"
     inkscape:groupmode="layer"
     id="layer1"
     transform="translate(122.79562,-95.543187)">
    <g
       id="g859"
       transform="matrix(0.35277777,0,0,-0.35277777,-116.38235,98.732318)">
      <path
         d="m 0,0 c 0.013,-5.171 -3.803,-9.05 -8.977,-9.127 -5.139,-0.077 -9.121,3.777 -9.201,8.906 -0.084,5.379 3.769,9.278 9.151,9.261 C -3.81,9.024 -0.013,5.222 0,0"
         style="fill:#d4d4d4;fill-opacity:1;fill-rule:nonzero;stroke:none"
         id="path861" />
    </g>
    <g
       id="g863"
       transform="matrix(0.35277777,0,0,-0.35277777,-116.38235,108.84159)">
      <path
         d="m 0,0 c 0.013,-5.171 -3.803,-9.05 -8.977,-9.127 -5.139,-0.077 -9.121,3.777 -9.201,8.906 -0.084,5.379 3.769,9.278 9.151,9.262 C -3.81,9.025 -0.013,5.223 0,0"
         style="fill:#d4d4d4;fill-opacity:1;fill-rule:nonzero;stroke:none"
         id="path865" />
    </g>
    <g
       id="g867"
       transform="matrix(0.35277777,0,0,-0.35277777,-116.38235,118.9509)">
      <path
         d="m 0,0 c 0.013,-5.171 -3.803,-9.05 -8.977,-9.127 -5.139,-0.077 -9.121,3.777 -9.201,8.906 -0.084,5.379 3.769,9.278 9.151,9.262 C -3.81,9.025 -0.013,5.223 0,0"
         style="fill:#d4d4d4;fill-opacity:1;fill-rule:nonzero;stroke:none"
         id="path869" />
    </g>
    <g
       id="g871"
       transform="matrix(0.35277777,0,0,-0.35277777,-107.16226,98.732318)">
      <path
         d="m 0,0 c 0.012,-5.171 -3.803,-9.05 -8.977,-9.127 -5.139,-0.077 -9.122,3.777 -9.202,8.906 -0.084,5.379 3.769,9.278 9.152,9.261 C -3.81,9.024 -0.013,5.222 0,0"
         style="fill:#d4d4d4;fill-opacity:1;fill-rule:nonzero;stroke:none"
         id="path873" />
    </g>
    <g
       id="g875"
       transform="matrix(0.35277777,0,0,-0.35277777,-107.16226,108.84159)">
      <path
         d="m 0,0 c 0.012,-5.171 -3.803,-9.05 -8.977,-9.127 -5.139,-0.077 -9.122,3.777 -9.202,8.906 -0.084,5.379 3.769,9.278 9.152,9.262 C -3.81,9.025 -0.013,5.223 0,0"
         style="fill:#d4d4d4;fill-opacity:1;fill-rule:nonzero;stroke:none"
         id="path877" />
    </g>
    <g
       id="g879"
       transform="matrix(0.35277777,0,0,-0.35277777,-107.16226,118.9509)">
      <path
         d="m 0,0 c 0.012,-5.171 -3.803,-9.05 -8.977,-9.127 -5.139,-0.077 -9.122,3.777 -9.202,8.906 -0.084,5.379 3.769,9.278 9.152,9.262 C -3.81,9.025 -0.013,5.223 0,0"
         style="fill:#d4d4d4;fill-opacity:1;fill-rule:nonzero;stroke:none"
         id="path881" />
    </g>
    <g
       id="g883"
       transform="matrix(0.35277777,0,0,-0.35277777,-97.942483,98.732318)">
      <path
         d="m 0,0 c 0.013,-5.171 -3.803,-9.05 -8.977,-9.127 -5.139,-0.077 -9.122,3.777 -9.202,8.906 -0.083,5.379 3.769,9.278 9.152,9.261 C -3.81,9.024 -0.013,5.222 0,0"
         style="fill:#d4d4d4;fill-opacity:1;fill-rule:nonzero;stroke:none"
         id="path885" />
    </g>
    <g
       id="g887"
       transform="matrix(0.35277777,0,0,-0.35277777,-97.942483,108.84159)">
      <path
         d="m 0,0 c 0.013,-5.171 -3.803,-9.05 -8.977,-9.127 -5.139,-0.077 -9.122,3.777 -9.202,8.906 -0.083,5.379 3.769,9.278 9.152,9.262 C -3.81,9.025 -0.013,5.223 0,0"
         style="fill:#d4d4d4;fill-opacity:1;fill-rule:nonzero;stroke:none"
         id="path889" />
    </g>
    <g
       id="g891"
       transform="matrix(0.35277777,0,0,-0.35277777,-97.942483,118.9509)">
      <path
         d="m 0,0 c 0.013,-5.171 -3.803,-9.05 -8.977,-9.127 -5.139,-0.077 -9.122,3.777 -9.202,8.906 -0.083,5.379 3.769,9.278 9.152,9.262 C -3.81,9.025 -0.013,5.223 0,0"
         style="fill:#d4d4d4;fill-opacity:1;fill-rule:nonzero;stroke:none"
         id="path893" />
    </g>
  </g>
</svg>
