<?xml version="1.0" encoding="UTF-8"?>
<svg width="63.082mm" height="65.048mm" version="1.1" viewBox="0 0 63.082 65.048" xmlns="http://www.w3.org/2000/svg" xmlns:cc="http://creativecommons.org/ns#" xmlns:dc="http://purl.org/dc/elements/1.1/" xmlns:rdf="http://www.w3.org/1999/02/22-rdf-syntax-ns#">
 <metadata>
  <rdf:RDF>
   <cc:Work rdf:about="">
    <dc:format>image/svg+xml</dc:format>
    <dc:type rdf:resource="http://purl.org/dc/dcmitype/StillImage"/>
    <dc:title/>
   </cc:Work>
  </rdf:RDF>
 </metadata>
 <g transform="translate(-144.64 -184.83)">
  <g transform="matrix(.35278 0 0 -.35278 180.85 226.43)">
   <path d="m0 0c-0.05-9.009 7.125-16.349 16.118-16.491 8.69-0.137 16.178 7.107 16.459 15.923 0.224 7.053-3.431 11.826-10.298 13.602-2.619 0.678-5.16 1.662-7.787 2.297-1.2 0.29-2.651 0.43-3.77 0.028-6.283-2.252-10.685-8.69-10.722-15.359m-62.79 0.088c-0.1-8.963 7.06-16.366 16.042-16.588 8.781-0.217 16.403 7.229 16.56 16.104 0.146 8.257-6.853 16.536-16.053 16.484-9.064-0.052-16.449-7.052-16.549-16m75.211 83.082c0.367 0.81 0.702 1.421 0.929 2.07 2.635 7.571-0.433 15.988-7.92 21.309-7.645 5.432-16.196 6.775-25.273 5.04-6.845-1.31-12.677-4.478-16.914-10.15-4.247-5.685-4.867-12.789-1.595-18.21 16.833 4.812 33.773 4.81 50.773-0.059m-90.376-62.163c5.563 1.139 11.166 2.156 16.706 3.447 9.313 2.171 18.563 4.771 26.309 10.615 3.095 2.336 5.413 5.787 7.756 8.972 0.572 0.778 0.201 2.686-0.346 3.766-1.493 2.95-3.437 5.673-4.91 8.632-0.363 0.729 0.39 2.013 0.63 3.041 0.952-0.469 1.951-0.868 2.832-1.445 0.365-0.238 0.469-0.866 0.703-1.311 4.837-9.222 11.458-17.143 19.411-23.646 12.339-10.092 26.543-16.492 42.572-18.139 6.049-0.621 12.155-0.686 18.625-1.026 0 5.975-0.146 11.268 0.028 16.549 0.513 15.552-6.201 27.589-18.069 36.991-23.389 18.528-60.48 20.742-87.101 5.222-19.541-11.393-28.509-28.18-25.146-51.668m111.56-10.587c0.139-0.324 0.275-0.686 0.444-1.031 3.779-7.775 3.368-15.301-2.027-22.091-5.307-6.681-12.491-9.106-20.757-6.965-8.511 2.203-13.433 7.967-15.033 16.654-0.198 1.077-1.177 2.343-2.149 2.893-5.786 3.272-11.726 2.94-17.69 0.367-1.775-0.767-2.734-1.768-3.072-3.926-1.781-11.39-13.278-18.875-24.461-16.149-9.819 2.392-16.383 11.461-15.529 21.231 0.867 9.919 8.276 17.827 19.194 18.656 8.693 0.658 17.339-5.443 20.162-13.877 0.312-0.932 0.607-1.87 0.947-2.919 7.573 3.618 15.029 4.063 22.651 0.157 1.424 6.702 5.165 11.403 11.257 14.802-12.336 5.863-22.41 13.757-30.92 24.043-4.014-7.755-10.562-11.963-17.792-15.284-11.599-5.326-24.014-7.675-36.507-9.634-1.266-0.2-3.213-0.023-3.896 0.783-2.017 2.376-4.401 2.142-6.773 1.465-6.434-1.837-10.067-8.572-8.592-15.558 1.285-6.081 5.381-9.933 10.494-9.869 6.79 0.086 7.948-0.793 9.86-7.487 11.399-39.923 56.599-59.536 93.485-40.418 17.057 8.84 28.123 22.732 33.341 41.235 1.411 5.003 3.535 6.902 7.806 6.788 7.049-0.187 11.394 3.279 12.493 10.248 1.361 8.64-4.811 17.458-14.291 14.492 0-1.559-0.088-3.247 0.02-4.921 0.162-2.509-0.777-3.741-3.435-3.709-6.317 0.076-12.635 0.024-19.23 0.024m22.422 12.611c10.69 2.831 19.016-6.472 18.61-16.666-0.338-8.463-5.463-14.912-12.785-16.071-0.495-0.078-0.998-0.141-1.498-0.147-5.166-0.064-5.166-0.061-6.699-5.258-8.854-30-36.148-50.037-67.916-49.859-30.622 0.173-57.697 20.911-66.093 50.626-1.307 4.627-1.306 4.588-6.106 4.512-1.191-0.019-2.415 0.185-3.575 0.48-6.61 1.682-11.443 9.041-11.114 16.834 0.348 8.246 5.212 14.781 12.183 15.92 2.068 0.339 4.278-0.195 6.832-0.355-3.276 30.653 13.339 47.842 39.08 58.757-0.432 3.273-1.304 6.529-1.2 9.753 0.263 8.163 4.428 14.387 11.14 18.665 12.458 7.94 25.461 8.273 38.3 1.11 11.381-6.351 15.027-16.373 11.344-29.391 25.996-10.834 42.668-28.139 39.497-58.91" fill="#2c2825"/>
   <path d="m0 0c-0.05-9.009 7.125-16.349 16.118-16.491 8.69-0.137 16.178 7.107 16.459 15.923 0.224 7.053-3.431 11.826-10.298 13.602-2.619 0.678-5.16 1.662-7.787 2.297-1.2 0.29-2.651 0.43-3.77 0.028-6.283-2.252-10.685-8.69-10.722-15.359zm-62.79 0.088c-0.1-8.963 7.06-16.366 16.042-16.588 8.781-0.217 16.403 7.229 16.56 16.104 0.146 8.257-6.853 16.536-16.053 16.484-9.064-0.052-16.449-7.052-16.549-16zm75.211 83.082c0.367 0.81 0.702 1.421 0.929 2.07 2.635 7.571-0.433 15.988-7.92 21.309-7.645 5.432-16.196 6.775-25.273 5.04-6.845-1.31-12.677-4.478-16.914-10.15-4.247-5.685-4.867-12.789-1.595-18.21 16.833 4.812 33.773 4.81 50.773-0.059zm-90.376-62.163c5.563 1.139 11.166 2.156 16.706 3.447 9.313 2.171 18.563 4.771 26.309 10.615 3.095 2.336 5.413 5.787 7.756 8.972 0.572 0.778 0.201 2.686-0.346 3.766-1.493 2.95-3.437 5.673-4.91 8.632-0.363 0.729 0.39 2.013 0.63 3.041 0.952-0.469 1.951-0.868 2.832-1.445 0.365-0.238 0.469-0.866 0.703-1.311 4.837-9.222 11.458-17.143 19.411-23.646 12.339-10.092 26.543-16.492 42.572-18.139 6.049-0.621 12.155-0.686 18.625-1.026 0 5.975-0.146 11.268 0.028 16.549 0.513 15.552-6.201 27.589-18.069 36.991-23.389 18.528-60.48 20.742-87.101 5.222-19.541-11.393-28.509-28.18-25.146-51.668zm111.56-10.587c0.139-0.324 0.275-0.686 0.444-1.031 3.779-7.775 3.368-15.301-2.027-22.091-5.307-6.681-12.491-9.106-20.757-6.965-8.511 2.203-13.433 7.967-15.033 16.654-0.198 1.077-1.177 2.343-2.149 2.893-5.786 3.272-11.726 2.94-17.69 0.367-1.775-0.767-2.734-1.768-3.072-3.926-1.781-11.39-13.278-18.875-24.461-16.149-9.819 2.392-16.383 11.461-15.529 21.231 0.867 9.919 8.276 17.827 19.194 18.656 8.693 0.658 17.339-5.443 20.162-13.877 0.312-0.932 0.607-1.87 0.947-2.919 7.573 3.618 15.029 4.063 22.651 0.157 1.424 6.702 5.165 11.403 11.257 14.802-12.336 5.863-22.41 13.757-30.92 24.043-4.014-7.755-10.562-11.963-17.792-15.284-11.599-5.326-24.014-7.675-36.507-9.634-1.266-0.2-3.213-0.023-3.896 0.783-2.017 2.376-4.401 2.142-6.773 1.465-6.434-1.837-10.067-8.572-8.592-15.558 1.285-6.081 5.381-9.933 10.494-9.869 6.79 0.086 7.948-0.793 9.86-7.487 11.399-39.923 56.599-59.536 93.485-40.418 17.057 8.84 28.123 22.732 33.341 41.235 1.411 5.003 3.535 6.902 7.806 6.788 7.049-0.187 11.394 3.279 12.493 10.248 1.361 8.64-4.811 17.458-14.291 14.492 0-1.559-0.088-3.247 0.02-4.921 0.162-2.509-0.777-3.741-3.435-3.709-6.317 0.076-12.635 0.024-19.23 0.024zm22.422 12.611c10.69 2.831 19.016-6.472 18.61-16.666-0.338-8.463-5.463-14.912-12.785-16.071-0.495-0.078-0.998-0.141-1.498-0.147-5.166-0.064-5.166-0.061-6.699-5.258-8.854-30-36.148-50.037-67.916-49.859-30.622 0.173-57.697 20.911-66.093 50.626-1.307 4.627-1.306 4.588-6.106 4.512-1.191-0.019-2.415 0.185-3.575 0.48-6.61 1.682-11.443 9.041-11.114 16.834 0.348 8.246 5.212 14.781 12.183 15.92 2.068 0.339 4.278-0.195 6.832-0.355-3.276 30.653 13.339 47.842 39.08 58.757-0.432 3.273-1.304 6.529-1.2 9.753 0.263 8.163 4.428 14.387 11.14 18.665 12.458 7.94 25.461 8.273 38.3 1.11 11.381-6.351 15.027-16.373 11.344-29.391 25.996-10.834 42.668-28.139 39.497-58.91z" fill="none" stroke="#2c2825" stroke-miterlimit="10" stroke-width="3"/>
  </g>
  <g transform="matrix(.35278 0 0 -.35278 170.69 237.81)">
   <path d="m0 0c0.806-7.999 7.717-13.491 15.718-12.849 6.654 0.535 12.841 6.853 12.406 12.849zm14.38 4.129c4.222-1e-3 8.444 0.04 12.665-0.013 4.26-0.052 6.189-2.634 5.16-6.783-1.998-8.056-9.259-14.011-17.39-14.261-8.308-0.256-15.916 5.298-18.348 13.395-1.479 4.921 0.482 7.639 5.549 7.659 4.121 0.016 8.242 3e-3 12.364 3e-3" fill="#2c2825"/>
   <path d="m0 0c0.806-7.999 7.717-13.491 15.718-12.849 6.654 0.535 12.841 6.853 12.406 12.849zm14.38 4.129c4.222-1e-3 8.444 0.04 12.665-0.013 4.26-0.052 6.189-2.634 5.16-6.783-1.998-8.056-9.259-14.011-17.39-14.261-8.308-0.256-15.916 5.298-18.348 13.395-1.479 4.921 0.482 7.639 5.549 7.659 4.121 0.016 8.242 3e-3 12.364 3e-3z" fill="none" stroke="#2c2825" stroke-miterlimit="10" stroke-width="3"/>
  </g>
  <g transform="matrix(.35278 0 0 -.35278 186.66 238.92)">
   <path d="m0 0c-0.269-0.292-0.757-1.281-1.396-1.389-0.664-0.112-1.756 0.437-2.155 1.035-0.709 1.06-0.951 2.418-1.538 3.577-1.585 3.129-3.844 5.56-7.104 7.094-0.742 0.349-1.051 1.618-1.559 2.463 0.916 0.385 1.906 1.216 2.736 1.078 4.369-0.721 11.09-8.981 11.016-13.858" fill="#2c2825"/>
   <path d="m0 0c-0.269-0.292-0.757-1.281-1.396-1.389-0.664-0.112-1.756 0.437-2.155 1.035-0.709 1.06-0.951 2.418-1.538 3.577-1.585 3.129-3.844 5.56-7.104 7.094-0.742 0.349-1.051 1.618-1.559 2.463 0.916 0.385 1.906 1.216 2.736 1.078 4.369-0.721 11.09-8.981 11.016-13.858z" fill="none" stroke="#2c2825" stroke-miterlimit="10" stroke-width="3"/>
  </g>
  <g transform="matrix(.35278 0 0 -.35278 165.36 239.04)">
   <path d="m0 0c-0.429 1.324-1.334 2.607-1.01 3.364 2.055 4.796 5.864 8.088 10.226 10.721 0.55 0.331 1.967-0.131 2.519-0.686 0.34-0.34 0.082-1.811-0.392-2.338-2.987-3.327-6.097-6.542-9.201-9.761-0.39-0.404-0.984-0.61-2.142-1.3" fill="#2c2825"/>
   <path d="m0 0c-0.429 1.324-1.334 2.607-1.01 3.364 2.055 4.796 5.864 8.088 10.226 10.721 0.55 0.331 1.967-0.131 2.519-0.686 0.34-0.34 0.082-1.811-0.392-2.338-2.987-3.327-6.097-6.542-9.201-9.761-0.39-0.404-0.984-0.61-2.142-1.3z" fill="none" stroke="#2c2825" stroke-miterlimit="10" stroke-width="3"/>
  </g>
  <g transform="matrix(.35278 0 0 -.35278 163.78 224.41)">
   <path d="m0 0c5.374-0.073 8.503-1.623 11.076-4.153 0.594-0.585 0.355-2.016 0.499-3.057-0.981 0.032-2.082-0.208-2.916 0.159-1.356 0.596-2.456 1.775-3.81 2.38-3.326 1.485-6.272 0.503-8.915-1.764-1.15-0.986-2.41-2.359-3.819-0.641-1.38 1.681 0.094 2.915 1.343 3.658 2.525 1.503 5.211 2.735 6.542 3.418" fill="#2c2825"/>
   <path d="m0 0c5.374-0.073 8.503-1.623 11.076-4.153 0.594-0.585 0.355-2.016 0.499-3.057-0.981 0.032-2.082-0.208-2.916 0.159-1.356 0.596-2.456 1.775-3.81 2.38-3.326 1.485-6.272 0.503-8.915-1.764-1.15-0.986-2.41-2.359-3.819-0.641-1.38 1.681 0.094 2.915 1.343 3.658 2.525 1.503 5.211 2.735 6.542 3.418z" fill="none" stroke="#2c2825" stroke-miterlimit="10" stroke-width="3"/>
  </g>
  <g transform="matrix(.35278 0 0 -.35278 186.58 224.42)">
   <path d="m0 0c3.642-0.085 6.721-1.679 9.295-4.172 0.572-0.555 0.413-1.863 0.592-2.825-1.044-0.026-2.366-0.48-3.087-0.011-6.338 4.121-7.106 4.124-13.631-0.082-0.693-0.447-1.92-0.065-2.899-0.068 0.113 0.979-0.14 2.308 0.404 2.878 2.485 2.604 5.525 4.26 9.326 4.28" fill="#2c2825"/>
   <path d="m0 0c3.642-0.085 6.721-1.679 9.295-4.172 0.572-0.555 0.413-1.863 0.592-2.825-1.044-0.026-2.366-0.48-3.087-0.011-6.338 4.121-7.106 4.124-13.631-0.082-0.693-0.447-1.92-0.065-2.899-0.068 0.113 0.979-0.14 2.308 0.404 2.878 2.485 2.604 5.525 4.26 9.326 4.28z" fill="none" stroke="#2c2825" stroke-miterlimit="10" stroke-width="3"/>
  </g>
 </g>
</svg>
