<svg xmlns="http://www.w3.org/2000/svg" viewBox="0 0 149.01 161.02"><defs><style>.cls-1{fill:#2d2825;}</style></defs><title>Asset 2</title><g id="Layer_2" data-name="Layer 2"><g id="Layer_1-2" data-name="Layer 1"><path class="cls-1" d="M12.56,116.61a3,3,0,0,1-1.06-.19A17.81,17.81,0,0,1,0,99.47,18,18,0,0,1,7.41,85.26a3,3,0,0,1,1.49-.55l1.83-.17,1.7-.18a3,3,0,0,1,3.3,3.41,34.8,34.8,0,0,0-.36,5v17.33c0,1,.06,2,.18,3.27a3,3,0,0,1-3,3.28M9.39,91.45a11.84,11.84,0,0,0,0,16.53V92.73c0-.42,0-.85,0-1.28"/><path class="cls-1" d="M135.73,114.37a2.94,2.94,0,0,1-1.83-.63,3,3,0,0,1-1.15-2.68c.11-1.12.17-2.11.17-3V90.73a28.86,28.86,0,0,0-.37-4.52,3,3,0,0,1,.65-2.36,3,3,0,0,1,2.19-1.09c1-.05,2.07-.1,3.11-.17a3,3,0,0,1,1.76.43c5.6,3.42,8.87,9,8.74,15-.15,7.11-4.94,13.45-12.22,16.15a3,3,0,0,1-1.05.19m3.16-25q0,.66,0,1.32V106.1A11.12,11.12,0,0,0,143,97.91a10.89,10.89,0,0,0-4.11-8.5"/><path class="cls-1" d="M7.41,159.65a25.22,25.22,0,0,1-5-.47,3,3,0,0,1-.2-5.83c.19-1.42-.49-4.94-1.57-7.85a3.3,3.3,0,0,1-.15-.62c-2.57-18.07,5.6-25.53,10.7-28.36a3,3,0,0,1,4.39,2,50.9,50.9,0,0,0,12.4,24,3,3,0,0,1,.63,3c-3.77,11.2-13.77,14.11-21.2,14.11m-1-15.92c.8,2.23,2.07,6.42,1.79,9.89,4.47-.13,11-1.59,14.13-8.42a57,57,0,0,1-11.46-20.93c-3.07,3.16-5.89,9-4.46,19.46"/><path class="cls-1" d="M136.73,159.6a32.62,32.62,0,0,1-4.43-.3c-7.08-1-12.51-4.46-15.68-10a3,3,0,0,1,.57-3.71A50.9,50.9,0,0,0,132.08,121a3,3,0,0,1,4.95-1.43c4.21,3.91,8.8,11.48,6.76,25.32a3.64,3.64,0,0,1-.16.63c-1.1,2.9-1.81,6.41-1.62,7.8a3,3,0,0,1,2.26,2.7,3,3,0,0,1-2.4,3.16,30.16,30.16,0,0,1-5.14.41m-13.6-11.36c2.28,2.74,5.59,4.45,9.86,5.09a24.31,24.31,0,0,0,3,.26c-.28-3.47,1-7.65,1.86-9.88.88-6.26.25-11.53-1.81-15.55a57,57,0,0,1-13,20.08"/><path class="cls-1" d="M82.79,161H65.46a53,53,0,0,1-53-53V90.73a52.81,52.81,0,0,1,.42-6.53,3,3,0,0,1,2.36-2.57A124.23,124.23,0,0,0,36.8,75C54,67.92,66.66,57.61,73.56,45.2a3,3,0,0,1,5.2-.09,103.35,103.35,0,0,0,14.7,19c12,12.11,25.52,18.61,39.1,18.79a3,3,0,0,1,2.94,2.71c.17,1.74.26,3.48.26,5.16v17.33a53,53,0,0,1-53,53M18.65,87c-.11,1.26-.16,2.49-.16,3.7v17.33a47,47,0,0,0,47,47H82.79a47,47,0,0,0,47-47V90.73c0-.65,0-1.31,0-2-14.23-1-28.18-8-40.51-20.46a109.46,109.46,0,0,1-13-16C68.31,64,55.58,73.74,39.09,80.55A129.69,129.69,0,0,1,18.65,87m55.54,61.18H73.8c-7.91-.09-15-2.61-19-6.75a10.79,10.79,0,0,1-3.31-7.75,3,3,0,0,1,3-2.94l39.38.32A3,3,0,0,1,96,132a3,3,0,0,1,.84,2.16c-.19,7.79-10.3,14-22.62,14M58.63,136.8c.13.16.28.32.43.48,2.88,3,8.55,4.86,14.8,4.93,7.13.08,13-2.31,15.54-5.15ZM74.17,124h-.24c-4.87,0-9.28-1.63-11.79-4.23a7.28,7.28,0,0,1-2.22-5.28,3,3,0,0,1,3-2.93h0l22.42.18a3,3,0,0,1,3,3.07C88.21,120,82,124,74.17,124m-3.53-6.38A15.69,15.69,0,0,0,74,118a14.38,14.38,0,0,0,3.34-.33Zm23.19-12.28h-.22c-6.09-.16-10.82-6.52-10.75-14.47a15.59,15.59,0,0,1,4.23-11.1A9.52,9.52,0,0,1,94,77c6.24.1,10.88,6.26,10.8,14.32a16.09,16.09,0,0,1-4.45,11.3,9.36,9.36,0,0,1-6.49,2.79m0-22.41a3.57,3.57,0,0,0-2.54,1.14,9.77,9.77,0,0,0-2.42,6.85c0,4.89,2.55,8.36,4.91,8.42a3.35,3.35,0,0,0,2.38-1.1,10.18,10.18,0,0,0,2.62-7.05c0-4.51-2.15-8.22-4.9-8.26h-.05M50,105.36h-.22c-6.1-.16-10.82-6.52-10.76-14.47a15.68,15.68,0,0,1,4.23-11.1A9.69,9.69,0,0,1,50.18,77c6.23.1,10.88,6.26,10.8,14.32a16.09,16.09,0,0,1-4.46,11.3A9.33,9.33,0,0,1,50,105.36M50,83a3.59,3.59,0,0,0-2.54,1.14,9.86,9.86,0,0,0-2.42,6.85c0,4.89,2.56,8.36,4.92,8.42a3.35,3.35,0,0,0,2.38-1.1A10.23,10.23,0,0,0,55,91.21C55,86.7,52.82,83,50.08,83H50"/><path class="cls-1" d="M137.13,85.71a3,3,0,0,1-2.93-3.66c1.25-5.64,6.77-34.84-8.06-55C116.52,14,100,6.92,77.11,6,75.61,6,40.4,4.89,22.59,26.36,12,39.16,9.33,57.74,14.74,81.61a3,3,0,1,1-5.85,1.32C3.05,57.16,6.1,36.84,18,22.53c8.21-9.9,21-16.92,36.9-20.31A98.65,98.65,0,0,1,77.32,0C102.17,1,120.21,8.9,131,23.51c16.37,22.24,10.44,53.75,9.08,59.85a3,3,0,0,1-2.92,2.35"/></g></g></svg>