<?xml version="1.0" encoding="UTF-8"?>
<svg width="49.298mm" height="54.689mm" version="1.1" viewBox="0 0 49.298 54.689" xmlns="http://www.w3.org/2000/svg" xmlns:cc="http://creativecommons.org/ns#" xmlns:dc="http://purl.org/dc/elements/1.1/" xmlns:rdf="http://www.w3.org/1999/02/22-rdf-syntax-ns#">
 <metadata>
  <rdf:RDF>
   <cc:Work rdf:about="">
    <dc:format>image/svg+xml</dc:format>
    <dc:type rdf:resource="http://purl.org/dc/dcmitype/StillImage"/>
    <dc:title/>
   </cc:Work>
  </rdf:RDF>
 </metadata>
 <g transform="translate(-127.7 -195.91)">
  <g transform="matrix(.35278 0 0 -.35278 130.7 226.15)">
   <path d="m0 0c0 1.817 0.093 3.614 0.27 5.387-0.702-0.116-1.124-0.172-1.211-0.184l-1.255-0.167c-2.497-2.633-4.158-6.932-4.219-11.834-0.079-6.365 2.704-11.97 6.545-14.087-0.077 1.178-0.13 2.362-0.13 3.557z" fill="#2c2825"/>
  </g>
  <g transform="matrix(.35278 0 0 -.35278 174.89 226.15)">
   <path d="m0 0v-17.328c0-1.113-0.044-2.217-0.111-3.314 3.518 2.204 6.024 7.351 6.099 13.402 0.063 5.066-1.687 9.656-4.341 12.386-0.628-0.068-1.257-0.127-1.885-0.171 0.151-1.639 0.238-3.297 0.238-4.975" fill="#2c2825"/>
  </g>
  <g transform="matrix(.35278 0 0 -.35278 127.86 245.81)">
   <path d="m0 0s4.269-11.583-0.453-11.783c0 0 17.627-3.567 22.765 11.666-6.464 7.02-11.096 15.752-13.126 25.431-4.288-2.381-11.52-8.908-9.186-25.314" fill="#2c2825"/>
  </g>
  <g transform="matrix(.35278 0 0 -.35278 168.7 247)">
   <path d="m0 0c6.596-11.432 22.077-8.406 22.077-8.406-4.886 0.2-0.469 11.783-0.469 11.783 1.816 12.336-1.964 19.082-5.838 22.684-2.674-10.163-8.242-19.163-15.77-26.061" fill="#2c2825"/>
  </g>
  <g transform="matrix(.35278 0 0 -.35278 159.69 230.96)">
   <path d="m0 0c-4.381 0.114-7.889 5.235-7.838 11.438 0.052 6.276 3.56 11.046 8.067 10.972 4.48-0.074 7.91-5.009 7.847-11.294-0.061-6.154-3.748-11.228-8.076-11.116m-19.862-42.851c-10.839 0.115-19.519 5.235-19.391 11.439l39.373-0.323c-0.152-6.154-9.275-11.229-19.982-11.116m-23.932 42.851c-4.381 0.114-7.889 5.235-7.837 11.438 0.052 6.276 3.559 11.046 8.066 10.972 4.481-0.074 7.91-5.009 7.847-11.294-0.061-6.154-3.748-11.228-8.076-11.116m35.438-12.402c-0.086-3.465-5.282-6.323-11.379-6.259-6.173 0.064-11.116 2.947-11.043 6.441zm5.993 48.579c-7.466 7.535-12.59 15.269-15.145 19.527-7.245-13.039-20.381-23.748-38.238-31.121-8.92-3.684-17.016-5.738-22.06-6.794-0.249-2.02-0.393-4.074-0.393-6.161v-17.328c0-27.553 22.415-49.967 49.968-49.967h17.327c27.552 0 49.968 22.414 49.968 49.967v17.328c0 1.642-0.085 3.264-0.24 4.865-14.409 0.199-28.529 6.909-41.187 19.684" fill="#231f20"/>
  </g>
  <g transform="matrix(.35278 0 0 -.35278 152.84 209.87)">
   <path d="m0 0 1.722 3.709 1.871-3.637c0.226-0.441 22.818-43.461 59.255-40.189 1.464 6.584 6.918 36.373-8.571 57.414-10.192 13.846-27.462 21.336-51.329 22.264-0.4 0.013-37.832 1.626-56.947-21.415-11.246-13.558-14.092-33.005-8.467-57.828 8.932 1.588 48.792 10.227 62.466 39.682" fill="#231f20"/>
  </g>
 </g>
</svg>
