<?xml version="1.0" encoding="UTF-8"?>
<svg width="75.823mm" height="60.862mm" version="1.1" viewBox="0 0 75.823 60.862" xmlns="http://www.w3.org/2000/svg" xmlns:cc="http://creativecommons.org/ns#" xmlns:dc="http://purl.org/dc/elements/1.1/" xmlns:rdf="http://www.w3.org/1999/02/22-rdf-syntax-ns#">
 <metadata>
  <rdf:RDF>
   <cc:Work rdf:about="">
    <dc:format>image/svg+xml</dc:format>
    <dc:type rdf:resource="http://purl.org/dc/dcmitype/StillImage"/>
    <dc:title/>
   </cc:Work>
  </rdf:RDF>
 </metadata>
 <g transform="translate(-93.65 -218.67)">
  <g transform="matrix(.35278 0 0 -.35278 135.2 260.53)">
   <path d="m0 0c11.867-0.819 43.449 30.075 43.434 43.162-1.895-0.568-3.796-0.818-5.38-1.664-15.349-8.197-27.116-20.099-35.732-35.141-1.052-1.837-1.491-4.028-2.322-6.357m7.017-6.827c0.36-0.454 0.666-0.927 1.054-1.316 10.519-10.519 20.985-21.093 31.626-31.487 1.996-1.949 4.54-3.553 7.113-4.661 12.712-5.477 28.206-0.319 36.989 12.031 7.953 11.183 8.764 27.371-2.964 38.213-8.537 7.892-16.539 16.364-24.72 24.636-1.927 1.95-3.615 4.137-5.6 6.432-10.323-19.618-24.634-33.912-43.498-43.848m90.141-7.11c0.13-26.494-27.256-46.554-51.771-37.664-3.998 1.45-7.94 3.963-11.004 6.922-13.099 12.649-25.843 25.664-38.754 38.508-3.054 3.037-3.13 6.608-2.041 10.349 2.21 7.591 6.837 13.792 11.821 19.719 7.334 8.72 15.589 16.474 25.547 22.119 3.326 1.884 7.15 2.995 10.862 4.059 2.821 0.81 5.445-0.222 7.549-2.33 12.999-13.014 26.052-25.975 38.969-39.071 5.827-5.908 8.779-13.944 8.822-22.611" fill="#2c2825"/>
  </g>
  <g transform="matrix(.35278 0 0 -.35278 112.39 245.43)">
   <path d="m0 0c0.689-2.111 0.949-4.04 1.883-5.552 2.844-4.603 5.603-9.329 9.022-13.492 7.482-9.109 16.038-17.087 26.744-22.393 1.711-0.848 3.629-1.28 5.547-1.937 1.344 10.981-29.228 42.889-43.196 43.374m37.2-49.765c-19.256 10.139-33.529 24.513-43.426 43.277-11.241-11.188-22.337-21.936-33.021-33.081-2.582-2.695-4.478-6.507-5.518-10.141-4.112-14.374 4.371-30.476 19.004-36.901 11.536-5.066 22.894-2.992 31.795 5.839 4.739 4.701 9.433 9.447 14.164 14.154 5.598 5.569 11.215 11.119 17.002 16.853m-50.447-46.899c-26.377-0.179-46.561 27.149-37.807 51.512 1.411 3.927 3.739 7.879 6.63 10.86 12.879 13.28 26.12 26.207 39.22 39.272 2.304 2.297 5.076 2.892 8.161 2.321 6.874-1.273 12.512-5.084 17.86-9.217 9.718-7.508 18.325-16.159 24.784-26.688 2.021-3.295 3.602-6.942 4.845-10.611 1.268-3.736 0.483-7.212-2.543-10.203-12.417-12.274-24.686-24.697-37.082-36.994-7.101-7.044-14.706-10.189-24.068-10.252" fill="#2c2825"/>
  </g>
  <g transform="matrix(.35278 0 0 -.35278 124.22 236.71)">
   <path d="m0 0c0.077-2.749 2.283-5.279 4.997-5.72 0.362-0.058 0.741-0.125 1.098-0.079 0.183 0.024 0.424 0.267 0.469 0.452 0.028 0.116-0.245 0.328-0.413 0.458-0.078 0.06-0.227 0.028-0.344 0.035-2.622 0.172-4.675 2.228-4.844 4.849-0.011 0.166 2e-3 0.367-0.087 0.484-0.105 0.141-0.329 0.309-0.461 0.28-0.161-0.034-0.302-0.248-0.407-0.412-0.054-0.084-9e-3 -0.23-8e-3 -0.347m16.618-0.01c0.093-5.483-4.189-10.208-9.779-10.722-5.749-0.53-10.927 3.803-11.435 9.586-0.246 2.802 0.438 5.434 1.562 7.968 1.722 3.884 4.342 7.163 7.056 10.374 0.456 0.539 0.92 1.07 1.39 1.595 0.427 0.478 0.69 0.489 1.102-0.015 1.648-2.011 3.328-4.001 4.908-6.065 2.224-2.905 3.965-6.075 4.762-9.687 0.218-0.995 0.293-2.022 0.434-3.034" fill="#2c2825"/>
  </g>
  <g transform="matrix(.35278 0 0 -.35278 132.64 240.52)">
   <path d="m0 0c0.081-2.221 2.003-4.147 4.214-4.226 0.323-0.011 0.64 0.024 0.684 0.417 0.043 0.384-0.221 0.543-0.566 0.545-1.715 0.01-3.356 1.613-3.37 3.368-3e-3 0.34-0.159 0.617-0.541 0.577-0.383-0.04-0.446-0.35-0.421-0.681m-3.261-0.95c0.021 3.018 0.643 4.905 1.572 6.697 1.433 2.766 3.412 5.139 5.452 7.462 0.414 0.471 0.703 0.479 1.086 0.041 2.012-2.302 3.972-4.645 5.414-7.366 0.905-1.71 1.517-3.513 1.637-5.457 0.342-5.534-5.003-9.542-10.215-7.667-2.991 1.076-4.972 3.991-4.946 6.29" fill="#2c2825"/>
  </g>
  <g transform="matrix(.35278 0 0 -.35278 129.64 245.12)">
   <path d="m0 0c0.079 0.075 0.357 0.22 0.413 0.424 0.09 0.333-0.173 0.487-0.503 0.537-1.37 0.205-1.906 0.744-2.161 2.171-0.054 0.303-0.181 0.531-0.503 0.512-0.35-0.022-0.461-0.282-0.451-0.608 0.048-1.588 1.418-2.97 3.205-3.036m-5.52 3.023c0.086 1.842 0.741 3.485 1.73 4.959 0.978 1.459 2.124 2.806 3.205 4.195 0.26 0.333 0.593 0.409 0.897 0.066 1.741-1.963 3.426-3.972 4.373-6.469 0.651-1.718 0.853-3.453-7e-3 -5.176-1.022-2.046-2.975-3.149-5.268-2.974-2.116 0.16-3.951 1.628-4.604 3.73-0.167 0.538-0.22 1.112-0.326 1.669" fill="#2c2825"/>
  </g>
  <g transform="matrix(.35278 0 0 -.35278 124.22 236.71)">
   <path d="m0 0c0 0.117-0.045 0.263 9e-3 0.347 0.105 0.164 0.246 0.378 0.407 0.412 0.132 0.029 0.356-0.139 0.461-0.28 0.089-0.117 0.076-0.318 0.087-0.484 0.169-2.621 2.222-4.677 4.844-4.849 0.117-7e-3 0.266 0.025 0.344-0.035 0.168-0.13 0.441-0.342 0.413-0.458-0.045-0.185-0.286-0.428-0.469-0.452-0.357-0.046-0.736 0.021-1.098 0.079-2.714 0.441-4.92 2.971-4.998 5.72" fill="#2c2825"/>
  </g>
  <g transform="matrix(.35278 0 0 -.35278 132.64 240.52)">
   <path d="m0 0c-0.025 0.331 0.038 0.641 0.421 0.681 0.382 0.04 0.538-0.237 0.541-0.577 0.014-1.755 1.655-3.358 3.37-3.368 0.345-2e-3 0.609-0.161 0.566-0.545-0.044-0.393-0.361-0.428-0.684-0.417-2.211 0.079-4.133 2.005-4.214 4.226" fill="#2c2825"/>
  </g>
  <g transform="matrix(.35278 0 0 -.35278 129.64 245.12)">
   <path d="m0 0c-1.787 0.066-3.157 1.448-3.205 3.036-0.01 0.326 0.101 0.586 0.451 0.608 0.322 0.019 0.449-0.209 0.503-0.512 0.255-1.427 0.791-1.966 2.161-2.171 0.33-0.05 0.593-0.204 0.503-0.537-0.056-0.204-0.334-0.349-0.413-0.424" fill="#2c2825"/>
  </g>
  <g transform="matrix(.35278 0 0 -.35278 128.01 225.43)">
   <path d="m0 0c0.077-2.749 2.283-5.28 4.997-5.721 0.362-0.058 0.74-0.125 1.098-0.078 0.183 0.024 0.424 0.267 0.468 0.452 0.029 0.116-0.244 0.327-0.412 0.457-0.078 0.061-0.227 0.028-0.344 0.036-2.622 0.171-4.675 2.228-4.844 4.849-0.011 0.165 1e-3 0.367-0.087 0.484-0.105 0.14-0.329 0.309-0.461 0.28-0.161-0.034-0.302-0.248-0.407-0.413-0.054-0.083-0.01-0.229-8e-3 -0.346m16.618-0.011c0.093-5.483-4.19-10.208-9.779-10.721-5.749-0.53-10.927 3.803-11.435 9.586-0.246 2.801 0.438 5.434 1.562 7.968 1.722 3.884 4.342 7.163 7.055 10.374 0.456 0.538 0.921 1.069 1.39 1.595 0.427 0.478 0.691 0.488 1.103-0.015 1.648-2.011 3.328-4.002 4.908-6.065 2.224-2.906 3.965-6.076 4.761-9.687 0.219-0.995 0.294-2.022 0.435-3.035" fill="#2c2825"/>
  </g>
  <g transform="matrix(.35278 0 0 -.35278 136.43 229.24)">
   <path d="m0 0c0.081-2.222 2.003-4.148 4.214-4.227 0.323-0.01 0.64 0.025 0.684 0.417 0.043 0.384-0.222 0.543-0.566 0.545-1.715 0.01-3.356 1.614-3.37 3.369-3e-3 0.34-0.159 0.617-0.541 0.577-0.383-0.04-0.446-0.35-0.421-0.681m-3.262-0.95c0.022 3.018 0.644 4.904 1.573 6.697 1.433 2.765 3.412 5.138 5.452 7.462 0.414 0.471 0.702 0.479 1.086 0.041 2.012-2.302 3.972-4.645 5.414-7.367 0.905-1.71 1.517-3.512 1.637-5.456 0.342-5.534-5.003-9.543-10.215-7.667-2.991 1.075-4.972 3.99-4.947 6.29" fill="#2c2825"/>
  </g>
  <g transform="matrix(.35278 0 0 -.35278 133.42 233.84)">
   <path d="m0 0c0.078 0.075 0.357 0.219 0.413 0.424 0.09 0.333-0.173 0.487-0.503 0.537-1.37 0.205-1.906 0.743-2.161 2.17-0.054 0.304-0.181 0.532-0.503 0.513-0.35-0.022-0.461-0.282-0.451-0.609 0.048-1.587 1.418-2.97 3.205-3.035m-5.52 3.022c0.086 1.843 0.741 3.486 1.73 4.96 0.978 1.458 2.124 2.805 3.205 4.194 0.26 0.334 0.593 0.409 0.897 0.067 1.741-1.964 3.426-3.972 4.373-6.47 0.651-1.717 0.853-3.452-7e-3 -5.175-1.022-2.046-2.975-3.149-5.269-2.975-2.115 0.161-3.951 1.629-4.603 3.73-0.167 0.539-0.22 1.112-0.326 1.669" fill="#2c2825"/>
  </g>
  <g transform="matrix(.35278 0 0 -.35278 128.01 225.43)">
   <path d="m0 0c-1e-3 0.117-0.045 0.263 9e-3 0.346 0.105 0.165 0.246 0.379 0.407 0.413 0.132 0.029 0.356-0.14 0.461-0.28 0.088-0.117 0.076-0.319 0.087-0.484 0.169-2.621 2.222-4.678 4.844-4.849 0.117-8e-3 0.266 0.025 0.344-0.036 0.168-0.13 0.441-0.341 0.412-0.457-0.044-0.185-0.285-0.428-0.468-0.452-0.358-0.047-0.736 0.02-1.098 0.078-2.714 0.441-4.92 2.972-4.998 5.721" fill="#2c2825"/>
  </g>
  <g transform="matrix(.35278 0 0 -.35278 136.43 229.24)">
   <path d="m0 0c-0.025 0.331 0.038 0.641 0.421 0.681 0.382 0.04 0.538-0.237 0.541-0.577 0.014-1.755 1.655-3.359 3.37-3.369 0.344-2e-3 0.609-0.161 0.566-0.545-0.044-0.392-0.361-0.427-0.684-0.417-2.211 0.079-4.133 2.005-4.214 4.227" fill="#2c2825"/>
  </g>
  <g transform="matrix(.35278 0 0 -.35278 133.42 233.84)">
   <path d="m0 0c-1.787 0.065-3.157 1.448-3.205 3.035-0.01 0.327 0.101 0.587 0.451 0.609 0.322 0.019 0.449-0.209 0.503-0.513 0.255-1.427 0.791-1.965 2.161-2.17 0.33-0.05 0.593-0.204 0.503-0.537-0.056-0.205-0.335-0.349-0.413-0.424" fill="#2c2825"/>
  </g>
 </g>
</svg>
