<?xml version="1.0" encoding="UTF-8"?>
<svg width="45.952mm" height="60.49mm" version="1.1" viewBox="0 0 45.952 60.49" xmlns="http://www.w3.org/2000/svg" xmlns:cc="http://creativecommons.org/ns#" xmlns:dc="http://purl.org/dc/elements/1.1/" xmlns:rdf="http://www.w3.org/1999/02/22-rdf-syntax-ns#">
 <metadata>
  <rdf:RDF>
   <cc:Work rdf:about="">
    <dc:format>image/svg+xml</dc:format>
    <dc:type rdf:resource="http://purl.org/dc/dcmitype/StillImage"/>
    <dc:title/>
   </cc:Work>
  </rdf:RDF>
 </metadata>
 <g transform="translate(-139.69 -210.55)">
  <g transform="matrix(.35278 0 0 -.35278 171.48 237.88)">
   <path d="m0 0c-5.632-0.091-9.89-4.485-9.791-10.107 0.097-5.495 4.725-9.981 10.17-9.858 5.48 0.124 9.895 4.733 9.805 10.236-0.091 5.58-4.53 9.82-10.184 9.729zm-40.405-10.062c0.078 5.599-4.226 9.997-9.85 10.062-5.658 0.066-10.06-4.184-10.126-9.774-0.065-5.527 4.339-10.088 9.838-10.191 5.433-0.1 10.061 4.421 10.138 9.903zm-14.559-67.583c-6.248 0.753-12.561 1.166-18.729 2.342-8.589 1.638-13.916 7.303-15.305 15.743-0.907 5.518-0.595 11.316-0.217 16.948 0.631 9.408 1.619 18.798 2.689 28.169 2.942 25.758 21.005 44.002 46.829 47.446 14.808 1.976 29.442 1.644 43.477-4.114 19.72-8.092 29.806-23.458 32.48-44.121 1.306-10.094 2.721-20.205 3.287-30.353 0.312-5.592-0.323-11.47-1.8-16.872-2.146-7.846-8.376-12.281-16.158-13.24-8.917-1.098-17.989-1.452-26.97-1.215-2.783 0.073-6.569 2.494-8.011 4.948-3.369 5.733-5.712 12.091-8.169 18.315-0.404 1.025 0.457 2.821 1.19 3.969 1.616 2.53 3.661 4.784 5.281 7.311 2.968 4.626 0.565 9.322-4.864 9.543-3.607 0.147-7.234 0.19-10.834-0.022-4.857-0.286-7.25-4.869-4.847-9.088 0.739-1.298 1.573-2.638 2.665-3.626 5.07-4.585 4.832-9.834 2.215-15.478-0.948-2.043-1.721-4.175-2.773-6.16-3.57-6.737-8.423-11.346-16.858-9.942-1.465 0.244-3.005 0.035-4.51 0.035-0.023-0.179-0.045-0.359-0.068-0.538z" fill="none" stroke="#2c2825" stroke-miterlimit="10"/>
  </g>
  <g transform="matrix(.35278 0 0 -.35278 184.28 237.1)">
   <path d="m0 0c-8.432 18.795-22.37 28.826-40.853 33.78 6.913 12.917 13.416 25.565 20.531 37.859 1.139 1.967 4.969 3.111 7.639 3.277 3.395 0.211 5.85-2.294 6.637-5.697 3.004-12.985 6.441-25.907 8.588-39.038 1.215-7.422 0.395-15.209 0.134-22.82-0.071-2.067-1.44-4.09-2.676-7.361" fill="#2c2825"/>
  </g>
  <g transform="matrix(.35278 0 0 -.35278 155.33 225.24)">
   <path d="m0 0c-18.6-4.906-32.377-15.048-40.209-32.516-0.49 0.013-0.98 0.027-1.47 0.04-0.879 4.114-2.31 8.198-2.537 12.347-0.865 15.785 2.904 30.968 6.698 46.114 0.801 3.196 1.151 6.686 2.739 9.449 1.407 2.448 3.939 4.94 6.525 5.855 3.552 1.256 6.621-0.8 8.468-4.27 6.482-12.176 13.001-24.332 19.786-37.019" fill="#2c2825"/>
  </g>
  <g transform="matrix(.35278 0 0 -.35278 176.31 266.69)">
   <path d="m0 0c-4.889-7.695-11.564-12.058-20.151-12.235-13.066-0.269-26.155 0.028-39.22 0.491-7.818 0.277-13.149 5.105-18.018 11.731 4.998 0 9.428 0.327 13.791-0.068 8.983-0.814 15.007 3.418 19.198 10.766 2.121 3.719 3.695 7.752 5.721 12.078 1.522-3.491 2.791-6.767 4.348-9.9 4.301-8.653 10.579-14.029 21.038-12.936 4.244 0.443 8.572 0.073 13.293 0.073" fill="#2c2825"/>
  </g>
  <path transform="matrix(.26458 0 0 .26458 127.7 195.91)" d="m85.944 260.67c-18.624-2.2188-20.964-2.6738-25.714-4.9994-2.3537-1.1523-3.6402-2.0956-5.7263-4.1985-7.9292-7.9931-8.9892-17.26-5.8662-51.284 1.0508-11.447 2.686-25.354 3.3845-28.781 5.2133-25.582 22.045-44.685 46.352-52.608 16.998-5.5404 42.027-6.3088 59.686-1.8324 29.831 7.5618 48.291 26.744 53.93 56.04 0.75174 3.9054 3.5345 25.562 4.548 35.395 0.88697 8.6053 0.88155 21.233-0.0113 26.25-0.82613 4.6422-2.1073 9.1514-3.229 11.365-2.9562 5.8337-8.468 10.17-15.074 11.86-5.7502 1.4707-21.701 2.6143-33.887 2.4298-7.787-0.11793-7.8755-0.128-9.9106-1.1274-1.1294-0.5546-2.9272-1.8069-3.9951-2.7829-1.6628-1.5197-2.3517-2.6057-4.7977-7.5631-1.5708-3.1837-4.0931-8.8846-5.6051-12.669l-2.749-6.8801 0.61843-1.6193c0.34014-0.89063 2.3906-4.0506 4.5565-7.022 4.7668-6.5398 5.2572-7.5393 5.2675-10.738 0.0122-3.7864-1.3242-5.858-4.818-7.4683-1.7109-0.78856-2.1413-0.82102-10.888-0.82102-10.17 0-10.939 0.13125-13.317 2.2752-4.5737 4.1234-3.5321 10.022 3.0133 17.066 2.9444 3.1683 3.9598 5.3442 4.1563 8.9059 0.19544 3.5428-0.26119 5.2687-3.2041 12.11-2.9439 6.8438-4.9724 10.186-8.1487 13.426-4.5803 4.6724-8.6217 6.0555-15.541 5.3185-2.8964-0.3085-4.4915-0.31596-6.0477-0.0283-2.3685 0.43785-3.1543 0.43554-6.9826-0.0205zm18.358-75.973c2.7555-1.3565 5.6091-4.2789 6.9296-7.0966 0.85409-1.8225 0.96282-2.478 0.96282-5.8045 0-3.3211-0.10947-3.9836-0.95716-5.7922-1.3366-2.8516-3.8445-5.4061-6.6764-6.8002-2.2212-1.0935-2.5697-1.1576-6.295-1.1576-3.7334 0-4.0702 0.0623-6.3188 1.1693-2.958 1.4562-5.6315 4.2752-6.767 7.1354-1.157 2.9142-1.157 7.9763 0 10.89 0.88646 2.2329 3.5971 5.4686 5.6378 6.7298 3.9222 2.424 9.4325 2.7208 13.484 0.72612zm66.821 0.30398c2.9596-1.1303 6.5132-4.6711 7.6973-7.6694 1.1891-3.0111 1.2034-8.0288 0.0314-10.981-1.1399-2.8712-3.8207-5.6944-6.7805-7.1406-2.242-1.0955-2.5994-1.1614-6.3053-1.1627-3.5164-1e-3 -4.1428 0.099-5.9707 0.95575-2.8516 1.3366-5.4061 3.8445-6.8002 6.6764-1.083 2.1999-1.1576 2.5935-1.1576 6.1089 0 3.3292 0.10909 3.9903 0.95716 5.7997 1.7457 3.7246 5.4677 6.973 9.1962 8.0261 2.3322 0.65871 6.5422 0.37604 9.1324-0.61318z" fill="#2c2825" stroke="#2c2825" stroke-width=".35714"/>
 </g>
</svg>
