<?xml version="1.0" encoding="UTF-8" standalone="no"?>
<svg
   xmlns:dc="http://purl.org/dc/elements/1.1/"
   xmlns:cc="http://creativecommons.org/ns#"
   xmlns:rdf="http://www.w3.org/1999/02/22-rdf-syntax-ns#"
   xmlns:svg="http://www.w3.org/2000/svg"
   xmlns="http://www.w3.org/2000/svg"
   xmlns:sodipodi="http://sodipodi.sourceforge.net/DTD/sodipodi-0.dtd"
   xmlns:inkscape="http://www.inkscape.org/namespaces/inkscape"
   width="72.927986mm"
   height="72.917427mm"
   viewBox="0 0 72.927987 72.917428"
   version="1.1"
   id="svg8"
   inkscape:version="1.0.1 (3bc2e813f5, 2020-09-07)"
   sodipodi:docname="powdercaps.svg">
  <defs
     id="defs2">
    <mask
       maskUnits="userSpaceOnUse"
       id="mask206">
      <g
         id="g210"
         transform="translate(-13.676317,81.656191)">
        <path
           d="m 0,0 c 5.654,0.091 10.093,-4.149 10.184,-9.729 0.09,-5.503 -4.325,-10.112 -9.805,-10.236 -5.445,-0.123 -10.073,4.363 -10.17,9.858 C -9.89,-4.485 -5.632,-0.091 0,0"
           style="fill:#f8d858;fill-opacity:1;fill-rule:nonzero;stroke:none"
           id="path208" />
      </g>
    </mask>
  </defs>
  <sodipodi:namedview
     id="base"
     pagecolor="#ffffff"
     bordercolor="#666666"
     borderopacity="1.0"
     inkscape:pageopacity="0.0"
     inkscape:pageshadow="2"
     inkscape:zoom="2.8"
     inkscape:cx="42.635336"
     inkscape:cy="140.34486"
     inkscape:document-units="mm"
     inkscape:current-layer="layer1"
     inkscape:document-rotation="0"
     showgrid="false"
     inkscape:window-width="1920"
     inkscape:window-height="1001"
     inkscape:window-x="-9"
     inkscape:window-y="-9"
     inkscape:window-maximized="1"
     fit-margin-top="0"
     fit-margin-left="0"
     fit-margin-right="0"
     fit-margin-bottom="0" />
  <metadata
     id="metadata5">
    <rdf:RDF>
      <cc:Work
         rdf:about="">
        <dc:format>image/svg+xml</dc:format>
        <dc:type
           rdf:resource="http://purl.org/dc/dcmitype/StillImage" />
        <dc:title></dc:title>
      </cc:Work>
    </rdf:RDF>
  </metadata>
  <g
     inkscape:label="Layer 1"
     inkscape:groupmode="layer"
     id="layer1"
     transform="translate(-114.54387,-203.94556)">
    <g
       id="g2037"
       transform="matrix(0.35277777,0,0,-0.35277777,135.56573,239.20734)">
      <path
         d="m 0,0 c 1.396,0.454 2.877,0.739 4.177,1.387 15.37,7.661 26.861,19.262 34.685,34.505 0.695,1.352 0.94,2.969 1.211,4.497 0.299,1.68 -0.49,2.496 -2.215,2.026 C 36.262,41.98 34.583,41.648 33.136,40.896 18.552,33.305 7.437,22.17 -0.303,7.69 -1.157,6.093 -1.568,4.237 -2.042,2.463 -2.47,0.86 -1.866,-0.065 0,0 m 46.95,40.069 c 1.281,-2.824 2.304,-5.803 3.888,-8.446 6.549,-10.926 15.364,-19.76 25.91,-26.806 2.869,-1.918 6.171,-3.334 9.456,-4.442 3.163,-1.068 4.063,-0.103 3.139,3.042 -0.72,2.452 -1.662,4.921 -2.971,7.104 -7.248,12.086 -16.923,21.813 -29.111,28.922 -2.271,1.325 -4.9,2.071 -7.416,2.926 -1.765,0.601 -2.662,-0.164 -2.895,-2.3 M 96.137,7.309 c 0.351,0.212 0.622,0.313 0.808,0.499 11.679,11.683 23.472,23.256 34.979,35.108 6.966,7.174 9.334,16.083 7.41,25.833 -2.242,11.356 -9.114,19.156 -20.128,22.58 C 107.775,94.884 97.469,92.19 88.905,83.717 77.885,72.811 66.965,61.803 56.009,50.831 55.451,50.272 54.966,49.643 54.407,49.001 73.18,39.83 86.977,26.043 96.137,7.309 M 32.969,48.936 c -0.107,0.293 -0.121,0.512 -0.238,0.629 -12.08,12.063 -23.965,24.331 -36.335,36.09 -6.834,6.497 -15.581,8.359 -24.775,6.531 -11.23,-2.233 -18.994,-9.007 -22.5,-19.877 -3.566,-11.061 -1.33,-21.333 6.795,-29.744 11.221,-11.614 22.79,-22.891 34.219,-34.303 0.368,-0.367 0.834,-0.637 1.263,-0.96 9.105,18.682 22.904,32.468 41.571,41.634 m 11.524,-0.415 c 0.753,1.052 1.376,2.233 2.278,3.138 12.24,12.303 24.487,24.601 36.797,36.834 15.59,15.492 39.057,15.239 53.826,-0.514 12.777,-13.63 13.131,-35.876 0.199,-49.4 C 124.265,24.641 110.216,11.391 96.876,-2.538 90.829,-8.852 84.893,-7.733 77.36,-3.661 63.678,3.737 53.079,14.521 44.827,27.654 44.589,28.032 44.303,28.38 43.763,29.12 43.095,28.108 42.574,27.315 42.049,26.524 33.488,13.626 22.833,2.96 9.017,-4.291 7.399,-5.14 5.604,-5.679 3.853,-6.233 c -4.911,-1.553 -8.785,-0.588 -12.63,3.377 -12.851,13.245 -26.138,26.063 -39.19,39.114 -12.555,12.554 -15.179,30.589 -6.695,45.214 12.239,21.099 40.511,24.784 58.164,7.446 12.513,-12.29 24.835,-24.775 37.215,-37.2 0.906,-0.909 1.591,-2.04 2.378,-3.068 0.466,-0.043 0.932,-0.087 1.398,-0.129"
         style="fill:#2c2825;fill-opacity:1;fill-rule:nonzero;stroke:none"
         id="path2039" />
    </g>
    <g
       id="g2041"
       transform="matrix(0.35277777,0,0,-0.35277777,151.04385,246.45411)">
      <path
         d="m 0,0 c -1.005,-1.384 -1.64,-2.166 -2.176,-3.011 -9.096,-14.329 -18.419,-28.522 -27.191,-43.047 -6.951,-11.509 -15.791,-21.06 -26.701,-28.793 -1.683,-1.192 -3.383,-2.361 -5.631,-3.929 H 61.516 c -1.29,0.891 -2.023,1.41 -2.768,1.909 -11.171,7.484 -20.783,16.522 -27.879,28.052 -6.14,9.977 -12.168,20.025 -18.397,29.947 C 8.562,-12.646 4.372,-6.595 0,0 m -0.248,-86.197 c -25.205,0 -50.411,-0.012 -75.616,0.034 -1.334,0.003 -2.887,0.156 -3.956,0.838 -2.506,1.596 -1.588,5.048 1.656,6.376 9.141,3.74 17.39,8.92 24.893,15.309 6.873,5.854 12.469,12.744 17.27,20.41 10.282,16.418 20.823,32.673 31.275,48.985 0.544,0.848 1.192,1.652 1.904,2.364 2.008,2.009 4.17,1.945 5.802,-0.413 5.513,-7.964 11.086,-15.894 16.312,-24.046 5.926,-9.241 11.454,-18.736 17.24,-28.069 9.654,-15.571 23.327,-26.451 39.894,-33.906 0.926,-0.417 2.17,-0.559 2.726,-1.258 0.832,-1.045 1.727,-2.54 1.579,-3.716 -0.127,-1.007 -1.545,-2.337 -2.632,-2.628 -1.729,-0.463 -3.656,-0.206 -5.499,-0.206 -24.283,-0.007 -48.566,-0.005 -72.848,-0.005 z"
         style="fill:#2c2825;fill-opacity:1;fill-rule:nonzero;stroke:none"
         id="path2043" />
    </g>
    <g
       id="g2045"
       transform="matrix(0.35277777,0,0,-0.35277777,144.45753,248.25105)">
      <path
         d="m 0,0 c -0.353,-2.146 -1.55,-3.519 -3.671,-3.478 -2.118,0.04 -3.364,1.442 -3.509,3.547 -0.132,1.905 1.904,3.82 3.775,3.579 C -1.302,3.378 -0.194,2.04 0,0"
         style="fill:#2c2825;fill-opacity:1;fill-rule:nonzero;stroke:none"
         id="path2047" />
    </g>
    <g
       id="g2049"
       transform="matrix(0.35277777,0,0,-0.35277777,160.09961,245.60663)">
      <path
         d="m 0,0 c -0.326,-2.065 -1.297,-3.461 -3.546,-3.527 -2.027,-0.06 -3.746,1.664 -3.678,3.643 0.065,1.859 1.801,3.507 3.669,3.381 C -1.391,3.351 -0.278,2.065 0,0"
         style="fill:#2c2825;fill-opacity:1;fill-rule:nonzero;stroke:none"
         id="path2051" />
    </g>
    <g
       id="g2053"
       transform="matrix(0.35277777,0,0,-0.35277777,154.94267,241.64028)">
      <path
         d="M 0,0 C -2.025,-0.031 -3.598,1.471 -3.568,3.406 -3.535,5.619 -1.911,7.52 0.059,6.915 1.421,6.498 2.828,4.931 3.388,3.543 3.984,2.063 1.738,0.027 0,0"
         style="fill:#2c2825;fill-opacity:1;fill-rule:nonzero;stroke:none"
         id="path2055" />
    </g>
    <g
       id="g2057"
       transform="matrix(0.35277777,0,0,-0.35277777,145.74978,243.10374)">
      <path
         d="m 0,0 c -0.158,-1.871 -1.479,-3.035 -3.507,-3.275 -1.88,-0.223 -3.469,1.475 -3.51,3.473 -0.041,2.022 1.452,3.599 3.4,3.59 C -1.676,3.78 -0.047,2.214 0,0"
         style="fill:#2c2825;fill-opacity:1;fill-rule:nonzero;stroke:none"
         id="path2059" />
    </g>
    <g
       id="g2061"
       transform="matrix(0.35277777,0,0,-0.35277777,160.18817,242.96386)">
      <path
         d="M 0,0 C 0.228,1.887 1.139,3.202 3.428,3.306 5.846,3.414 6.68,1.854 6.958,-0.069 7.218,-1.852 5.104,-3.865 3.235,-3.649 1.282,-3.424 0.122,-2.241 0,0"
         style="fill:#2c2825;fill-opacity:1;fill-rule:nonzero;stroke:none"
         id="path2063" />
    </g>
    <g
       id="g2065"
       transform="matrix(0.35277777,0,0,-0.35277777,153.54808,236.5057)">
      <path
         d="m 0,0 c -0.016,-1.945 -1.612,-3.576 -3.555,-3.461 -2.152,0.128 -3.488,1.323 -3.466,3.523 0.02,2.199 1.375,3.369 3.532,3.459 C -1.536,3.602 0.016,1.963 0,0"
         style="fill:#2c2825;fill-opacity:1;fill-rule:nonzero;stroke:none"
         id="path2067" />
    </g>
    <g
       id="g2069"
       transform="matrix(0.35277777,0,0,-0.35277777,144.55844,266.4136)">
      <path
         d="M 0,0 C -2.196,0.108 -3.493,1.202 -3.73,3.328 -3.949,5.282 -2.191,7.169 -0.22,7.072 1.903,6.969 3.218,5.779 3.276,3.614 3.336,1.435 2.067,0.284 0,0"
         style="fill:#2c2825;fill-opacity:1;fill-rule:nonzero;stroke:none"
         id="path2071" />
    </g>
    <g
       id="g2073"
       transform="matrix(0.35277777,0,0,-0.35277777,147.06097,258.59153)">
      <path
         d="m 0,0 c -2.115,0.227 -3.446,1.432 -3.41,3.538 0.035,2.049 1.255,3.415 3.451,3.52 C 2.022,7.151 3.838,5.359 3.646,3.391 3.439,1.296 2.182,0.126 0,0"
         style="fill:#2c2825;fill-opacity:1;fill-rule:nonzero;stroke:none"
         id="path2075" />
    </g>
    <g
       id="g2077"
       transform="matrix(0.35277777,0,0,-0.35277777,153.55671,252.11714)">
      <path
         d="M 0,0 C -0.164,-2.113 -1.263,-3.39 -3.413,-3.54 -5.461,-3.684 -7.18,-2.001 -7.064,0.021 -6.941,2.187 -5.659,3.41 -3.541,3.422 -1.4,3.434 -0.227,2.156 0,0"
         style="fill:#2c2825;fill-opacity:1;fill-rule:nonzero;stroke:none"
         id="path2079" />
    </g>
    <g
       id="g2081"
       transform="matrix(0.35277777,0,0,-0.35277777,152.36849,258.71003)">
      <path
         d="M 0,0 C 2.036,-0.289 3.356,-1.403 3.318,-3.578 3.281,-5.739 1.974,-6.927 -0.159,-7.02 -2.203,-7.108 -3.877,-5.352 -3.697,-3.344 -3.503,-1.179 -2.16,-0.155 0,0"
         style="fill:#2c2825;fill-opacity:1;fill-rule:nonzero;stroke:none"
         id="path2083" />
    </g>
    <g
       id="g2085"
       transform="matrix(0.35277777,0,0,-0.35277777,158.78154,266.53005)">
      <path
         d="M 0,0 C 2.111,-0.165 3.538,-1.167 3.613,-3.394 3.688,-5.594 2.423,-6.91 0.261,-6.993 -1.897,-7.075 -3.271,-5.871 -3.36,-3.665 -3.45,-1.454 -2.142,-0.309 0,0"
         style="fill:#2c2825;fill-opacity:1;fill-rule:nonzero;stroke:none"
         id="path2087" />
    </g>
  </g>
</svg>
