<svg xmlns="http://www.w3.org/2000/svg" viewBox="0 0 135.76 177.47"><defs><style>.cls-1{fill:#2d2825;}</style></defs><title>Asset 1</title><g id="Layer_2" data-name="Layer 2"><g id="Layer_1-2" data-name="Layer 1"><path class="cls-1" d="M76.45,177.47c-10.69,0-20.89-.3-29.12-.59-9.84-.35-16-7.1-20.33-12.95l-3.23-4.41c-1.64-.22-3.27-.48-4.89-.79-9.65-1.84-16.11-8.47-17.71-18.2-.94-5.72-.65-11.61-.25-17.64C1.59,113,2.66,103,3.62,94.58A62.58,62.58,0,0,1,7,80.18l-3.77-.1-.49-2.31c-.27-1.23-.58-2.46-.91-3.76A46.11,46.11,0,0,1,.13,65c-.9-16.35,3-31.93,6.78-47,.21-.82.38-1.66.56-2.5A25.2,25.2,0,0,1,10,7.74,16.63,16.63,0,0,1,18.09.55c4.71-1.67,9.35.51,12.11,5.69,4.61,8.65,9.23,17.29,14,26.12l6.67,12.48c.73-.13,1.47-.24,2.21-.34,12-1.59,22.41-1.49,31.89.38l1-1.81c1.73-3.23,3.43-6.44,5.13-9.64,5.19-9.79,10.09-19,15.45-28.3,2-3.39,7.24-4.6,10-4.77,4.64-.28,8.57,2.93,9.74,8,.75,3.24,1.53,6.47,2.31,9.71,2.3,9.62,4.69,19.56,6.32,29.51,1,6.15.69,12.46.39,18.55-.08,1.63-.16,3.25-.22,4.86a14.77,14.77,0,0,1-1.67,5.5c-.4.88-.8,1.78-1.2,2.82l-2,5.29a74.32,74.32,0,0,1,2.17,10.71l.43,3.34c1.16,8.9,2.36,18.09,2.87,27.23a56.29,56.29,0,0,1-1.9,17.83c-2.36,8.63-9.17,14.26-18.68,15.43-1,.12-2,.24-3.06.34l-2.69,4.25c-5.62,8.84-13.23,13.43-22.62,13.62-3.44.07-6.88.1-10.27.1M35.72,165.05c3.81,3.93,7.46,5.68,11.82,5.83,10.76.38,24.92.78,39.05.49A19.35,19.35,0,0,0,100.82,165a55.41,55.41,0,0,0-7,.16c-10.75,1.13-18.6-3.64-24-14.58-.62-1.24-1.18-2.49-1.74-3.76-1,2.09-1.91,4.11-3,6.09-5.13,9-12.56,13.14-22.07,12.27a68.36,68.36,0,0,0-7.22-.16m5.37-10.54a12.32,12.32,0,0,1,2.15.16c6,1,10-1.43,13.71-8.39.59-1.11,1.09-2.3,1.62-3.55.36-.83.71-1.66,1.08-2.47,2.47-5.32,2-8.79-1.5-12a17.12,17.12,0,0,1-3.26-4.37,9.2,9.2,0,0,1-.3-9,9,9,0,0,1,7.58-4.59,110.52,110.52,0,0,1,11.13,0c3.67.15,6.63,1.86,8.1,4.7s1.19,6.31-.83,9.46c-.88,1.36-1.84,2.62-2.77,3.84s-1.77,2.3-2.51,3.47a7.09,7.09,0,0,0-.79,1.61l.72,1.82a110.88,110.88,0,0,0,7.11,15.71,8.52,8.52,0,0,0,5.5,3.48,178.77,178.77,0,0,0,26.52-1.2c7.08-.87,11.92-4.8,13.63-11a50.14,50.14,0,0,0,1.7-15.92c-.49-8.91-1.68-18-2.83-26.78l-.43-3.35c-2.69-20.72-12.71-34.37-30.65-41.73-11.93-4.9-25.26-6.14-41.94-3.92C29.32,53.72,12.37,70.89,9.59,95.27c-1,8.37-2,18.26-2.68,28-.38,5.67-.65,11.18.18,16.27,1.21,7.3,5.67,11.9,12.91,13.28,4.14.79,8.48,1.24,12.69,1.67l2.87.3,0-.22h2.64c.44,0,.87,0,1.31,0s1,0,1.55,0m26.48-38.33c-1.8,0-3.46,0-5,.14a3.08,3.08,0,0,0-2.66,1.46,3.24,3.24,0,0,0,.24,3.15,11.86,11.86,0,0,0,2.08,2.89,13.92,13.92,0,0,1,5,10.52l1-2.25.29.68a10.77,10.77,0,0,1,1.71-4.22c.88-1.38,1.86-2.66,2.8-3.89s1.75-2.28,2.49-3.43a3.54,3.54,0,0,0,.56-3.45,3.39,3.39,0,0,0-3-1.48c-2-.08-3.8-.12-5.49-.12M74.36,133h0M92.93,42.64C109.27,47.8,121.16,57.11,129.06,71a.86.86,0,0,0,0-.16c.06-1.65.14-3.3.22-5,.29-5.78.59-11.76-.31-17.28-1.59-9.73-4-19.57-6.24-29.08-.78-3.25-1.56-6.51-2.31-9.76-.2-.83-1-3.51-3.53-3.38s-4.84,1.19-5.23,1.79c-5.3,9.16-10.18,18.36-15.34,28.1l-3.4,6.4M21.13,6a3.06,3.06,0,0,0-1,.19,10.63,10.63,0,0,0-4.93,4.52,20.66,20.66,0,0,0-1.82,5.94c-.19.92-.38,1.84-.61,2.74C9.07,34.05,5.27,49.19,6.12,64.63a32.65,32.65,0,0,0,1,5.91C14.76,57,26.54,47.89,42.94,42.81l-4.07-7.62c-4.73-8.83-9.36-17.48-14-26.13C24.26,7.84,23,6,21.13,6"/><path class="cls-1" d="M42.77,103.45h-.24A13.09,13.09,0,0,1,29.75,90.22a12.79,12.79,0,0,1,3.88-9.13,13,13,0,0,1,9.11-3.61h.17a13,13,0,0,1-.14,26m0-20a7,7,0,0,0-5,1.93,6.81,6.81,0,0,0-2,4.88,7.07,7.07,0,0,0,6.89,7.16,6.91,6.91,0,0,0,4.91-2,7,7,0,0,0,2.18-5,6.82,6.82,0,0,0-6.89-7h-.09"/><path class="cls-1" d="M93.29,103.45a12.81,12.81,0,0,1-8.92-3.63,12.9,12.9,0,0,1,8.71-22.34h0a12.82,12.82,0,0,1,13.24,12.68,13.09,13.09,0,0,1-12.74,13.29h-.29m-.11-20a7,7,0,0,0,.26,14,7.08,7.08,0,0,0,6.88-7.19,6.79,6.79,0,0,0-7.14-6.78"/></g></g></svg>